<svg width="165" height="37" viewBox="0 0 165 37" fill="none" xmlns="http://www.w3.org/2000/svg">
<path d="M31.6372 13.8624L31.6151 13.8403C31.6133 13.839 31.6118 13.8374 31.6109 13.8355L17.7758 0L3.94085 13.8351C3.93926 13.8367 3.93837 13.8389 3.93676 13.8399L3.91393 13.862C1.79837 15.9895 0.454625 18.763 0.0963089 21.7419C-0.262007 24.7207 0.38567 27.7338 1.93637 30.3023C3.48708 32.8708 5.85183 34.8473 8.6547 35.9174C11.4576 36.9874 14.5377 37.09 17.4055 36.2084C17.6468 36.1346 17.9047 36.1346 18.1461 36.2084C21.0136 37.0896 24.0936 36.9871 26.8963 35.9168C29.699 34.8466 32.0634 32.8703 33.614 30.302C35.1647 27.7337 35.8124 24.7207 35.4542 21.742C35.0961 18.7634 33.7525 15.9898 31.6372 13.8624ZM8.86039 22.9857C8.79304 23.0531 8.73963 23.1331 8.70321 23.221C8.66676 23.3089 8.64801 23.4032 8.64802 23.4984C8.67264 25.9403 9.36273 28.3291 10.644 30.4079C10.6731 30.4551 10.6866 30.5103 10.6824 30.5655C10.6783 30.6207 10.6568 30.6732 10.621 30.7155C10.5852 30.7579 10.537 30.7877 10.4832 30.8009C10.4294 30.8141 10.3728 30.81 10.3215 30.7891C9.35823 30.384 8.48317 29.795 7.74524 29.0552C6.23298 27.5427 5.3828 25.4917 5.38143 23.3528C5.38005 21.214 6.2276 19.1619 7.73794 17.6475L17.7758 7.61057L27.8132 17.6475C29.3238 19.1617 30.1716 21.2138 30.1702 23.3528C30.169 25.4917 29.3186 27.5427 27.8063 29.0552C27.0683 29.795 26.1933 30.384 25.2302 30.7891C25.1788 30.81 25.1222 30.8141 25.0684 30.8009C25.0146 30.7877 24.9664 30.7577 24.9305 30.7155C24.8948 30.6732 24.8731 30.6207 24.869 30.5653C24.8649 30.5101 24.8783 30.4549 24.9074 30.4077C26.189 28.3291 26.8795 25.9403 26.9045 23.4984C26.9045 23.4032 26.8855 23.3089 26.8489 23.2208C26.8123 23.1328 26.7587 23.0529 26.6912 22.9856L21.9434 17.9497C21.8961 17.9102 21.8366 17.8886 21.775 17.8886C21.7135 17.8886 21.6539 17.9102 21.6067 17.9497C21.5594 17.989 21.5276 18.0438 21.5165 18.1044C21.5054 18.1649 21.5159 18.2273 21.5463 18.2809C23.3902 21.6177 21.8046 26.4106 19.1604 29.0552L19.1465 29.0692C18.7815 29.4302 18.2888 29.6326 17.7755 29.6324C17.2621 29.6323 16.7695 29.4295 16.4048 29.0683L16.392 29.0552C13.7468 26.4106 12.162 21.6182 14.0062 18.2816C14.0365 18.228 14.0471 18.1656 14.036 18.1051C14.025 18.0445 13.9931 17.9897 13.9459 17.9504C13.8986 17.9109 13.839 17.8893 13.7775 17.8893C13.7159 17.8893 13.6563 17.9109 13.6091 17.9504L8.86039 22.9857Z" fill="#6D7D93"/>
<path d="M65.6717 11.5546H70.2506L65.5011 27.4243H60.268L58.0497 18.039L55.8029 27.4243H50.5699L45.8203 11.5546H50.6836L53.1579 22.7032L55.6038 11.5546H60.7515L63.1974 22.7032L65.6717 11.5546Z" fill="#6D7D93"/>
<path d="M82.1447 22.3904C82.8462 21.7078 83.197 20.7408 83.197 19.4894C83.197 18.2381 82.8462 17.2806 82.1447 16.617C81.4431 15.9344 80.6373 15.5931 79.7272 15.5931C78.8172 15.5931 78.0113 15.9344 77.3098 16.617C76.6083 17.2995 76.2575 18.2665 76.2575 19.5179C76.2575 20.7693 76.6083 21.7362 77.3098 22.4188C78.0113 23.0824 78.8172 23.4142 79.7272 23.4142C80.6373 23.4142 81.4431 23.0729 82.1447 22.3904ZM73.4135 25.3482C72.0104 23.8313 71.3089 21.8879 71.3089 19.5179C71.3089 17.1479 72.0104 15.2044 73.4135 13.6876C74.8165 12.1518 76.523 11.3839 78.5327 11.3839C80.5615 11.3839 82.1162 12.1329 83.197 13.6307V11.5546H88.0603V27.4243H83.197V25.1206C82.0214 26.7891 80.4477 27.6234 78.4759 27.6234C76.504 27.6234 74.8165 26.865 73.4135 25.3482Z" fill="#6D7D93"/>
<path d="M90.3139 11.5546H95.4901L99.102 23.3573L102.714 11.5546H107.89L102.259 27.4243H95.9451L90.3139 11.5546Z" fill="#6D7D93"/>
<path d="M116.877 27.6234C114.563 27.6234 112.667 26.8839 111.189 25.405C109.71 23.9072 108.97 21.9258 108.97 19.461C108.97 16.9962 109.7 15.0338 111.16 13.5738C112.639 12.1139 114.544 11.3839 116.877 11.3839C119.209 11.3839 121.143 12.1044 122.678 13.5454C124.214 14.9864 124.982 16.9867 124.982 19.5463C124.982 20.0962 124.944 20.6081 124.868 21.0821H113.947C114.042 21.7836 114.355 22.3619 114.886 22.817C115.417 23.2531 115.985 23.4711 116.592 23.4711C117.218 23.4711 117.682 23.4142 117.986 23.3005C118.289 23.1677 118.507 23.0445 118.64 22.9307C118.792 22.798 118.981 22.5894 119.209 22.305H124.47C124.015 23.8977 123.105 25.187 121.74 26.1729C120.375 27.1399 118.754 27.6234 116.877 27.6234ZM119.92 18.039C119.844 17.2995 119.522 16.7023 118.953 16.2472C118.384 15.7732 117.711 15.5362 116.933 15.5362C116.156 15.5362 115.502 15.7732 114.971 16.2472C114.44 16.7023 114.108 17.2995 113.976 18.039H119.92Z" fill="#6D7D93"/>
<path d="M132.969 11.5546V14.5124C134.107 12.4268 135.624 11.3839 137.52 11.3839V16.3326H136.325C135.206 16.3326 134.363 16.598 133.794 17.1289C133.244 17.6598 132.969 18.5888 132.969 19.9161V27.4243H128.106V11.5546H132.969Z" fill="#6D7D93"/>
<path d="M144.596 9.76284C144.047 10.3127 143.373 10.5876 142.577 10.5876C141.781 10.5876 141.108 10.3127 140.558 9.76284C140.008 9.21299 139.733 8.5399 139.733 7.74357C139.733 6.92828 140.008 6.24571 140.558 5.69586C141.108 5.14602 141.781 4.87109 142.577 4.87109C143.373 4.87109 144.047 5.14602 144.596 5.69586C145.146 6.24571 145.421 6.92828 145.421 7.74357C145.421 8.5399 145.146 9.21299 144.596 9.76284ZM140.16 27.4243V11.5546H145.023V27.4243H140.16Z" fill="#6D7D93"/>
<path d="M158.825 22.4472C159.469 21.7647 159.792 20.7787 159.792 19.4894C159.792 18.2002 159.46 17.2237 158.796 16.5601C158.133 15.8775 157.346 15.5362 156.436 15.5362C155.526 15.5362 154.739 15.8775 154.075 16.5601C153.431 17.2237 153.108 18.2002 153.108 19.4894C153.108 20.7787 153.44 21.7647 154.104 22.4472C154.786 23.1298 155.583 23.4711 156.493 23.4711C157.403 23.4711 158.18 23.1298 158.825 22.4472ZM150.549 25.3766C148.956 23.8787 148.16 21.9069 148.16 19.461C148.16 17.0151 148.956 15.0622 150.549 13.6023C152.141 12.1234 154.113 11.3839 156.464 11.3839C158.815 11.3839 160.778 12.1234 162.351 13.6023C163.944 15.0622 164.74 17.0151 164.74 19.461C164.74 21.9069 163.954 23.8787 162.38 25.3766C160.806 26.8745 158.844 27.6234 156.493 27.6234C154.142 27.6234 152.16 26.8745 150.549 25.3766Z" fill="#6D7D93"/>
</svg>
