<svg width="188" height="40" viewBox="0 0 188 40" fill="none" xmlns="http://www.w3.org/2000/svg">
<path d="M21.9858 6.70351L23.4728 5.21643C26.3931 2.29621 31.1472 2.22393 34.0843 5.12733C35.1971 6.22993 35.9368 7.65344 36.1991 9.19792C36.4614 10.7424 36.2333 12.3303 35.5469 13.7385C35.2176 14.4112 35.1067 15.1699 35.2295 15.9087C35.3524 16.6475 35.7029 17.3294 36.2322 17.8593C37.2055 16.8838 37.9768 15.7261 38.5025 14.4524C39.0281 13.1786 39.2977 11.8138 39.2958 10.4359C39.2937 9.05793 39.0205 7.69387 38.4912 6.42162C37.9619 5.14936 37.1871 3.99385 36.2111 3.0211C32.1042 -1.06266 25.4379 -0.981395 21.3425 3.11384L7.16817 17.2878L6.00291 16.1225C3.03315 13.1528 3.01422 8.29843 6.03637 5.38145C7.15503 4.30505 8.58023 3.60237 10.1153 3.37043C11.6503 3.13849 13.2195 3.38871 14.6062 4.08655C15.2392 4.41091 15.9584 4.52693 16.6613 4.41808C17.3641 4.30922 18.0146 3.98104 18.5198 3.4804L18.5559 3.44445C18.5672 3.43328 18.5761 3.41999 18.5822 3.40535C18.5883 3.39072 18.5914 3.37502 18.5914 3.35917C18.5914 3.34332 18.5883 3.32762 18.5822 3.31299C18.5761 3.29836 18.5672 3.28507 18.5559 3.27389C16.605 1.372 13.9907 0.303712 11.2662 0.295074C8.54164 0.286439 5.92059 1.33813 3.95768 3.22761C-0.270652 7.30947 -0.255542 14.0972 3.90031 18.253L18.0704 32.4232L16.5652 33.9284C13.645 36.8487 8.89062 36.9209 5.95376 34.0175C4.84088 32.915 4.10132 31.4914 3.83895 29.947C3.5766 28.4025 3.80461 26.8147 4.49097 25.4064C4.82026 24.7337 4.93124 23.975 4.80843 23.2363C4.68559 22.4974 4.33508 21.8154 3.80585 21.2855C2.83263 22.2611 2.06115 23.4187 1.53548 24.6924C1.0098 25.9663 0.740245 27.331 0.742198 28.709C0.744151 30.0869 1.01758 31.4511 1.54686 32.7232C2.07614 33.9955 2.85091 35.1511 3.82689 36.1238C7.9336 40.2077 14.6001 40.1266 18.6955 36.0312L32.8882 21.8383L34.0579 23.008C36.9781 25.9282 37.0504 30.6824 34.147 33.6192C33.0444 34.7323 31.6209 35.4717 30.0764 35.7343C28.532 35.9966 26.9441 35.7685 25.5358 35.082C24.863 34.7526 24.1038 34.6415 23.3648 34.7646C22.6257 34.8876 21.9435 35.2384 21.4136 35.7681C22.3892 36.7414 23.5468 37.5129 24.8205 38.0386C26.0944 38.5642 27.4591 38.8338 28.8372 38.8319C30.215 38.8298 31.5792 38.5564 32.8513 38.0271C34.1237 37.4978 35.2792 36.723 36.2519 35.7471C40.3358 31.6404 40.2546 24.9739 36.1593 20.8786L21.9858 6.70351ZM20.1864 30.3062L9.28472 19.4045L19.869 8.82044L30.7707 19.7222L20.1864 30.3062Z" fill="#6D7D93"/>
<path d="M57.3941 32.2149C55.2248 32.2149 53.5664 31.5784 52.4189 30.3055C51.2805 29.0325 50.644 27.2935 50.5095 25.0882L53.9518 24.2277C54.1222 27.67 55.2696 29.3911 57.3941 29.3911C59.1153 29.3911 59.9758 28.5305 59.9758 26.8094C59.9758 26.2984 59.9041 25.8278 59.7607 25.3975C59.6262 24.9583 59.4156 24.5594 59.1287 24.2008C58.8419 23.8332 58.5819 23.5419 58.3488 23.3268C58.1157 23.1027 57.7975 22.8292 57.3941 22.5065L53.0913 19.0642C52.3024 18.4457 51.6704 17.6613 51.1953 16.7111C50.7292 15.7519 50.4961 14.6628 50.4961 13.4436C50.4961 11.6687 51.0474 10.2568 52.15 9.208C53.2526 8.15918 54.7138 7.63477 56.5335 7.63477C58.4878 7.63477 60.0386 8.11436 61.186 9.07354C62.3424 10.0238 63.0551 11.3729 63.324 13.1209C63.3509 13.3092 63.3823 13.5691 63.4181 13.9008L59.9758 14.7614C59.9669 14.609 59.9445 14.3804 59.9086 14.0756C59.7562 12.982 59.4111 12.1079 58.8732 11.4536C58.3443 10.7902 57.5644 10.4585 56.5335 10.4585C55.7088 10.4585 55.0724 10.6916 54.6242 11.1577C54.1759 11.6149 53.9518 12.2559 53.9518 13.0806C53.9518 14.4342 54.5255 15.5682 55.673 16.4825L59.9758 19.9248C62.2707 21.7804 63.4181 23.9991 63.4181 26.5808C63.4181 28.3468 62.8713 29.7273 61.7777 30.7223C60.693 31.7173 59.2318 32.2149 57.3941 32.2149Z" fill="#6D7D93"/>
<path d="M70.612 29.3911C71.5174 29.3911 72.3779 29.158 73.1937 28.6919V18.0423C73.1578 18.0244 73.0682 17.9706 72.9248 17.881C72.7813 17.7913 72.6782 17.733 72.6155 17.7062C72.5617 17.6703 72.4676 17.6165 72.3331 17.5448C72.1987 17.4731 72.0866 17.4238 71.997 17.3969C71.9163 17.361 71.8087 17.3252 71.6742 17.2893C71.5487 17.2445 71.4232 17.2131 71.2977 17.1952C71.1812 17.1773 71.0557 17.1683 70.9212 17.1683C70.6344 17.1683 70.3789 17.2355 70.1548 17.37C69.9397 17.4955 69.7604 17.6479 69.6169 17.8272C69.4735 18.0065 69.348 18.2619 69.2404 18.5936C69.1418 18.9253 69.0701 19.2211 69.0253 19.4811C68.9805 19.7321 68.9446 20.0727 68.9177 20.503C68.8908 20.9243 68.8729 21.2515 68.8639 21.4846C68.8639 21.7177 68.8639 22.0449 68.8639 22.4662C68.8639 22.4841 68.8639 22.4976 68.8639 22.5065C68.8639 22.6589 68.8639 22.9054 68.8639 23.2461C68.8639 23.5867 68.8639 23.9139 68.8639 24.2277C68.8639 24.5414 68.8639 24.8372 68.8639 25.1151C68.8729 25.7157 68.8998 26.2446 68.9446 26.7018C68.9984 27.15 69.0836 27.5938 69.2001 28.033C69.3256 28.4633 69.5049 28.7995 69.738 29.0415C69.98 29.2746 70.2713 29.3911 70.612 29.3911ZM73.1937 37.1363V30.4265C72.6827 30.9554 72.1538 31.3857 71.607 31.7173C71.0692 32.049 70.4506 32.2149 69.7514 32.2149C69.088 32.2149 68.4964 32.049 67.9765 31.7173C67.4655 31.3767 67.0532 30.9419 66.7394 30.413C66.4346 29.8841 66.1791 29.2611 65.973 28.544C65.7757 27.8179 65.6368 27.1052 65.5561 26.406C65.4844 25.7068 65.4485 24.9807 65.4485 24.2277V21.6056C65.4485 20.8257 65.4844 20.1131 65.5561 19.4676C65.6278 18.8222 65.7578 18.1857 65.9461 17.5582C66.1343 16.9307 66.3808 16.4018 66.6856 15.9716C66.9994 15.5323 67.4117 15.1827 67.9227 14.9227C68.4337 14.6538 69.0253 14.5193 69.6976 14.5193C70.0831 14.5193 70.4417 14.5731 70.7733 14.6807C71.114 14.7793 71.4367 14.9407 71.7415 15.1648C72.0552 15.3889 72.2973 15.5861 72.4676 15.7564C72.6469 15.9178 72.8889 16.1598 73.1937 16.4825V14.7614H76.636V37.1363H73.1937Z" fill="#6D7D93"/>
<path d="M81.8532 32.2149C81.1002 32.2149 80.4951 31.9504 80.0379 31.4215C79.5808 30.8837 79.3522 30.2203 79.3522 29.4315V14.7614H82.7945V28.3826C82.7945 28.7412 82.902 29.0325 83.1172 29.2566C83.3413 29.4808 83.6281 29.5928 83.9777 29.5928C84.166 29.5928 84.3498 29.5704 84.529 29.5256C84.7083 29.4808 84.8831 29.4046 85.0535 29.297C85.2327 29.1805 85.3717 29.0908 85.4703 29.0281C85.5689 28.9563 85.7079 28.8398 85.8871 28.6784C86.0754 28.5171 86.1919 28.4185 86.2367 28.3826V14.7614H89.679V31.9728H86.2367V30.1172C85.8961 30.413 85.6451 30.6282 85.4837 30.7626C85.3313 30.8971 85.0938 31.0809 84.7711 31.314C84.4484 31.5381 84.1615 31.7039 83.9105 31.8115C83.6685 31.9101 83.3637 31.9997 82.9962 32.0804C82.6286 32.17 82.2476 32.2149 81.8532 32.2149Z" fill="#6D7D93"/>
<path d="M97.3973 29.3911C97.6393 29.3911 97.8724 29.3194 98.0965 29.176C98.3296 29.0325 98.5044 28.8936 98.6209 28.7591C98.7375 28.6247 98.8809 28.4454 99.0512 28.2213C99.0781 28.1764 99.1005 28.1451 99.1184 28.1271V23.3671C98.975 23.4657 98.7375 23.6181 98.4058 23.8243C98.0741 24.0305 97.8097 24.2008 97.6124 24.3352C97.4152 24.4607 97.1777 24.64 96.8998 24.8731C96.6219 25.0972 96.4067 25.3168 96.2543 25.532C96.102 25.7382 95.9675 25.9936 95.851 26.2984C95.7344 26.6032 95.6761 26.9214 95.6761 27.2531C95.6761 28.6784 96.2499 29.3911 97.3973 29.3911ZM95.6761 32.2149C94.717 32.2149 93.9012 31.8025 93.2289 30.9778C92.5655 30.1441 92.2339 29.2073 92.2339 28.1675C92.2339 27.3338 92.3728 26.5763 92.6507 25.895C92.9376 25.2137 93.2379 24.6714 93.5516 24.268C93.8654 23.8557 94.3898 23.4343 95.1248 23.0041C95.8599 22.5648 96.4157 22.2645 96.7922 22.1031C97.1687 21.9418 97.8231 21.6773 98.7554 21.3098C98.9167 21.247 99.0378 21.1977 99.1184 21.1619V19.9248C99.1184 19.0553 98.9974 18.383 98.7554 17.9078C98.5133 17.4238 98.0606 17.1817 97.3973 17.1817C96.8056 17.1817 96.3798 17.3879 96.1199 17.8003C95.8689 18.2037 95.7255 18.7639 95.6896 19.4811C95.6806 19.5797 95.6761 19.7276 95.6761 19.9248H92.2339C92.2518 18.2754 92.7134 16.9621 93.6188 15.985C94.5242 15.0079 95.7837 14.5193 97.3973 14.5193C99.0019 14.5193 100.261 15.0169 101.176 16.0119C102.099 16.998 102.561 18.3023 102.561 19.9248V27.67C102.561 29.4628 102.709 30.8971 103.004 31.9728H99.5756L99.1184 29.3911C98.9392 29.7497 98.7912 30.0276 98.6747 30.2248C98.5671 30.422 98.4058 30.6685 98.1906 30.9643C97.9755 31.2512 97.7603 31.4753 97.5452 31.6367C97.3301 31.7891 97.0611 31.9235 96.7384 32.0401C96.4157 32.1566 96.0616 32.2149 95.6761 32.2149Z" fill="#6D7D93"/>
<path d="M105.532 31.9728V14.7614H108.975V17.0607C109.324 16.3794 109.831 15.7878 110.494 15.2858C111.166 14.7748 111.91 14.5193 112.726 14.5193C112.753 14.5193 112.937 14.5373 113.278 14.5731V18.3785C112.641 18.1275 112.005 18.002 111.368 18.002C110.651 18.002 110.073 18.2171 109.634 18.6474C109.194 19.0777 108.975 19.6469 108.975 20.3551V31.9728H105.532Z" fill="#6D7D93"/>
<path d="M119.597 32.2149C118.764 32.2149 118.038 32.0714 117.419 31.7846C116.809 31.4977 116.321 31.1257 115.953 30.6685C115.595 30.2024 115.303 29.6107 115.079 28.8936C114.855 28.1675 114.698 27.4459 114.609 26.7287C114.528 26.0026 114.479 25.16 114.461 24.2008C114.434 23.4478 114.434 22.6948 114.461 21.9418C114.488 21.0454 114.546 20.252 114.636 19.5618C114.734 18.8625 114.9 18.1857 115.133 17.5313C115.366 16.877 115.667 16.3391 116.034 15.9178C116.411 15.4965 116.899 15.1603 117.5 14.9093C118.109 14.6493 118.817 14.5193 119.624 14.5193C120.359 14.5193 121.005 14.618 121.561 14.8152C122.125 15.0034 122.591 15.2948 122.959 15.6892C123.335 16.0746 123.645 16.5049 123.887 16.98C124.138 17.4552 124.326 18.0333 124.452 18.7146C124.577 19.387 124.662 20.0503 124.707 20.7047C124.761 21.3591 124.788 22.1121 124.788 22.9637V23.3671H117.903V24.2277C117.903 24.3442 117.903 24.528 117.903 24.779C117.885 25.1107 117.881 25.4558 117.89 25.8144C117.908 26.164 117.926 26.5091 117.943 26.8497C117.961 27.1904 118.011 27.5176 118.091 27.8313C118.172 28.1361 118.271 28.405 118.387 28.6381C118.504 28.8712 118.665 29.055 118.871 29.1894C119.086 29.3239 119.337 29.3911 119.624 29.3911C119.983 29.3911 120.279 29.3239 120.512 29.1894C120.745 29.046 120.915 28.8353 121.023 28.5574C121.139 28.2795 121.22 28.0016 121.265 27.7238C121.31 27.4459 121.336 27.0963 121.345 26.6749V25.9488H124.761V26.6346C124.68 28.4723 124.227 29.8617 123.403 30.803C122.578 31.7442 121.31 32.2149 119.597 32.2149ZM117.903 21.646H121.319V20.6106C121.31 20.1534 121.283 19.7545 121.238 19.4139C121.193 19.0732 121.112 18.7326 120.996 18.3919C120.888 18.0513 120.718 17.7913 120.485 17.612C120.252 17.4327 119.965 17.3431 119.624 17.3431C119.275 17.3431 118.979 17.4372 118.737 17.6255C118.504 17.8137 118.329 18.0871 118.212 18.4457C118.105 18.7953 118.029 19.1404 117.984 19.4811C117.939 19.8217 117.912 20.2296 117.903 20.7047V21.646Z" fill="#6D7D93"/>
<path d="M133.716 32.2149C131.547 32.2149 129.888 31.5784 128.741 30.3055C127.602 29.0325 126.966 27.2935 126.832 25.0882L130.274 24.2277C130.444 27.67 131.592 29.3911 133.716 29.3911C135.437 29.3911 136.298 28.5305 136.298 26.8094C136.298 26.2984 136.226 25.8278 136.083 25.3975C135.948 24.9583 135.738 24.5594 135.451 24.2008C135.164 23.8332 134.904 23.5419 134.671 23.3268C134.438 23.1027 134.12 22.8292 133.716 22.5065L129.413 19.0642C128.624 18.4457 127.992 17.6613 127.517 16.7111C127.051 15.7519 126.818 14.6628 126.818 13.4436C126.818 11.6687 127.369 10.2568 128.472 9.208C129.575 8.15918 131.036 7.63477 132.856 7.63477C134.81 7.63477 136.361 8.11436 137.508 9.07354C138.664 10.0238 139.377 11.3729 139.646 13.1209C139.673 13.3092 139.704 13.5691 139.74 13.9008L136.298 14.7614C136.289 14.609 136.266 14.3804 136.231 14.0756C136.078 12.982 135.733 12.1079 135.195 11.4536C134.666 10.7902 133.886 10.4585 132.856 10.4585C132.031 10.4585 131.394 10.6916 130.946 11.1577C130.498 11.6149 130.274 12.2559 130.274 13.0806C130.274 14.4342 130.848 15.5682 131.995 16.4825L136.298 19.9248C138.593 21.7804 139.74 23.9991 139.74 26.5808C139.74 28.3468 139.193 29.7273 138.1 30.7223C137.015 31.7173 135.554 32.2149 133.716 32.2149Z" fill="#6D7D93"/>
<path d="M146.88 32.2149C145.527 32.2149 144.541 31.8697 143.922 31.1795C143.312 30.4892 142.999 29.4449 142.981 28.0465V17.3431H141.26V14.7614H142.981V8.73737H146.423V14.7614H149.005V17.3431H146.423V27.3876C146.423 28.0778 146.517 28.5843 146.705 28.907C146.894 29.2298 147.275 29.3911 147.848 29.3911C148.099 29.3911 148.485 29.3463 149.005 29.2566V32.0535C148.144 32.1611 147.436 32.2149 146.88 32.2149Z" fill="#6D7D93"/>
<path d="M160.219 30.6013C159.421 31.677 158.099 32.2149 156.252 32.2149C154.406 32.2149 153.084 31.677 152.286 30.6013C151.488 29.5256 151.089 27.9748 151.089 25.9488V20.7854C151.089 18.7595 151.488 17.2086 152.286 16.1329C153.084 15.0572 154.406 14.5193 156.252 14.5193C158.099 14.5193 159.421 15.0572 160.219 16.1329C161.017 17.2086 161.416 18.7595 161.416 20.7854V25.9488C161.416 27.9748 161.017 29.5256 160.219 30.6013ZM155.607 29.2835C155.795 29.3553 156.01 29.3911 156.252 29.3911C156.494 29.3911 156.705 29.3553 156.884 29.2835C157.073 29.2118 157.225 29.1267 157.342 29.0281C157.467 28.9205 157.57 28.7681 157.651 28.5709C157.731 28.3647 157.794 28.1854 157.839 28.033C157.884 27.8806 157.915 27.661 157.933 27.3741C157.951 27.0873 157.96 26.8632 157.96 26.7018C157.969 26.5315 157.974 26.2805 157.974 25.9488V20.7854C157.974 20.4537 157.969 20.2072 157.96 20.0458C157.96 19.8755 157.951 19.6469 157.933 19.3601C157.915 19.0732 157.884 18.8536 157.839 18.7012C157.794 18.5488 157.731 18.374 157.651 18.1768C157.57 17.9706 157.467 17.8182 157.342 17.7196C157.225 17.612 157.073 17.5224 156.884 17.4507C156.705 17.379 156.494 17.3431 156.252 17.3431C156.01 17.3431 155.795 17.379 155.607 17.4507C155.428 17.5224 155.275 17.612 155.15 17.7196C155.033 17.8182 154.935 17.9706 154.854 18.1768C154.773 18.374 154.711 18.5488 154.666 18.7012C154.621 18.8536 154.59 19.0732 154.572 19.3601C154.554 19.6469 154.54 19.8755 154.531 20.0458C154.531 20.2072 154.531 20.4537 154.531 20.7854V25.9488C154.531 26.2805 154.531 26.5315 154.531 26.7018C154.54 26.8632 154.554 27.0873 154.572 27.3741C154.59 27.661 154.621 27.8806 154.666 28.033C154.711 28.1854 154.773 28.3647 154.854 28.5709C154.935 28.7681 155.033 28.9205 155.15 29.0281C155.275 29.1267 155.428 29.2118 155.607 29.2835Z" fill="#6D7D93"/>
<path d="M164.24 31.9728V14.7614H167.682V16.617C168.193 16.1508 168.61 15.7968 168.932 15.5547C169.255 15.3037 169.699 15.0706 170.264 14.8555C170.837 14.6314 171.447 14.5193 172.092 14.5193C172.827 14.5193 173.423 14.7883 173.881 15.3261C174.338 15.864 174.566 16.5229 174.566 17.3028V31.9728H171.124V19.0642C171.124 18.4636 171.039 18.0289 170.869 17.7599C170.698 17.482 170.353 17.3431 169.833 17.3431C169.537 17.3431 169.242 17.4058 168.946 17.5313C168.659 17.6479 168.444 17.7599 168.3 17.8675C168.157 17.9661 167.951 18.1275 167.682 18.3516V31.9728H164.24Z" fill="#6D7D93"/>
<path d="M182.446 32.2149C181.612 32.2149 180.886 32.0714 180.268 31.7846C179.658 31.4977 179.17 31.1257 178.802 30.6685C178.443 30.2024 178.152 29.6107 177.928 28.8936C177.704 28.1675 177.547 27.4459 177.457 26.7287C177.377 26.0026 177.327 25.16 177.31 24.2008C177.283 23.4478 177.283 22.6948 177.31 21.9418C177.336 21.0454 177.395 20.252 177.484 19.5618C177.583 18.8625 177.749 18.1857 177.982 17.5313C178.215 16.877 178.515 16.3391 178.883 15.9178C179.259 15.4965 179.748 15.1603 180.348 14.9093C180.958 14.6493 181.666 14.5193 182.473 14.5193C183.208 14.5193 183.853 14.618 184.409 14.8152C184.974 15.0034 185.44 15.2948 185.808 15.6892C186.184 16.0746 186.493 16.5049 186.735 16.98C186.986 17.4552 187.175 18.0333 187.3 18.7146C187.426 19.387 187.511 20.0503 187.556 20.7047C187.609 21.3591 187.636 22.1121 187.636 22.9637V23.3671H180.752V24.2277C180.752 24.3442 180.752 24.528 180.752 24.779C180.734 25.1107 180.729 25.4558 180.738 25.8144C180.756 26.164 180.774 26.5091 180.792 26.8497C180.81 27.1904 180.859 27.5176 180.94 27.8313C181.021 28.1361 181.119 28.405 181.236 28.6381C181.352 28.8712 181.514 29.055 181.72 29.1894C181.935 29.3239 182.186 29.3911 182.473 29.3911C182.832 29.3911 183.127 29.3239 183.36 29.1894C183.593 29.046 183.764 28.8353 183.871 28.5574C183.988 28.2795 184.069 28.0016 184.113 27.7238C184.158 27.4459 184.185 27.0963 184.194 26.6749V25.9488H187.609V26.6346C187.529 28.4723 187.076 29.8617 186.251 30.803C185.427 31.7442 184.158 32.2149 182.446 32.2149ZM180.752 21.646H184.167V20.6106C184.158 20.1534 184.131 19.7545 184.087 19.4139C184.042 19.0732 183.961 18.7326 183.844 18.3919C183.737 18.0513 183.567 17.7913 183.334 17.612C183.1 17.4327 182.814 17.3431 182.473 17.3431C182.123 17.3431 181.828 17.4372 181.585 17.6255C181.352 17.8137 181.178 18.0871 181.061 18.4457C180.954 18.7953 180.877 19.1404 180.832 19.4811C180.788 19.8217 180.761 20.2296 180.752 20.7047V21.646Z" fill="#6D7D93"/>
</svg>
