<svg width="177" height="30" viewBox="0 0 177 30" fill="none" xmlns="http://www.w3.org/2000/svg">
<path d="M170.798 23.9598C170.234 23.3303 169.755 22.6279 169.375 21.8712C168.774 20.6851 167.944 19.6321 166.932 18.7743C165.921 17.9165 164.75 17.2712 163.488 16.8764C162.384 16.5326 161.228 16.3866 160.074 16.4452C160.914 16.3969 161.741 16.67 162.39 17.2101C163.038 17.75 163.46 18.5169 163.571 19.357C163.875 21.1722 164.673 22.8666 165.878 24.251C167.082 25.6353 168.645 26.6551 170.392 27.1964C172.389 27.8147 174.53 27.7814 176.507 27.1012C174.305 26.7393 172.29 25.6312 170.798 23.9598Z" fill="#6D7D93"/>
<path d="M156.64 16.2659C156.897 17.3866 157.349 18.4542 157.975 19.4208C157.518 18.719 157.342 17.8724 157.482 17.0481C157.622 16.2237 158.068 15.4814 158.733 14.9675C160.144 13.809 161.203 12.2845 161.793 10.5637C162.382 8.84288 162.479 6.9934 162.072 5.22123C161.608 3.1939 160.507 1.36553 158.927 0C159.714 2.08634 159.759 4.37666 159.055 6.492C158.786 7.2906 158.412 8.05042 157.942 8.75177C157.221 9.85353 156.73 11.0877 156.497 12.3812C156.265 13.6746 156.296 15.0012 156.589 16.2825L156.64 16.2659Z" fill="#6D7D93"/>
<path d="M161.56 20.168C161.186 20.9219 160.546 21.5047 159.768 21.7993C158.989 22.094 158.13 22.0787 157.362 21.7566C155.67 21.1124 153.834 20.9588 152.061 21.3132C150.288 21.6676 148.647 22.5159 147.321 23.7634C145.809 25.1922 144.783 27.0719 144.391 29.1314C145.797 27.3966 147.745 26.201 149.911 25.7422C150.724 25.5731 151.556 25.5075 152.385 25.5471C153.687 25.6156 154.988 25.4186 156.213 24.9677C157.438 24.5167 158.562 23.8211 159.518 22.9217C160.355 22.1322 161.05 21.2003 161.571 20.168H161.56Z" fill="#6D7D93"/>
<path d="M0.636719 28.9997H5.35272V17.5157C5.35272 16.2437 5.70072 15.2237 6.39672 14.4557C7.09272 13.6877 8.00472 13.3037 9.13272 13.3037C10.2847 13.3037 11.1967 13.6877 11.8687 14.4557C12.5647 15.1997 12.9127 16.2197 12.9127 17.5157V28.9997H17.6287V17.5157C17.6287 16.2437 17.9767 15.2237 18.6727 14.4557C19.3687 13.6877 20.2807 13.3037 21.4087 13.3037C22.5607 13.3037 23.4727 13.6877 24.1447 14.4557C24.8407 15.1997 25.1887 16.2197 25.1887 17.5157V28.9997H29.9047V16.3997C29.9047 14.9357 29.5807 13.6517 28.9327 12.5477C28.3087 11.4197 27.4567 10.5437 26.3767 9.91969C25.2967 9.29569 24.0607 8.98369 22.6687 8.98369C21.3727 8.98369 20.1967 9.24769 19.1407 9.77569C18.1087 10.3037 17.2567 11.0957 16.5847 12.1517C16.0087 11.1917 15.1807 10.4237 14.1007 9.84769C13.0447 9.27169 11.8567 8.98369 10.5367 8.98369C9.31272 8.98369 8.22072 9.22369 7.26072 9.70369C6.30072 10.1837 5.56872 10.9037 5.06472 11.8637V9.41569H0.636719V28.9997Z" fill="#6D7D93"/>
<path d="M39.8345 29.4317C42.3785 29.4317 44.4185 28.5917 45.9545 26.9117V28.9997H50.4185V15.9677C50.4185 14.5997 50.0705 13.3877 49.3745 12.3317C48.6785 11.2757 47.7185 10.4597 46.4945 9.88369C45.2945 9.28369 43.8905 8.98369 42.2825 8.98369C40.3145 8.98369 38.5625 9.45169 37.0265 10.3877C35.4905 11.3237 34.4345 12.5597 33.8585 14.0957L37.7105 15.9677C38.0705 15.0797 38.6345 14.3717 39.4025 13.8437C40.1705 13.2917 41.0705 13.0157 42.1025 13.0157C43.1825 13.0157 44.0465 13.3037 44.6945 13.8797C45.3665 14.4317 45.7025 15.1277 45.7025 15.9677V16.6157L39.8705 17.5517C37.5665 17.9357 35.8625 18.6677 34.7585 19.7477C33.6545 20.8277 33.1025 22.1837 33.1025 23.8157C33.1025 25.5437 33.7145 26.9117 34.9385 27.9197C36.1625 28.9277 37.7945 29.4317 39.8345 29.4317ZM37.9985 23.6357C37.9985 22.2677 38.9225 21.4037 40.7705 21.0437L45.7025 20.2157V21.0077C45.7025 22.3517 45.2345 23.4917 44.2985 24.4277C43.3865 25.3637 42.1865 25.8317 40.6985 25.8317C39.9065 25.8317 39.2585 25.6397 38.7545 25.2557C38.2505 24.8477 37.9985 24.3077 37.9985 23.6357Z" fill="#6D7D93"/>
<path d="M54.7773 28.9997H59.4933V18.0917C59.4933 16.6037 59.9013 15.4517 60.7173 14.6357C61.5573 13.7957 62.6373 13.3757 63.9573 13.3757H65.6493V9.19969H64.4973C63.2973 9.19969 62.2413 9.41569 61.3293 9.84769C60.4173 10.2797 59.7093 11.0597 59.2053 12.1877V9.41569H54.7773V28.9997Z" fill="#6D7D93"/>
<path d="M77.6975 29.2157C78.4895 29.2157 79.2695 29.1557 80.0375 29.0357V24.9677C79.5815 25.0397 79.1615 25.0757 78.7775 25.0757C77.6255 25.0757 76.7855 24.8117 76.2575 24.2837C75.7295 23.7557 75.4655 22.9997 75.4655 22.0157V13.6277H79.9655V9.41569H75.4655V4.95169H70.7495V6.46369C70.7495 7.42369 70.4855 8.15569 69.9575 8.65969C69.4295 9.16369 68.6855 9.41569 67.7255 9.41569H67.3655V13.6277H70.7495V22.2677C70.7495 24.4517 71.3495 26.1557 72.5495 27.3797C73.7735 28.6037 75.4895 29.2157 77.6975 29.2157Z" fill="#6D7D93"/>
<path d="M83.6406 7.21969H88.3566V2.17969H83.6406V7.21969ZM83.6406 28.9997H88.3566V9.41569H83.6406V28.9997Z" fill="#6D7D93"/>
<path d="M92.7109 28.9997H97.4269V17.5157C97.4269 16.2437 97.7869 15.2237 98.5069 14.4557C99.2509 13.6877 100.211 13.3037 101.387 13.3037C102.563 13.3037 103.511 13.6877 104.231 14.4557C104.975 15.1997 105.347 16.2197 105.347 17.5157V28.9997H110.063V16.3997C110.063 14.9357 109.751 13.6517 109.127 12.5477C108.503 11.4197 107.627 10.5437 106.499 9.91969C105.395 9.29569 104.123 8.98369 102.683 8.98369C101.459 8.98369 100.355 9.22369 99.3709 9.70369C98.4109 10.1837 97.6669 10.8917 97.1389 11.8277V9.41569H92.7109V28.9997Z" fill="#6D7D93"/>
<path d="M123.627 29.4317C125.523 29.4317 127.251 28.9997 128.811 28.1357C130.371 27.2477 131.619 26.0357 132.555 24.4997C133.491 22.9397 133.959 21.1757 133.959 19.2077C133.959 17.2397 133.491 15.4877 132.555 13.9517C131.643 12.4157 130.407 11.2037 128.847 10.3157C127.287 9.42769 125.547 8.98369 123.627 8.98369C121.683 8.98369 119.931 9.42769 118.371 10.3157C116.811 11.2037 115.563 12.4157 114.627 13.9517C113.715 15.4877 113.259 17.2397 113.259 19.2077C113.259 21.1757 113.715 22.9277 114.627 24.4637C115.563 25.9997 116.811 27.2117 118.371 28.0997C119.955 28.9877 121.707 29.4317 123.627 29.4317ZM123.627 25.1117C122.571 25.1117 121.623 24.8597 120.783 24.3557C119.967 23.8517 119.319 23.1557 118.839 22.2677C118.383 21.3557 118.155 20.3357 118.155 19.2077C118.155 18.0797 118.383 17.0717 118.839 16.1837C119.319 15.2957 119.967 14.5997 120.783 14.0957C121.623 13.5677 122.571 13.3037 123.627 13.3037C124.683 13.3037 125.607 13.5677 126.399 14.0957C127.215 14.5997 127.851 15.2957 128.307 16.1837C128.787 17.0717 129.027 18.0797 129.027 19.2077C129.027 20.3357 128.787 21.3557 128.307 22.2677C127.851 23.1557 127.215 23.8517 126.399 24.3557C125.607 24.8597 124.683 25.1117 123.627 25.1117Z" fill="#6D7D93"/>
</svg>
