<svg width="188" height="38" viewBox="0 0 188 38" fill="none" xmlns="http://www.w3.org/2000/svg">
<path d="M6.11509 8.51983L8.28597 9.60527C8.68558 9.7798 9.1204 9.85845 9.55577 9.83489C9.99114 9.81134 10.415 9.68624 10.7933 9.46959L12.8449 8.1345C13.1979 7.87828 13.4852 7.54206 13.6833 7.15342C13.8814 6.76478 13.9846 6.33473 13.9845 5.89849L13.8543 3.45083C13.8068 3.01812 13.6583 2.60256 13.4208 2.23774C13.1831 1.87292 12.8632 1.569 12.4866 1.3505L10.3157 0.237927C9.91695 0.061326 9.48213 -0.0188877 9.04654 0.00374373C8.61095 0.0263751 8.18676 0.1512 7.80838 0.36818L5.75695 1.70327C5.40456 1.96014 5.11768 2.29646 4.9197 2.68499C4.72166 3.07347 4.618 3.50325 4.61719 3.93927L4.74744 6.38694C4.78961 6.82557 4.93565 7.2478 5.17347 7.6187C5.41129 7.98965 5.7341 8.29856 6.11509 8.51983Z" fill="#6D7D93"/>
<path d="M19.2099 11.6889L17.0391 10.5764C16.6404 10.4019 16.2065 10.3233 15.772 10.3469C15.3375 10.3704 14.9146 10.4955 14.5371 10.7121L12.4639 12.0471C12.1128 12.3052 11.8269 12.6418 11.629 13.0301C11.4311 13.4183 11.3267 13.8474 11.3242 14.2831L11.4545 16.7308C11.502 17.1636 11.6505 17.5791 11.8881 17.944C12.1257 18.3088 12.4456 18.6127 12.8221 18.8311L14.993 19.9166C15.3909 20.0931 15.8248 20.1734 16.2596 20.1508C16.6943 20.1281 17.1175 20.0033 17.4949 19.7863L19.5518 18.4512C19.9031 18.192 20.189 17.8545 20.3868 17.4653C20.5847 17.0763 20.6891 16.6463 20.6916 16.2098L20.5613 13.7676C20.5115 13.3404 20.3637 12.9305 20.1292 12.5699C19.8948 12.2093 19.5802 11.9078 19.2099 11.6889Z" fill="#6D7D93"/>
<path d="M25.9085 22.0119L23.7376 20.9265C23.3388 20.7498 22.904 20.6696 22.4684 20.6922C22.0328 20.7149 21.6086 20.8397 21.2303 21.0567L19.1788 22.3918C18.827 22.6492 18.5406 22.9857 18.3427 23.3741C18.1447 23.7624 18.0407 24.1919 18.0391 24.6278L18.1694 27.0755C18.2213 27.5012 18.3708 27.9093 18.6061 28.2679C18.8414 28.6265 19.1563 28.926 19.5262 29.1432L21.697 30.2287C22.0966 30.4032 22.5314 30.4818 22.9668 30.4582C23.4022 30.4347 23.826 30.3096 24.2044 30.093L26.2613 28.7579C26.6127 28.5004 26.8985 28.1638 27.0955 27.7754C27.2926 27.3869 27.3954 26.9575 27.3956 26.5219L27.2816 24.1176C27.2347 23.6833 27.086 23.2662 26.8473 22.9002C26.6088 22.5343 26.287 22.2299 25.9085 22.0119Z" fill="#6D7D93"/>
<path d="M9.91314 15.9331L9.81003 14.0282C9.81252 13.5924 9.91689 13.1633 10.1148 12.7751C10.3127 12.3868 10.5986 12.0502 10.9497 11.7922L14.9496 9.19254C15.327 8.976 15.7499 8.8509 16.1844 8.82734C16.6189 8.80379 17.0529 8.88243 17.4515 9.05686L19.1557 9.92521C19.5545 10.1018 19.9893 10.1821 20.4249 10.1594C20.8605 10.1368 21.2846 10.0119 21.663 9.79496L23.7145 8.45444C24.0666 8.1973 24.3532 7.86092 24.5512 7.47244C24.7491 7.08402 24.853 6.65446 24.8542 6.21844L24.724 3.7762C24.6773 3.34251 24.5291 2.92587 24.2915 2.56007C24.0539 2.19423 23.7335 1.88949 23.3563 1.67045L21.1854 0.557871C20.7859 0.383386 20.351 0.304746 19.9156 0.3283C19.4803 0.351854 19.0564 0.476951 18.6781 0.693551L16.5832 2.00693C16.2318 2.2644 15.946 2.60099 15.7489 2.98947C15.5518 3.37795 15.449 3.80735 15.4489 4.24294L15.5466 6.14788C15.5464 6.58352 15.4436 7.01292 15.2465 7.4014C15.0494 7.78988 14.7636 8.12647 14.4123 8.38389L10.4124 10.9835C10.0341 11.2005 9.60993 11.3254 9.17434 11.348C8.7387 11.3706 8.30392 11.2904 7.90508 11.1138L6.20637 10.2508C5.80752 10.0742 5.37275 9.99403 4.93711 10.0167C4.50152 10.0393 4.07739 10.1641 3.699 10.3811L1.64752 11.7162C1.29513 11.9731 1.00831 12.3094 0.81027 12.6979C0.612232 13.0864 0.508627 13.5162 0.507812 13.9522L0.638064 16.3999C0.684304 16.8337 0.832303 17.2505 1.06991 17.6164C1.30756 17.9823 1.62815 18.2869 2.00572 18.5056L4.1766 19.591C4.57615 19.7656 5.01097 19.8442 5.44634 19.8207C5.88171 19.7971 6.30558 19.672 6.68396 19.4554L8.73544 18.1203C9.08799 17.8721 9.37786 17.5453 9.5823 17.1656C9.78669 16.7861 9.89995 16.3641 9.91314 15.9331Z" fill="#6D7D93"/>
<path d="M31.3976 14.0991C31.3492 13.6658 31.2004 13.2499 30.963 12.8843C30.7255 12.5187 30.406 12.2136 30.0299 11.9933L27.859 10.9079C27.4594 10.7338 27.0245 10.6553 26.5893 10.6789C26.154 10.7024 25.7302 10.8273 25.3517 11.0435L23.3001 12.3786C22.9484 12.6361 22.6621 12.9725 22.4641 13.3609C22.2661 13.7493 22.1621 14.1787 22.1605 14.6146L22.2636 16.525C22.2619 16.9609 22.1579 17.3903 21.9599 17.7787C21.762 18.1671 21.4756 18.5036 21.1238 18.761L17.1294 21.3552C16.751 21.5718 16.3272 21.6969 15.8918 21.7205C15.4565 21.744 15.0217 21.6654 14.622 21.4909L12.9179 20.6225C12.5193 20.4481 12.0853 20.3694 11.6508 20.393C11.2163 20.4166 10.7934 20.5416 10.416 20.7582L8.34278 22.0879C7.9917 22.346 7.70579 22.6825 7.50786 23.0708C7.30999 23.459 7.20562 23.8881 7.20312 24.3239L7.33332 26.7715C7.38086 27.2043 7.52935 27.6198 7.7669 27.9846C8.0045 28.3495 8.32444 28.6534 8.70103 28.8719L10.8719 29.9845C11.2698 30.161 11.7037 30.2412 12.1384 30.2186C12.5732 30.196 12.9964 30.0711 13.3738 29.8542L15.4307 28.5191C15.7815 28.2607 16.0673 27.9241 16.2651 27.5359C16.463 27.1477 16.5675 26.7188 16.5705 26.2831L16.4673 24.3727C16.4685 23.9367 16.5724 23.5072 16.7703 23.1187C16.9683 22.7303 17.2549 22.3939 17.607 22.1367L21.6014 19.5371C21.9798 19.3201 22.404 19.1952 22.8396 19.1726C23.2752 19.15 23.7099 19.2302 24.1088 19.4068L25.8075 20.2698C26.2063 20.4464 26.6412 20.5266 27.0768 20.504C27.5123 20.4813 27.9365 20.3565 28.3149 20.1395L30.3718 18.8044C30.7229 18.5466 31.0084 18.21 31.2054 17.8216C31.4025 17.4332 31.5055 17.0039 31.5061 16.5684L31.3976 14.0991Z" fill="#6D7D93"/>
<path d="M38.6875 4.31506H46.8235L50.6395 19.7591L54.4555 4.31506H62.9515L55.2115 29.0831H46.0315L38.6875 4.31506Z" fill="#6D7D93"/>
<path d="M70.939 29.3711C68.923 29.3711 67.351 28.7231 66.223 27.4271C65.095 26.1311 64.531 24.3671 64.531 22.1351V11.0471H72.163V21.8111C72.163 22.3631 72.307 22.7951 72.595 23.1071C72.907 23.3951 73.303 23.5391 73.783 23.5391C74.263 23.5391 74.755 23.3951 75.259 23.1071L75.655 28.1111C75.127 28.5191 74.431 28.8311 73.567 29.0471C72.727 29.2631 71.851 29.3711 70.939 29.3711ZM68.347 8.34706C67.219 8.34706 66.259 7.99906 65.467 7.30306C64.699 6.58306 64.315 5.70706 64.315 4.67506C64.315 3.64306 64.723 2.77906 65.539 2.08306C66.355 1.38706 67.291 1.03906 68.347 1.03906C69.451 1.03906 70.399 1.39906 71.191 2.11906C72.007 2.83906 72.415 3.69106 72.415 4.67506C72.415 5.73106 72.007 6.60706 71.191 7.30306C70.375 7.99906 69.427 8.34706 68.347 8.34706Z" fill="#6D7D93"/>
<path d="M77.7514 11.2991H85.3474V14.9711C85.8994 13.5551 86.6434 12.5111 87.5794 11.8391C88.5394 11.1431 89.6554 10.7951 90.9274 10.7951L91.9714 16.6631C89.6914 16.6631 88.0114 16.9151 86.9314 17.4191C85.8754 17.8991 85.3474 18.6671 85.3474 19.7231V29.0831H77.7514V11.2991Z" fill="#6D7D93"/>
<path d="M103.286 29.3711C101.27 29.3711 99.4698 28.9751 97.8858 28.1831C96.3258 27.3911 95.1018 26.2991 94.2138 24.9071C93.3498 23.4911 92.9178 21.8711 92.9178 20.0471C92.9178 18.2231 93.3618 16.6151 94.2498 15.2231C95.1378 13.8071 96.3618 12.7151 97.9218 11.9471C99.5058 11.1791 101.306 10.7951 103.322 10.7951C105.362 10.7951 107.162 11.1911 108.722 11.9831C110.306 12.7511 111.53 13.8311 112.394 15.2231C113.258 16.6151 113.69 18.2231 113.69 20.0471C113.69 21.8951 113.246 23.5271 112.358 24.9431C111.494 26.3351 110.27 27.4271 108.686 28.2191C107.126 28.9871 105.326 29.3711 103.286 29.3711ZM103.358 23.9711C104.342 23.9711 105.146 23.6111 105.77 22.8911C106.418 22.1471 106.742 21.1991 106.742 20.0471C106.742 18.8951 106.418 17.9591 105.77 17.2391C105.146 16.4951 104.342 16.1231 103.358 16.1231C102.374 16.1231 101.558 16.4951 100.91 17.2391C100.286 17.9591 99.9738 18.8951 99.9738 20.0471C99.9738 21.1991 100.286 22.1471 100.91 22.8911C101.558 23.6111 102.374 23.9711 103.358 23.9711Z" fill="#6D7D93"/>
<path d="M126.576 37.3271C125.256 37.3271 123.996 37.1951 122.796 36.9311L123.372 31.6031C124.308 31.7471 125.172 31.8191 125.964 31.8191C127.452 31.8191 128.58 31.3751 129.348 30.4871C130.116 29.6231 130.572 28.1591 130.716 26.0951C129.3 28.0871 127.14 29.0831 124.236 29.0831C122.652 29.0831 121.188 28.6751 119.844 27.8591C118.524 27.0431 117.468 25.9391 116.676 24.5471C115.908 23.1551 115.524 21.6311 115.524 19.9751C115.524 18.2951 115.908 16.7591 116.676 15.3671C117.444 13.9511 118.488 12.8351 119.808 12.0191C121.152 11.2031 122.616 10.7951 124.2 10.7951C125.664 10.7951 126.936 11.1791 128.016 11.9471C129.12 12.6911 129.84 13.6991 130.176 14.9711V10.7951H137.772V24.5111C137.772 28.7111 136.812 31.8911 134.892 34.0511C132.996 36.2351 130.224 37.3271 126.576 37.3271ZM126.576 23.6831C127.536 23.6831 128.364 23.3471 129.06 22.6751C129.756 21.9791 130.128 21.1631 130.176 20.2271V19.9391C130.128 19.0271 129.744 18.2231 129.024 17.5271C128.328 16.8311 127.512 16.4831 126.576 16.4831C125.592 16.4831 124.752 16.8431 124.056 17.5631C123.36 18.2591 123.012 19.0991 123.012 20.0831C123.012 21.0671 123.36 21.9191 124.056 22.6391C124.752 23.3351 125.592 23.6831 126.576 23.6831Z" fill="#6D7D93"/>
<path d="M149.375 29.3711C147.815 29.3711 146.351 28.9631 144.983 28.1471C143.639 27.3071 142.559 26.1791 141.743 24.7631C140.927 23.3231 140.519 21.7271 140.519 19.9751C140.519 18.2471 140.927 16.6871 141.743 15.2951C142.559 13.8791 143.651 12.7751 145.019 11.9831C146.387 11.1911 147.839 10.7951 149.375 10.7951C150.623 10.7951 151.775 11.1431 152.831 11.8391C153.911 12.5351 154.727 13.5791 155.279 14.9711V10.7951H162.839V29.0831H155.279V25.7351C154.079 28.1591 152.111 29.3711 149.375 29.3711ZM151.715 23.6831C152.675 23.6831 153.491 23.3471 154.163 22.6751C154.859 21.9791 155.231 21.1631 155.279 20.2271V19.9391C155.231 18.9791 154.847 18.1631 154.127 17.4911C153.431 16.8191 152.627 16.4831 151.715 16.4831C150.707 16.4831 149.843 16.8431 149.123 17.5631C148.427 18.2591 148.079 19.0991 148.079 20.0831C148.079 21.0911 148.439 21.9431 149.159 22.6391C149.879 23.3351 150.731 23.6831 151.715 23.6831Z" fill="#6D7D93"/>
<path d="M166.486 11.2991H173.722V14.9711C175.114 12.1871 177.322 10.7951 180.346 10.7951C182.65 10.7951 184.45 11.6231 185.746 13.2791C187.066 14.9111 187.726 17.1791 187.726 20.0831V29.0831H180.166V19.3271C180.166 18.2951 179.938 17.5031 179.482 16.9511C179.05 16.3991 178.438 16.1231 177.646 16.1231C177.07 16.1231 176.506 16.3151 175.954 16.6991C175.402 17.0591 174.946 17.5871 174.586 18.2831C174.25 18.9791 174.082 19.7711 174.082 20.6591V29.0831H166.486V11.2991Z" fill="#6D7D93"/>
</svg>
