<svg width="181" height="36" viewBox="0 0 181 36" fill="none" xmlns="http://www.w3.org/2000/svg">
<path d="M7.63339 11.9599L12.066 9.40349L9.59181 5.12032H32.8613L21.2303 25.2728L18.7561 20.9821L14.3235 23.546L21.2303 35.5061L41.7266 0H0.726562L7.63339 11.9599Z" fill="#6D7D93"/>
<path d="M60.1161 29L68.9661 8H64.7361L58.4961 23.24L52.2261 8H47.9961L56.8461 29H60.1161Z" fill="#6D7D93"/>
<path d="M73.97 8V29H89.6V25.28H77.99V20.24H87.8V16.52H77.99V11.72H89.45V8H73.97Z" fill="#6D7D93"/>
<path d="M95.3684 8V29H99.3884V21.59H104.278L108.688 29H113.158L108.358 20.9C110.788 19.82 112.348 17.51 112.348 14.78C112.348 12.86 111.658 11.24 110.248 9.95C108.868 8.66 107.158 8 105.088 8H95.3684ZM105.088 11.72C106.858 11.72 108.148 13.01 108.148 14.78C108.148 16.55 106.858 17.87 105.088 17.87H99.3884V11.72H105.088Z" fill="#6D7D93"/>
<path d="M123.908 11.72V29H127.958V11.72H134.918V8H116.948V11.72H123.908Z" fill="#6D7D93"/>
<path d="M140.392 8V29H156.022V25.28H144.412V20.24H154.222V16.52H144.412V11.72H155.872V8H140.392Z" fill="#6D7D93"/>
<path d="M168.12 18.29L160.32 29H165.15L170.52 21.59L175.89 29H180.69L172.92 18.29L180.39 8H175.59L170.52 14.99L165.45 8H160.62L168.12 18.29Z" fill="#6D7D93"/>
</svg>
