<svg width="216" height="69" viewBox="0 0 216 69" fill="none" xmlns="http://www.w3.org/2000/svg">
<g clip-path="url(#clip0_19_4953)">
<path d="M38.758 18.5H56.742C60.6125 18.5 63.75 21.6375 63.75 25.508V43.492C63.75 47.3625 60.6125 50.5 56.742 50.5H38.758C34.8875 50.5 31.75 47.3625 31.75 43.492V25.508C31.75 21.6375 34.8875 18.5 38.758 18.5Z" fill="url(#paint0_linear_19_4953)"/>
<path d="M42.0053 41.7263L42.0083 41.7273L40.9142 43.6223C40.5148 44.3141 39.6303 44.5511 38.9386 44.1517C38.2469 43.7523 38.0098 42.8678 38.4092 42.1761L39.2152 40.7801L39.2926 40.6461C39.4307 40.4476 39.7716 40.1048 40.4534 40.1693C40.4534 40.1693 42.0581 40.3434 42.1742 41.1774C42.1742 41.1774 42.1899 41.4518 42.0053 41.7263ZM57.5232 36.8863H54.1114C53.8791 36.8707 53.7777 36.7877 53.7377 36.7394L53.7352 36.7351L50.0831 30.4093L50.0783 30.4124L49.8593 30.0984C49.5003 29.5494 48.9303 30.9534 48.9303 30.9534C48.2497 32.5179 49.0269 34.2966 49.2978 34.8342L54.3706 43.6204C54.7698 44.3121 55.6543 44.5492 56.3462 44.1497C57.0378 43.7503 57.2749 42.8658 56.8754 42.1741L55.6071 39.9771C55.5824 39.9238 55.5397 39.7793 55.7998 39.7787H57.5232C58.3219 39.7787 58.9694 39.1312 58.9694 38.3324C58.9694 37.5337 58.3219 36.8862 57.5232 36.8862V36.8863ZM50.8964 38.8523C50.8964 38.8523 51.0786 39.7787 50.3739 39.7787H37.7616C36.9628 39.7787 36.3153 39.1312 36.3153 38.3324C36.3153 37.5337 36.9628 36.8862 37.7616 36.8862H41.0041C41.5276 36.8559 41.6516 36.5537 41.6516 36.5537L41.6546 36.5552L45.8871 29.2242L45.8858 29.2239C45.9629 29.0823 45.8987 28.9484 45.8876 28.9273L44.4897 26.5062C44.0903 25.8146 44.3273 24.9299 45.0191 24.5307C45.7108 24.1313 46.5953 24.3682 46.9947 25.0599L47.6429 26.1828L48.2901 25.0619C48.6894 24.3703 49.5739 24.1332 50.2657 24.5327C50.9574 24.9321 51.1944 25.8164 50.7951 26.5082L44.9053 36.7094C44.8796 36.7716 44.8717 36.8691 45.0633 36.8862H48.5838L48.5846 36.9206C48.5846 36.9206 50.6193 36.9522 50.8964 38.8523Z" fill="white"/>
</g>
<path d="M91.5 29H88.8068V20.2727H91.6193C92.4659 20.2727 93.1903 20.4474 93.7926 20.7969C94.3949 21.1435 94.8565 21.642 95.1776 22.2926C95.4986 22.9403 95.6591 23.7159 95.6591 24.6193C95.6591 25.5284 95.4972 26.3111 95.1733 26.9673C94.8494 27.6207 94.3778 28.1236 93.7585 28.4759C93.1392 28.8253 92.3864 29 91.5 29ZM89.8636 28.0625H91.4318C92.1534 28.0625 92.7514 27.9233 93.2259 27.6449C93.7003 27.3665 94.054 26.9702 94.2869 26.456C94.5199 25.9418 94.6364 25.3295 94.6364 24.6193C94.6364 23.9148 94.5213 23.3082 94.2912 22.7997C94.0611 22.2884 93.7173 21.8963 93.2599 21.6236C92.8026 21.348 92.233 21.2102 91.5511 21.2102H89.8636V28.0625ZM99.9545 29.1364C99.3636 29.1364 98.8452 28.9957 98.3991 28.7145C97.956 28.4332 97.6094 28.0398 97.3594 27.5341C97.1122 27.0284 96.9886 26.4375 96.9886 25.7614C96.9886 25.0795 97.1122 24.4844 97.3594 23.9759C97.6094 23.4673 97.956 23.0724 98.3991 22.7912C98.8452 22.5099 99.3636 22.3693 99.9545 22.3693C100.545 22.3693 101.063 22.5099 101.506 22.7912C101.952 23.0724 102.298 23.4673 102.545 23.9759C102.795 24.4844 102.92 25.0795 102.92 25.7614C102.92 26.4375 102.795 27.0284 102.545 27.5341C102.298 28.0398 101.952 28.4332 101.506 28.7145C101.063 28.9957 100.545 29.1364 99.9545 29.1364ZM99.9545 28.233C100.403 28.233 100.773 28.1179 101.062 27.8878C101.352 27.6577 101.567 27.3551 101.706 26.9801C101.845 26.6051 101.915 26.1989 101.915 25.7614C101.915 25.3239 101.845 24.9162 101.706 24.5384C101.567 24.1605 101.352 23.8551 101.062 23.6222C100.773 23.3892 100.403 23.2727 99.9545 23.2727C99.5057 23.2727 99.1364 23.3892 98.8466 23.6222C98.5568 23.8551 98.3423 24.1605 98.2031 24.5384C98.0639 24.9162 97.9943 25.3239 97.9943 25.7614C97.9943 26.1989 98.0639 26.6051 98.2031 26.9801C98.3423 27.3551 98.5568 27.6577 98.8466 27.8878C99.1364 28.1179 99.5057 28.233 99.9545 28.233ZM105.716 29L103.722 22.4545H104.778L106.193 27.4659H106.261L107.659 22.4545H108.733L110.114 27.4489H110.182L111.597 22.4545H112.653L110.659 29H109.67L108.239 23.9716H108.136L106.705 29H105.716ZM114.989 25.0625V29H113.983V22.4545H114.955V23.4773H115.04C115.193 23.1449 115.426 22.8778 115.739 22.6761C116.051 22.4716 116.455 22.3693 116.949 22.3693C117.392 22.3693 117.78 22.4602 118.112 22.642C118.445 22.821 118.703 23.0938 118.888 23.4602C119.072 23.8239 119.165 24.2841 119.165 24.8409V29H118.159V24.9091C118.159 24.3949 118.026 23.9943 117.759 23.7074C117.491 23.4176 117.125 23.2727 116.659 23.2727C116.338 23.2727 116.051 23.3423 115.798 23.4815C115.548 23.6207 115.351 23.8239 115.206 24.0909C115.061 24.358 114.989 24.6818 114.989 25.0625ZM122.008 20.2727V29H121.002V20.2727H122.008ZM126.509 29.1364C125.918 29.1364 125.4 28.9957 124.954 28.7145C124.511 28.4332 124.164 28.0398 123.914 27.5341C123.667 27.0284 123.543 26.4375 123.543 25.7614C123.543 25.0795 123.667 24.4844 123.914 23.9759C124.164 23.4673 124.511 23.0724 124.954 22.7912C125.4 22.5099 125.918 22.3693 126.509 22.3693C127.1 22.3693 127.617 22.5099 128.06 22.7912C128.506 23.0724 128.853 23.4673 129.1 23.9759C129.35 24.4844 129.475 25.0795 129.475 25.7614C129.475 26.4375 129.35 27.0284 129.1 27.5341C128.853 28.0398 128.506 28.4332 128.06 28.7145C127.617 28.9957 127.1 29.1364 126.509 29.1364ZM126.509 28.233C126.958 28.233 127.327 28.1179 127.617 27.8878C127.907 27.6577 128.121 27.3551 128.261 26.9801C128.4 26.6051 128.469 26.1989 128.469 25.7614C128.469 25.3239 128.4 24.9162 128.261 24.5384C128.121 24.1605 127.907 23.8551 127.617 23.6222C127.327 23.3892 126.958 23.2727 126.509 23.2727C126.06 23.2727 125.691 23.3892 125.401 23.6222C125.112 23.8551 124.897 24.1605 124.758 24.5384C124.619 24.9162 124.549 25.3239 124.549 25.7614C124.549 26.1989 124.619 26.6051 124.758 26.9801C124.897 27.3551 125.112 27.6577 125.401 27.8878C125.691 28.1179 126.06 28.233 126.509 28.233ZM132.936 29.1534C132.522 29.1534 132.145 29.0753 131.807 28.919C131.469 28.7599 131.201 28.5312 131.002 28.233C130.803 27.9318 130.703 27.5682 130.703 27.142C130.703 26.767 130.777 26.4631 130.925 26.2301C131.073 25.9943 131.27 25.8097 131.517 25.6761C131.765 25.5426 132.037 25.4432 132.336 25.3778C132.637 25.3097 132.939 25.2557 133.243 25.2159C133.641 25.1648 133.963 25.1264 134.211 25.1009C134.461 25.0724 134.642 25.0256 134.756 24.9602C134.873 24.8949 134.931 24.7812 134.931 24.6193V24.5852C134.931 24.1648 134.816 23.8381 134.586 23.6051C134.358 23.3722 134.013 23.2557 133.55 23.2557C133.07 23.2557 132.694 23.3608 132.421 23.571C132.148 23.7812 131.956 24.0057 131.846 24.2443L130.891 23.9034C131.061 23.5057 131.289 23.196 131.573 22.9744C131.86 22.75 132.172 22.5937 132.51 22.5057C132.851 22.4148 133.186 22.3693 133.516 22.3693C133.726 22.3693 133.968 22.3949 134.24 22.446C134.516 22.4943 134.782 22.5952 135.037 22.7486C135.296 22.902 135.51 23.1335 135.681 23.4432C135.851 23.7528 135.936 24.1676 135.936 24.6875V29H134.931V28.1136H134.88C134.811 28.2557 134.698 28.4077 134.539 28.5696C134.38 28.7315 134.168 28.8693 133.904 28.983C133.64 29.0966 133.317 29.1534 132.936 29.1534ZM133.09 28.25C133.488 28.25 133.823 28.1719 134.096 28.0156C134.371 27.8594 134.578 27.6577 134.718 27.4105C134.86 27.1634 134.931 26.9034 134.931 26.6307V25.7102C134.888 25.7614 134.794 25.8082 134.65 25.8509C134.507 25.8906 134.343 25.9261 134.155 25.9574C133.971 25.9858 133.79 26.0114 133.614 26.0341C133.441 26.054 133.3 26.071 133.192 26.0852C132.931 26.1193 132.686 26.1747 132.459 26.2514C132.235 26.3253 132.053 26.4375 131.914 26.5881C131.777 26.7358 131.709 26.9375 131.709 27.1932C131.709 27.5426 131.838 27.8068 132.097 27.9858C132.358 28.1619 132.689 28.25 133.09 28.25ZM140.244 29.1364C139.698 29.1364 139.217 28.9986 138.799 28.723C138.381 28.4446 138.055 28.0526 137.819 27.5469C137.583 27.0384 137.465 26.4375 137.465 25.7443C137.465 25.0568 137.583 24.4602 137.819 23.9545C138.055 23.4489 138.383 23.0582 138.803 22.7827C139.224 22.5071 139.71 22.3693 140.261 22.3693C140.687 22.3693 141.023 22.4403 141.271 22.5824C141.521 22.7216 141.711 22.8807 141.842 23.0597C141.975 23.2358 142.079 23.3807 142.153 23.4943H142.238V20.2727H143.244V29H142.272V27.9943H142.153C142.079 28.1136 141.974 28.2642 141.837 28.446C141.701 28.625 141.506 28.7855 141.254 28.9276C141.001 29.0668 140.664 29.1364 140.244 29.1364ZM140.38 28.233C140.783 28.233 141.124 28.1278 141.403 27.9176C141.681 27.7045 141.893 27.4105 142.038 27.0355C142.183 26.6577 142.255 26.2216 142.255 25.7273C142.255 25.2386 142.184 24.8111 142.042 24.4446C141.9 24.0753 141.69 23.7884 141.411 23.5838C141.133 23.3764 140.789 23.2727 140.38 23.2727C139.954 23.2727 139.599 23.3821 139.315 23.6009C139.033 23.8168 138.822 24.1108 138.68 24.483C138.54 24.8523 138.471 25.267 138.471 25.7273C138.471 26.1932 138.542 26.6165 138.684 26.9972C138.829 27.375 139.042 27.6761 139.323 27.9006C139.607 28.1222 139.96 28.233 140.38 28.233ZM151.259 29.1364C150.668 29.1364 150.15 28.9957 149.704 28.7145C149.261 28.4332 148.914 28.0398 148.664 27.5341C148.417 27.0284 148.293 26.4375 148.293 25.7614C148.293 25.0795 148.417 24.4844 148.664 23.9759C148.914 23.4673 149.261 23.0724 149.704 22.7912C150.15 22.5099 150.668 22.3693 151.259 22.3693C151.85 22.3693 152.367 22.5099 152.81 22.7912C153.256 23.0724 153.603 23.4673 153.85 23.9759C154.1 24.4844 154.225 25.0795 154.225 25.7614C154.225 26.4375 154.1 27.0284 153.85 27.5341C153.603 28.0398 153.256 28.4332 152.81 28.7145C152.367 28.9957 151.85 29.1364 151.259 29.1364ZM151.259 28.233C151.708 28.233 152.077 28.1179 152.367 27.8878C152.657 27.6577 152.871 27.3551 153.011 26.9801C153.15 26.6051 153.219 26.1989 153.219 25.7614C153.219 25.3239 153.15 24.9162 153.011 24.5384C152.871 24.1605 152.657 23.8551 152.367 23.6222C152.077 23.3892 151.708 23.2727 151.259 23.2727C150.81 23.2727 150.441 23.3892 150.151 23.6222C149.862 23.8551 149.647 24.1605 149.508 24.5384C149.369 24.9162 149.299 25.3239 149.299 25.7614C149.299 26.1989 149.369 26.6051 149.508 26.9801C149.647 27.3551 149.862 27.6577 150.151 27.8878C150.441 28.1179 150.81 28.233 151.259 28.233ZM156.766 25.0625V29H155.76V22.4545H156.732V23.4773H156.817C156.971 23.1449 157.203 22.8778 157.516 22.6761C157.828 22.4716 158.232 22.3693 158.726 22.3693C159.169 22.3693 159.557 22.4602 159.89 22.642C160.222 22.821 160.48 23.0938 160.665 23.4602C160.85 23.8239 160.942 24.2841 160.942 24.8409V29H159.936V24.9091C159.936 24.3949 159.803 23.9943 159.536 23.7074C159.269 23.4176 158.902 23.2727 158.436 23.2727C158.115 23.2727 157.828 23.3423 157.576 23.4815C157.326 23.6207 157.128 23.8239 156.983 24.0909C156.838 24.358 156.766 24.6818 156.766 25.0625ZM169.001 22.4545V23.3068H165.609V22.4545H169.001ZM166.598 20.8864H167.604V27.125C167.604 27.4091 167.645 27.6222 167.727 27.7642C167.813 27.9034 167.92 27.9972 168.051 28.0455C168.185 28.0909 168.325 28.1136 168.473 28.1136C168.584 28.1136 168.675 28.108 168.746 28.0966C168.817 28.0824 168.874 28.071 168.916 28.0625L169.121 28.9659C169.053 28.9915 168.957 29.017 168.835 29.0426C168.713 29.071 168.558 29.0852 168.371 29.0852C168.087 29.0852 167.808 29.0241 167.536 28.902C167.266 28.7798 167.041 28.5938 166.862 28.3438C166.686 28.0938 166.598 27.7784 166.598 27.3977V20.8864ZM171.661 25.0625V29H170.655V20.2727H171.661V23.4773H171.746C171.899 23.1392 172.129 22.8707 172.436 22.6719C172.746 22.4702 173.158 22.3693 173.672 22.3693C174.118 22.3693 174.509 22.4588 174.844 22.6378C175.179 22.8139 175.439 23.0852 175.624 23.4517C175.811 23.8153 175.905 24.2784 175.905 24.8409V29H174.899V24.9091C174.899 24.3892 174.764 23.9872 174.494 23.7031C174.227 23.4162 173.857 23.2727 173.382 23.2727C173.053 23.2727 172.757 23.3423 172.496 23.4815C172.237 23.6207 172.033 23.8239 171.882 24.0909C171.734 24.358 171.661 24.6818 171.661 25.0625ZM180.489 29.1364C179.858 29.1364 179.314 28.9972 178.857 28.7188C178.402 28.4375 178.051 28.0455 177.804 27.5426C177.56 27.0369 177.438 26.4489 177.438 25.7784C177.438 25.108 177.56 24.517 177.804 24.0057C178.051 23.4915 178.395 23.0909 178.836 22.804C179.279 22.5142 179.796 22.3693 180.387 22.3693C180.728 22.3693 181.064 22.4261 181.397 22.5398C181.729 22.6534 182.032 22.8381 182.304 23.0938C182.577 23.3466 182.794 23.6818 182.956 24.0994C183.118 24.517 183.199 25.0312 183.199 25.642V26.0682H178.154V25.1989H182.176C182.176 24.8295 182.103 24.5 181.955 24.2102C181.81 23.9205 181.603 23.6918 181.333 23.5241C181.066 23.3565 180.75 23.2727 180.387 23.2727C179.986 23.2727 179.64 23.3722 179.347 23.571C179.057 23.767 178.834 24.0227 178.678 24.3381C178.522 24.6534 178.444 24.9915 178.444 25.3523V25.9318C178.444 26.4261 178.529 26.8452 178.699 27.1889C178.873 27.5298 179.113 27.7898 179.419 27.9688C179.726 28.1449 180.083 28.233 180.489 28.233C180.753 28.233 180.992 28.196 181.205 28.1222C181.421 28.0455 181.607 27.9318 181.763 27.7812C181.919 27.6278 182.04 27.4375 182.125 27.2102L183.097 27.483C182.995 27.8125 182.823 28.1023 182.581 28.3523C182.34 28.5994 182.042 28.7926 181.686 28.9318C181.331 29.0682 180.932 29.1364 180.489 29.1364Z" fill="#4C5F8D"/>
<path d="M96.87 49H98.966L94.55 37.656H92.326L87.91 49H89.942L90.998 46.152H95.798L96.87 49ZM93.398 39.736L95.126 44.376H91.67L93.398 39.736ZM102.118 52.04V48.12C102.518 48.712 103.366 49.192 104.486 49.192C106.726 49.192 108.15 47.432 108.15 45.096C108.15 42.792 106.854 41.032 104.55 41.032C103.35 41.032 102.454 41.592 102.07 42.264V41.208H100.278V52.04H102.118ZM106.294 45.096C106.294 46.584 105.43 47.544 104.198 47.544C102.982 47.544 102.102 46.584 102.102 45.096C102.102 43.64 102.982 42.68 104.198 42.68C105.446 42.68 106.294 43.64 106.294 45.096ZM111.774 52.04V48.12C112.174 48.712 113.022 49.192 114.142 49.192C116.382 49.192 117.806 47.432 117.806 45.096C117.806 42.792 116.51 41.032 114.206 41.032C113.006 41.032 112.11 41.592 111.726 42.264V41.208H109.934V52.04H111.774ZM115.95 45.096C115.95 46.584 115.086 47.544 113.854 47.544C112.638 47.544 111.758 46.584 111.758 45.096C111.758 43.64 112.638 42.68 113.854 42.68C115.102 42.68 115.95 43.64 115.95 45.096ZM131.175 40.312C130.919 39.048 129.879 37.416 127.207 37.416C125.095 37.416 123.351 38.984 123.351 40.888C123.351 42.584 124.503 43.72 126.231 44.072L127.831 44.408C128.807 44.616 129.351 45.208 129.351 45.944C129.351 46.824 128.647 47.512 127.287 47.512C125.655 47.512 124.807 46.424 124.695 45.24L122.903 45.752C123.079 47.384 124.407 49.24 127.287 49.24C129.879 49.24 131.303 47.56 131.303 45.8C131.303 44.2 130.231 42.936 128.231 42.536L126.599 42.2C125.719 42.008 125.271 41.464 125.271 40.744C125.271 39.88 126.071 39.112 127.223 39.112C128.743 39.112 129.335 40.152 129.447 40.856L131.175 40.312ZM135.458 38.824H133.778V39.992C133.778 40.68 133.41 41.208 132.578 41.208H132.178V42.856H133.618V46.776C133.618 48.232 134.514 49.096 135.954 49.096C136.626 49.096 136.978 48.968 137.09 48.92V47.384C137.01 47.4 136.706 47.448 136.45 47.448C135.762 47.448 135.458 47.16 135.458 46.472V42.856H137.074V41.208H135.458V38.824ZM142.327 47.576C141.191 47.576 140.151 46.712 140.151 45.096C140.151 43.48 141.191 42.648 142.327 42.648C143.479 42.648 144.503 43.48 144.503 45.096C144.503 46.728 143.479 47.576 142.327 47.576ZM142.327 40.968C140.007 40.968 138.295 42.712 138.295 45.096C138.295 47.496 140.007 49.24 142.327 49.24C144.663 49.24 146.375 47.496 146.375 45.096C146.375 42.712 144.663 40.968 142.327 40.968ZM152.729 41.16C152.649 41.144 152.457 41.112 152.233 41.112C151.209 41.112 150.345 41.608 149.977 42.456V41.208H148.169V49H150.025V45.288C150.025 43.832 150.681 43 152.121 43C152.313 43 152.521 43.016 152.729 43.048V41.16ZM155.496 44.248C155.56 43.416 156.232 42.52 157.4 42.52C158.68 42.52 159.288 43.336 159.32 44.248H155.496ZM159.528 46.28C159.272 47.048 158.696 47.64 157.576 47.64C156.424 47.64 155.496 46.792 155.448 45.608H161.144C161.16 45.576 161.192 45.32 161.192 45.016C161.192 42.552 159.784 40.968 157.384 40.968C155.416 40.968 153.592 42.6 153.592 45.064C153.592 47.704 155.464 49.24 157.576 49.24C159.448 49.24 160.68 48.136 161.096 46.776L159.528 46.28Z" fill="#081537"/>
<rect x="1" y="0.5" width="214.5" height="68" rx="34" stroke="#081537"/>
<defs>
<linearGradient id="paint0_linear_19_4953" x1="47.75" y1="18.5" x2="47.75" y2="50.5" gradientUnits="userSpaceOnUse">
<stop stop-color="#17C9FB"/>
<stop offset="1" stop-color="#1A74E8"/>
</linearGradient>
<clipPath id="clip0_19_4953">
<rect width="32" height="32" fill="white" transform="translate(31.75 18.5)"/>
</clipPath>
</defs>
</svg>
