<svg width="410" height="410" viewBox="0 0 410 410" fill="none" xmlns="http://www.w3.org/2000/svg">
<g clip-path="url(#clip0_8_87)">
<path fill-rule="evenodd" clip-rule="evenodd" d="M212.616 130.613C254.614 119.907 300.582 115.856 341.754 129.301C356.735 134.192 369.739 142.146 383.125 150.169C384.065 150.73 384.372 151.954 383.81 152.898C383.242 153.841 382.019 154.149 381.076 153.582C367.947 145.715 355.21 137.883 340.519 133.087C299.93 119.831 254.608 123.959 213.231 134.562L213.343 135.211C214.576 142.262 210.49 151.069 203.419 159.609C193.284 171.852 177.176 183.691 163.99 189.15C158.065 191.601 152.688 192.753 148.62 192.252C145.449 191.863 142.985 190.507 141.412 188.153C138.061 183.136 139.901 176.482 145.298 169.59C156.581 155.172 183.09 139.123 196.272 135.156C200.389 133.918 204.558 132.732 208.769 131.615C208.586 130.369 208.402 129.15 208.169 127.972C207.496 124.619 206.402 121.56 203.475 118.914C198.909 114.796 192.714 112.72 186.068 111.812C175.695 110.402 164.218 111.87 155.642 113.453C107.877 122.272 78.0926 150.947 58.108 182.234C37.9309 213.835 27.6883 248.113 19.1339 267.7C18.6959 268.708 17.5218 269.163 16.5134 268.725C15.5051 268.287 15.0448 267.112 15.4879 266.105C24.0958 246.391 34.4406 211.901 54.7567 180.092C75.2653 147.97 105.886 118.592 154.916 109.535C163.85 107.885 175.802 106.397 186.603 107.866C194.08 108.887 201.006 111.325 206.144 115.96C210.754 120.122 211.758 125.056 212.616 130.613ZM209.365 135.576L209.424 135.899C210.502 142.062 206.537 149.602 200.352 157.068C190.613 168.833 175.143 180.222 162.465 185.468C158.119 187.269 154.124 188.343 150.837 188.39C148.126 188.425 145.945 187.772 144.726 185.941C143.566 184.216 143.439 182.211 144.009 180.058C144.674 177.529 146.252 174.83 148.43 172.044C159.273 158.191 184.751 142.779 197.419 138.969C201.354 137.788 205.337 136.652 209.365 135.576Z" fill="url(#paint0_linear_8_87)"/>
<path fill-rule="evenodd" clip-rule="evenodd" d="M386.518 157.379C386.559 156.508 386.257 155.324 385.918 154.055C385.113 151.031 383.727 147.676 383.138 146.068C382.761 145.033 383.297 143.893 384.327 143.515C385.363 143.138 386.505 143.669 386.881 144.704C387.601 146.675 389.44 151.149 390.151 154.652C390.531 156.532 390.557 158.187 390.185 159.276C389.554 161.133 387.757 161.94 384.802 161.119C381.307 160.146 375.222 156.736 369.219 157.476C368.131 157.613 367.134 156.832 367.002 155.744C366.867 154.651 367.642 153.657 368.735 153.522C374.458 152.819 380.291 155.323 384.279 156.76C385.038 157.033 385.965 157.256 386.518 157.379Z" fill="url(#paint1_linear_8_87)"/>
</g>
<defs>
<linearGradient id="paint0_linear_8_87" x1="45.9006" y1="259.387" x2="312.182" y2="134.377" gradientUnits="userSpaceOnUse">
<stop stop-color="#D42FFD"/>
<stop offset="0.329059" stop-color="#3EFBEF"/>
<stop offset="0.637759" stop-color="#1B4CF9"/>
<stop offset="1" stop-color="#53FC18"/>
</linearGradient>
<linearGradient id="paint1_linear_8_87" x1="368.814" y1="156.132" x2="389.43" y2="148.149" gradientUnits="userSpaceOnUse">
<stop stop-color="#D42FFD"/>
<stop offset="0.329059" stop-color="#3EFBEF"/>
<stop offset="0.637759" stop-color="#1B4CF9"/>
<stop offset="1" stop-color="#53FC18"/>
</linearGradient>
<clipPath id="clip0_8_87">
<rect width="337.664" height="337.664" fill="white" transform="matrix(0.969653 0.244486 0.244486 -0.969653 0 327.417)"/>
</clipPath>
</defs>
</svg>
