<svg width="20" height="20" viewBox="0 0 20 20" fill="none" xmlns="http://www.w3.org/2000/svg">
<path d="M6.11582 8.4042L9.99981 4.5203L13.8858 8.4062L16.1458 6.1462L9.99981 0L3.85593 6.1442L6.11582 8.4042ZM0 9.99969L2.26006 7.73962L4.51998 9.99955L2.25993 12.2596L0 9.99969ZM6.11582 11.5958L9.99981 15.4797L13.8857 11.5939L16.1469 13.8527L16.1458 13.8539L9.99981 20L3.85573 13.856L3.85253 13.8528L6.11582 11.5958ZM15.48 10.0009L17.7401 7.74087L20 10.0008L17.7399 12.2609L15.48 10.0009Z" fill="#F3BA2F"/>
<path d="M12.2918 9.99838H12.2928L9.99947 7.70508L8.30468 9.39988H8.30458L8.10988 9.59468L7.70828 9.99638L7.70508 9.99948L7.70828 10.0028L9.99947 12.2941L12.2928 10.0008L12.2939 9.99948L12.2918 9.99838" fill="#F3BA2F"/>
</svg>
