<svg width="15" height="25" viewBox="0 0 15 25" fill="none" xmlns="http://www.w3.org/2000/svg">
<g clip-path="url(#clip0_37_142)">
<path d="M7.5 25C11.6421 25 15 19.4036 15 12.5C15 5.59644 11.6421 0 7.5 0C3.35786 0 0 5.59644 0 12.5C0 19.4036 3.35786 25 7.5 25Z" fill="#2E3148"/>
<path d="M7.50005 19.7531C9.90352 19.7531 11.8519 16.5058 11.8519 12.5C11.8519 8.49427 9.90352 5.24695 7.50005 5.24695C5.09659 5.24695 3.14819 8.49427 3.14819 12.5C3.14819 16.5058 5.09659 19.7531 7.50005 19.7531Z" fill="#1B1E36"/>
<path d="M7.51548 1.59473C6.7059 1.59473 6.04944 6.48873 6.04944 12.5258C6.04944 18.5629 6.7059 23.4569 7.51548 23.4569C8.32506 23.4569 8.98152 18.5629 8.98152 12.5258C8.98152 6.48873 8.32506 1.59473 7.51548 1.59473ZM7.6167 22.84C7.52412 23.0458 7.43154 22.8914 7.43154 22.8914C7.0587 22.1714 6.87228 20.8338 6.87228 20.8338C6.22014 17.3359 6.37536 9.82563 6.37536 9.82563C6.68184 3.86323 7.23936 2.45473 7.42908 2.14203C7.44845 2.11011 7.47396 2.09061 7.50111 2.08695C7.52826 2.08329 7.55532 2.09571 7.57752 2.12203C7.8528 2.44713 8.08368 3.80673 8.08368 3.80673C8.76546 8.02483 8.70372 11.9857 8.70372 11.9857C8.76546 15.4322 8.36208 19.2902 8.36208 19.2902C8.05158 22.2222 7.6167 22.84 7.6167 22.84Z" fill="#6F7390"/>
<path d="M13.2043 7.08593C12.8013 5.91513 9.92779 7.40173 6.78433 10.4059C3.64087 13.4101 1.42351 16.7948 1.82629 17.9651C2.22907 19.1354 5.10283 17.6493 8.24629 14.6451C11.3898 11.6409 13.6071 8.25623 13.2043 7.08593ZM2.19817 17.8045C2.04385 17.7721 2.07871 17.5607 2.07871 17.5607C2.26801 16.6636 2.87041 15.7284 2.87041 15.7284C4.36699 13.0448 8.35315 9.53193 8.35315 9.53193C11.6084 7.00773 12.6195 7.11423 12.876 7.23193C12.9023 7.24418 12.9252 7.27156 12.9406 7.30923C12.956 7.34689 12.9628 7.39242 12.96 7.43773C12.9292 7.99773 12.335 9.00773 12.335 9.00773C10.4803 12.0936 8.38801 13.9758 8.38801 13.9758C6.62503 15.7808 4.41643 17.1167 4.41643 17.1167C2.73589 18.126 2.19823 17.8045 2.19823 17.8045H2.19817Z" fill="#6F7390"/>
<path d="M13.1901 18.0041C13.5963 16.8364 11.3845 13.4362 8.2521 10.4094C5.11968 7.38258 2.24658 5.87758 1.84074 7.04728C1.4349 8.21698 3.64632 11.6152 6.78054 14.642C9.91476 17.6688 12.7843 19.1739 13.1901 18.0041ZM2.1099 7.49848C2.0499 7.26138 2.17656 7.20428 2.17656 7.20428C2.73732 7.02778 3.525 7.42998 3.525 7.42998C5.6679 8.24328 9.489 12.2325 9.489 12.2325C12.431 15.6636 12.8822 17.1749 12.9498 17.6039C12.9567 17.6479 12.954 17.6945 12.9423 17.7356C12.9305 17.7766 12.9105 17.8094 12.8856 17.8282C12.5788 18.0623 11.7572 17.7135 11.7572 17.7135C9.22476 16.5818 7.19946 14.5083 7.19946 14.5083C5.37972 12.8725 3.58032 10.3555 3.58032 10.3555C2.21304 8.43678 2.11032 7.50108 2.11032 7.50108L2.1099 7.49848Z" fill="#6F7390"/>
<path d="M7.49999 13.786C7.92614 13.786 8.27159 13.2102 8.27159 12.5C8.27159 11.7898 7.92614 11.214 7.49999 11.214C7.07385 11.214 6.72839 11.7898 6.72839 12.5C6.72839 13.2102 7.07385 13.786 7.49999 13.786Z" fill="#B7B9C8"/>
<path d="M10.6636 8.33324C10.9108 8.33324 11.1111 7.98778 11.1111 7.56164C11.1111 7.1355 10.9108 6.79004 10.6636 6.79004C10.4164 6.79004 10.2161 7.1355 10.2161 7.56164C10.2161 7.98778 10.4164 8.33324 10.6636 8.33324Z" fill="#B7B9C8"/>
<path d="M3.3179 10.9568C3.56507 10.9568 3.76544 10.6113 3.76544 10.1852C3.76544 9.75903 3.56507 9.41357 3.3179 9.41357C3.07073 9.41357 2.87036 9.75903 2.87036 10.1852C2.87036 10.6113 3.07073 10.9568 3.3179 10.9568Z" fill="#B7B9C8"/>
<path d="M6.58951 20.4217C6.83668 20.4217 7.03705 20.0763 7.03705 19.6501C7.03705 19.224 6.83668 18.8785 6.58951 18.8785C6.34234 18.8785 6.14197 19.224 6.14197 19.6501C6.14197 20.0763 6.34234 20.4217 6.58951 20.4217Z" fill="#B7B9C8"/>
</g>
<defs>
<clipPath id="clip0_37_142">
<rect width="15" height="25" fill="white"/>
</clipPath>
</defs>
</svg>
