<svg width="24" height="25" viewBox="0 0 24 25" fill="none" xmlns="http://www.w3.org/2000/svg">
<g clip-path="url(#clip0_17_615)">
<path d="M23.6411 15.4021C22.0378 21.8341 15.5212 25.744 9.09836 24.1406C2.66617 22.5373 -1.24377 16.0209 0.35964 9.59819C1.96295 3.16619 8.47014 -0.74375 14.9023 0.859656C21.3251 2.45359 25.2445 8.96997 23.6411 15.4021Z" fill="url(#paint0_linear_17_615)"/>
<path d="M17.7136 11.0047C17.948 9.41094 16.7386 8.54844 15.0699 7.97657L15.6136 5.81094L14.3011 5.48282L13.7761 7.59219C13.4293 7.50782 13.073 7.42344 12.7168 7.34844L13.2418 5.22969L11.9293 4.90157L11.3949 7.05782C11.1043 6.99219 10.823 6.92657 10.5511 6.86094V6.85157L8.73238 6.40157L8.38551 7.80782C8.38551 7.80782 9.36051 8.03282 9.34176 8.04219C9.87613 8.17344 9.96988 8.52969 9.95113 8.81094L9.33239 11.2766C9.36988 11.2859 9.41676 11.2953 9.47301 11.3234C9.42614 11.3141 9.37926 11.3047 9.33239 11.2859L8.46989 14.7359C8.40426 14.8953 8.23551 15.1391 7.86989 15.0453C7.87926 15.0641 6.91364 14.8109 6.91364 14.8109L6.25739 16.3203L7.97301 16.7516C8.29176 16.8359 8.60114 16.9109 8.91051 16.9953L8.36676 19.1797L9.67926 19.5078L10.223 17.3422C10.5793 17.4359 10.9355 17.5297 11.273 17.6141L10.7386 19.7703L12.0511 20.0984L12.5949 17.9141C14.8449 18.3359 16.5324 18.1672 17.2355 16.1328C17.8074 14.5016 17.2074 13.5547 16.0261 12.9359C16.898 12.7391 17.5449 12.1672 17.7136 11.0047ZM14.7043 15.2234C14.3011 16.8547 11.5449 15.9734 10.6543 15.7484L11.3761 12.8516C12.2668 13.0766 15.1355 13.5172 14.7043 15.2234ZM15.1168 10.9766C14.7418 12.4672 12.4543 11.7078 11.7136 11.5203L12.3699 8.89532C13.1105 9.08282 15.5011 9.42969 15.1168 10.9766Z" fill="white"/>
</g>
<defs>
<linearGradient id="paint0_linear_17_615" x1="11.9936" y1="0.494377" x2="11.9936" y2="24.4977" gradientUnits="userSpaceOnUse">
<stop stop-color="#F9AA4B"/>
<stop offset="1" stop-color="#F7931A"/>
</linearGradient>
<clipPath id="clip0_17_615">
<rect width="24" height="24" fill="white" transform="translate(0 0.5)"/>
</clipPath>
</defs>
</svg>
