<svg width="15" height="25" viewBox="0 0 15 25" fill="none" xmlns="http://www.w3.org/2000/svg">
<g clip-path="url(#clip0_34_13)">
<path d="M7.5 25C11.6421 25 15 19.4036 15 12.5C15 5.59644 11.6421 0 7.5 0C3.35786 0 0 5.59644 0 12.5C0 19.4036 3.35786 25 7.5 25Z" fill="#988430"/>
<path d="M7.49999 24.5996C11.5094 24.5996 14.7598 19.1824 14.7598 12.5C14.7598 5.81757 11.5094 0.400391 7.49999 0.400391C3.49054 0.400391 0.240234 5.81757 0.240234 12.5C0.240234 19.1824 3.49054 24.5996 7.49999 24.5996Z" fill="#7A6A2A"/>
<path d="M7.49999 24.3447C11.425 24.3447 14.6068 19.0416 14.6068 12.5C14.6068 5.95837 11.425 0.655334 7.49999 0.655334C3.57501 0.655334 0.393188 5.95837 0.393188 12.5C0.393188 19.0416 3.57501 24.3447 7.49999 24.3447Z" fill="#BA9F33"/>
<path fill-rule="evenodd" clip-rule="evenodd" d="M3.27915 11.1651C3.23667 11.1004 3.19179 11.0356 3.15051 10.9709C3.10923 10.9063 3.06683 10.8415 3.02435 10.7768L2.89811 10.5768C2.87747 10.5424 2.85563 10.5121 2.83499 10.4776C2.81435 10.4473 2.79011 10.4129 2.76947 10.3825C2.60195 10.1176 2.43347 9.85265 2.26827 9.58759C2.43939 9.84852 2.60691 10.1076 2.77803 10.3724L2.83747 10.4716C2.85811 10.5059 2.87995 10.5363 2.90059 10.5707L3.02675 10.7648C3.06923 10.8295 3.11051 10.8943 3.15299 10.9648C3.19547 11.0353 3.23675 11.1003 3.27923 11.1648L3.27915 11.1651ZM1.05587 11.1251C1.05587 11.1251 1.66507 11.2301 1.96243 11.3009C2.23787 11.3657 3.09955 11.5861 3.09955 11.5861L1.05587 11.1251ZM1.05587 11.1251C1.22699 11.1493 1.39811 11.1796 1.56923 11.21C1.65659 11.2241 1.74035 11.2403 1.82411 11.2544L1.95267 11.2788C1.99515 11.2888 2.03643 11.2989 2.07891 11.3091L2.58867 11.4445L2.84347 11.5153C2.92723 11.5396 3.01099 11.566 3.09835 11.5903C3.01459 11.5761 2.92723 11.5559 2.84347 11.5356L2.58867 11.4749L2.07891 11.3496C2.03643 11.3395 1.99515 11.3252 1.95267 11.3152L1.82403 11.2905C1.74027 11.2764 1.65291 11.2561 1.56915 11.2399C1.39803 11.2056 1.22691 11.1691 1.05579 11.1247L1.05587 11.1251ZM3.03891 11.8507C3.03891 11.8507 2.38843 12.1259 2.16875 12.2311C1.95275 12.3301 1.29859 12.6619 1.29859 12.6619L3.03883 11.8508L3.03891 11.8507Z" fill="#CFB66C"/>
<path fill-rule="evenodd" clip-rule="evenodd" d="M3.03883 11.8506C2.89443 11.9214 2.75083 11.9902 2.60435 12.055L2.16987 12.2492C2.02547 12.32 1.88187 12.3888 1.73787 12.4596L1.52187 12.5586C1.45027 12.593 1.37747 12.6233 1.30347 12.6578C1.37499 12.6178 1.44787 12.5769 1.51947 12.5425L1.73547 12.4273C1.87987 12.3524 2.02347 12.2816 2.16747 12.2068C2.31427 12.1461 2.45875 12.0813 2.60555 12.0226C2.74507 11.964 2.89195 11.9054 3.03883 11.8508V11.8506ZM1.38963 13.3293C1.46115 13.2848 2.28643 12.6437 2.47819 12.494C2.57419 12.419 2.85323 12.254 2.85323 12.254L1.38963 13.3293Z" fill="#CFB66C"/>
<path fill-rule="evenodd" clip-rule="evenodd" d="M1.38961 13.3293C1.45265 13.2893 1.51217 13.2404 1.57281 13.1938L1.75241 13.0542L2.11289 12.765C2.23289 12.67 2.34953 12.565 2.47329 12.4757C2.53641 12.4313 2.59953 12.3949 2.66257 12.3605L2.75857 12.31C2.79129 12.2958 2.82169 12.2796 2.85457 12.2654C2.73457 12.3605 2.60825 12.4414 2.48809 12.5344C2.36809 12.6336 2.24537 12.7145 2.12153 12.8034L1.75505 13.0724C1.63201 13.1554 1.51201 13.2444 1.38953 13.3293H1.38961ZM1.46961 13.8893C1.46961 13.8893 2.21713 13.1592 2.47441 12.9245C2.60913 12.7992 3.04481 12.439 3.04481 12.439L1.46961 13.8893Z" fill="#CFB66C"/>
<path fill-rule="evenodd" clip-rule="evenodd" d="M1.46967 13.8896C1.59583 13.7601 1.72447 13.6286 1.85311 13.4952L2.04511 13.3009C2.11063 13.2362 2.17375 13.1756 2.24055 13.1109C2.30607 13.0461 2.36919 12.9814 2.43591 12.9208C2.46767 12.8881 2.50095 12.8597 2.53543 12.8358L2.63735 12.7509C2.77207 12.6417 2.90679 12.5304 3.04879 12.4353C2.92015 12.5709 2.78783 12.6862 2.65559 12.8054C2.59007 12.8661 2.52327 12.9208 2.45775 12.9814C2.39223 13.0421 2.32911 13.1069 2.26231 13.1656C2.19679 13.2302 2.13367 13.2909 2.06695 13.3496L1.86911 13.5296L1.46983 13.8896H1.46967ZM3.03879 12.599C3.03879 12.599 2.57399 13.1937 2.42351 13.3838C2.27303 13.574 1.83007 14.108 1.83007 14.108L3.03879 12.599Z" fill="#CFB66C"/>
<path fill-rule="evenodd" clip-rule="evenodd" d="M5.70635 17.3948L5.46851 16.6444L5.60683 15.7059L6.59347 15.0708L6.17355 13.6348L6.38107 12.1845L6.77067 10.8859L7.97459 10.5704L8.85923 9.16467L10.7695 9.40534L11.1444 12.8095L10.4223 17.0955L10.011 19.3144L8.34347 19.4196L7.56923 18.5256L6.66267 17.8944L5.70635 17.3948Z" fill="#E2CC85"/>
<path fill-rule="evenodd" clip-rule="evenodd" d="M8.63113 17.3705C8.63113 17.3705 8.40049 17.5465 8.00713 17.506C7.89329 17.2512 7.09601 17.1318 7.09601 17.1318C7.09601 17.1318 6.99649 17.0813 6.82049 17.2026C6.64337 17.3226 6.47585 17.3078 6.31929 17.3725C6.16273 17.4372 6.00729 17.0974 5.88729 17.0266C5.76729 16.9518 5.60817 16.7718 5.60817 16.7718L5.27217 16.7172L4.59745 16.2418L3.52553 14.462L3.23425 15.222L3.14441 16.1625L3.46849 17.277L4.34105 18.6018L6.04249 19.3218L7.05097 18.8266L8.31433 17.9366L8.63113 17.3704V17.3705Z" fill="#F1D789"/>
<path fill-rule="evenodd" clip-rule="evenodd" d="M2.58617 11.0801L2.80217 9.98999L3.05953 9.28599L3.88833 9.17065L3.63953 10.3803L2.94665 12.4353L3.23425 14.2699L2.72457 14.6945L2.56793 14.2941L2.44177 13.3759L2.43329 12.3443L2.58617 11.0801Z" fill="#F4ECB4"/>
<path fill-rule="evenodd" clip-rule="evenodd" d="M3.51577 17.2957L3.35681 16.9256C3.35681 16.9256 3.31433 16.7496 3.33865 16.5959C3.36265 16.4401 3.35921 16.43 3.34713 16.3713C3.33505 16.3127 3.23305 16.1104 3.23913 15.9364C3.24513 15.7604 3.23065 15.7017 3.30825 15.5623C3.38953 15.4268 3.36529 15.1921 3.36529 15.1921L3.47089 15.3013L3.49489 15.2407C3.49489 15.2407 3.53369 15.2912 3.53369 15.3701C3.54217 15.2609 3.50697 14.7552 3.58705 14.64C3.66713 14.5248 3.80913 15.18 3.80913 15.18L3.72177 14.2293L3.49721 13.2545L3.09793 12.3645L3.07393 11.3835V11.2985C3.07393 11.2985 2.89065 11.7679 2.83969 12.1385C2.80329 12.3933 2.89065 12.7028 2.87249 13.0689C2.85785 13.4331 2.83969 13.4047 2.89305 13.5489C2.94641 13.6932 3.07633 13.9899 3.02537 14.2043C2.98049 14.3884 2.82753 14.2589 2.82753 14.2589C2.82753 14.2589 2.79721 14.4085 2.75593 14.4632C2.74137 14.3743 2.72561 14.3176 2.69649 14.2632C2.69401 14.2976 2.68801 14.3441 2.68801 14.3441C2.68801 14.3441 2.66129 14.2045 2.63457 14.0285C2.59825 13.794 2.55937 13.4845 2.52417 13.3187C2.50961 13.4137 2.47321 13.7029 2.47321 13.7029L2.49385 14.148L2.59337 14.7588L2.68937 15.1588L2.78281 15.6483L2.86401 15.9771L2.92953 16.2279L2.98657 16.7923L3.26201 17.2776L3.40889 17.3869L3.51561 17.2959L3.51577 17.2957Z" fill="#F3E19D"/>
<path fill-rule="evenodd" clip-rule="evenodd" d="M2.73054 10.1901C2.73054 10.1901 2.5327 10.7501 2.47574 11.3146C2.41878 11.8792 2.36774 12.4757 2.40374 13.2442C2.44014 14.019 2.50934 14.4942 2.56518 14.8341C2.66118 15.3985 2.90982 16.1833 2.90982 16.1833L2.9183 16.1529C2.8765 16.0209 2.84315 15.8819 2.81878 15.7382C2.78598 15.5238 2.77382 15.269 2.7435 15.1537C2.71678 15.0385 2.6719 14.9393 2.65006 14.7977C2.62942 14.6622 2.62606 14.4478 2.5627 14.2881C2.53598 14.2233 2.50318 14.0534 2.4935 13.8836C2.48134 13.6286 2.49958 13.3434 2.48502 13.1089C2.4583 12.7185 2.44014 12.4536 2.46438 12.2492C2.48862 12.0448 2.61494 11.4645 2.69262 11.0033C2.74358 10.708 2.71318 10.4592 2.80662 10.2022C2.90006 9.94744 2.95718 9.72291 2.97774 9.56718C3.00174 9.42558 2.73022 10.1901 2.73022 10.1901H2.73054Z" fill="#F2E8B0"/>
<path fill-rule="evenodd" clip-rule="evenodd" d="M3.66873 9.96558C3.66873 9.96558 3.56681 10.0162 3.51825 10.1052C3.46969 10.1901 3.44905 10.2609 3.38353 10.4045C3.31801 10.5481 3.31433 10.6654 3.26089 10.8454C3.20753 11.0214 3.08977 11.2864 3.07521 11.3814C3.06065 11.4765 3.03641 11.9214 3.00609 12.1318C2.97937 12.3422 3.03641 12.6012 3.03641 12.6012L3.10553 12.5768C3.10553 12.5768 3.10553 12.7265 3.17473 12.8277C3.24385 12.9268 3.25601 12.4918 3.25601 12.4918L3.51449 11.0376L3.90401 10.5966L3.94649 10.2406L3.66857 9.96558H3.66873Z" fill="#F5EEC0"/>
<path fill-rule="evenodd" clip-rule="evenodd" d="M3.85797 10.6251C3.85797 10.6251 3.67469 10.6452 3.58493 10.7545C3.54853 10.7989 3.53397 10.8353 3.49517 10.89C3.42357 10.9891 3.35069 11.0801 3.31557 11.21C3.27669 11.3393 3.23421 11.5356 3.20509 11.9057C3.19293 12.0615 3.19293 12.2051 3.18445 12.3305C3.17229 12.5004 3.15413 12.6359 3.16381 12.7305C3.17597 12.9247 3.29613 13.0259 3.30781 13.2463L3.55661 13.036L3.79085 11.4967L4.28845 10.9767L4.00685 10.4508L3.85765 10.6241L3.85797 10.6251Z" fill="#E6DB9D"/>
<path fill-rule="evenodd" clip-rule="evenodd" d="M2.54543 20.9905C2.54647 20.9753 2.54751 20.9601 2.54855 20.9445C2.58487 20.4245 2.59103 20.0304 2.61767 19.7836C2.65647 19.4337 2.68319 19.3036 2.67711 19.1727C2.66863 18.9624 2.65895 18.8087 2.67111 18.6468C2.68927 18.4324 2.81551 18.1776 2.81191 18.0016C2.80943 17.862 2.76695 17.7711 2.73055 17.6861C2.69415 17.6012 2.66503 17.5304 2.66503 17.5304C2.66503 17.5304 2.91383 17.2452 2.91143 16.0963C2.91651 16.0986 2.9214 16.102 2.92599 16.1064L3.04855 16.6868L3.13231 16.8567L3.45391 17.8559L3.86775 18.5255L4.47935 19.2111L4.86287 19.9067L4.90167 21.7615L4.40047 22.8456L4.31839 23.0933C3.66629 22.5477 3.06831 21.8385 2.54535 20.9904L2.54543 20.9905Z" fill="#E5CB7A"/>
<path fill-rule="evenodd" clip-rule="evenodd" d="M4.07648 22.7649C4.07648 22.7649 4.08496 22.5344 4.19904 22.3847C4.21728 22.4352 4.22936 22.4839 4.22576 22.5201C4.2464 22.4596 4.3908 22.0712 4.71728 21.97C5.04376 21.8709 5.12264 21.4745 5.12264 21.4745L5.81552 20.4248L6.608 19.2092L7.5716 18.6448L8.02192 18.4607C8.02192 18.4607 8.0304 18.5153 8.01344 18.6367C8.09712 18.6267 8.2828 18.5559 8.47576 18.4425C8.55344 18.392 8.62632 18.3717 8.66512 18.4385C8.72216 18.5275 8.73064 18.7379 8.73424 18.8632C8.82768 18.8288 8.93568 18.6792 9.02224 18.6933C9.16064 18.7176 9.2832 18.9887 9.424 18.9887C9.60968 18.9887 9.69336 18.7985 9.82328 18.6488C9.90096 18.5599 10.0126 18.4488 10.0757 18.3737C10.2262 18.1896 11.8184 17.3785 11.8184 17.3785L12.3766 17.4392L12.4665 18.4384L12.4185 21.0504C12.4126 21.0599 12.4066 21.0697 12.4006 21.0792L9.8624 23.2887L6.344 24.1876C5.55586 23.973 4.7953 23.537 4.09472 22.8981L4.07672 22.7648L4.07648 22.7649Z" fill="#D8C173"/>
<path fill-rule="evenodd" clip-rule="evenodd" d="M2.75879 21.3228C2.80879 21.1485 2.85375 21.0028 2.86167 20.9507C2.86791 21.0558 2.87935 21.2863 2.90239 21.5313C2.85402 21.4628 2.80615 21.3933 2.75879 21.3227V21.3228Z" fill="#F1D789"/>
<path fill-rule="evenodd" clip-rule="evenodd" d="M5.32899 23.7809L5.78403 23.57L5.82283 23.5902C5.82283 23.5902 5.84347 23.6105 5.84347 23.6792C5.90051 23.6246 5.94907 23.6346 5.98427 23.5984C6.00243 23.663 6.02059 23.8774 6.10075 23.9037C6.18443 23.9341 6.27427 23.843 6.36531 23.7278C6.45507 23.6085 6.55731 23.4588 6.63467 23.3981C6.66305 23.4851 6.68819 23.5749 6.70995 23.667C6.81187 23.5316 6.98907 22.9814 7.24147 22.9914C7.31442 22.7041 7.4363 22.4587 7.59203 22.2856C7.82627 22.0206 7.97307 22.0004 8.15635 22.0246C8.22915 21.867 8.31885 21.7333 8.42091 21.6302C8.45123 21.6505 8.53499 21.7354 8.63939 21.6545C8.74499 21.5737 8.86387 21.2601 9.02043 21.2197C9.1048 21.2004 9.19058 21.2304 9.26315 21.3046C9.26315 21.3046 9.71915 20.5501 10.0338 20.2993C10.0216 20.2386 9.99739 20.0101 10.3663 19.5044C10.3869 19.5348 10.3724 19.6197 10.3869 19.6244C10.3929 19.6244 10.4829 19.5597 10.5968 19.414C10.7376 19.2381 10.9063 19.054 11.0082 19.0034C11.2002 18.9084 11.4039 19.1025 11.4039 19.1025C11.4212 19.0823 11.4405 19.0672 11.4609 19.058C11.5094 19.0438 11.5446 19.0337 11.5713 19.018C11.5689 19.1232 11.6041 19.3032 11.5713 19.4589C11.6093 19.4945 11.6496 19.523 11.6913 19.5438C11.6708 19.6186 11.6258 19.8088 11.5506 19.8998C11.6136 19.9504 11.6221 20.009 11.712 20.0598C11.6756 20.1448 11.616 20.2905 11.5894 20.3798C11.5627 20.4749 11.4668 20.8693 11.4243 21.0189C11.3794 21.1686 11.3188 21.4437 11.2896 21.4989C11.2604 21.5541 11.1548 21.7881 11.0736 21.9033C11.1456 21.8588 11.4401 21.7092 11.5651 21.6525C11.5279 21.7434 11.3393 22.2097 11.158 22.6581C10.2901 23.5252 9.3212 24.074 8.31598 24.2679C7.31077 24.4619 6.29229 24.2965 5.32843 23.7829L5.32899 23.7809Z" fill="#E0CD81"/>
<path fill-rule="evenodd" clip-rule="evenodd" d="M3.88801 10.5704C3.88801 10.5704 3.78249 10.5704 3.76185 10.5947C3.74121 10.6189 3.86745 10.6696 3.90625 10.6939C3.94505 10.7181 4.02881 10.8293 4.05065 10.9184C4.07129 11.0033 4.80913 11.4988 4.80913 11.4988L5.33097 11.4543L5.51089 11.04L5.16865 10.5404L5.40865 9.36121L5.09073 9.44614L4.32617 10.2061L3.94265 10.4509L3.88801 10.5704Z" fill="#DFC57C"/>
<path fill-rule="evenodd" clip-rule="evenodd" d="M5.03401 10.9608C5.04155 10.9812 5.05218 10.9979 5.06482 11.0092C5.07745 11.0206 5.09166 11.0262 5.10601 11.0255C5.21401 11.0255 5.31345 11.07 5.35473 11.161C5.42393 11.3067 5.61569 11.7719 5.61569 11.7719L6.07441 12.047L6.10401 11.1467L5.60281 10.5663L5.03241 10.9162V10.9607H5.03369L5.03401 10.9608Z" fill="#E5CC7C"/>
<path fill-rule="evenodd" clip-rule="evenodd" d="M4.94401 11.2945C4.94401 11.2945 5.02769 11.3047 5.13329 11.2399C5.23889 11.1751 5.41241 11.0356 5.48769 11.0903C5.59321 11.1651 5.57137 11.3997 5.68553 11.6103C5.75465 11.7397 5.88089 11.7357 5.95249 11.8753C6.02409 12.0149 6.27041 11.9501 6.27041 11.9501L6.36385 12.7901L5.98889 13.5912L5.86625 14.5863H5.35921L4.89601 14.28L4.66785 13.36L4.78193 12.4296L4.94401 11.2945Z" fill="#D2C281"/>
<path fill-rule="evenodd" clip-rule="evenodd" d="M5.92478 11.3349C5.93735 11.3414 5.95042 11.3448 5.96358 11.3451C5.94902 11.3653 5.91862 11.4097 5.93078 11.5251C5.94294 11.6404 5.98174 11.786 5.94902 11.8749C5.97514 11.9225 5.99462 11.9792 6.00606 12.0408C6.0267 12.14 6.03278 12.2309 6.16742 12.2452C6.14799 12.2651 6.13007 12.2889 6.11406 12.316C6.11406 12.316 6.2075 12.4515 6.25486 12.5768C6.30334 12.5733 6.43198 12.5067 6.43198 12.5067L6.4587 12.5371L6.51574 12.4971C6.51574 12.4971 6.46238 12.4627 6.50118 12.2463C6.53758 12.0561 6.57038 12.0663 6.57318 12.0521C6.57598 12.038 6.5999 11.8377 6.5999 11.7568C6.61806 11.6517 6.63262 11.3321 6.63262 11.3321L6.59382 10.6263L6.37542 10.4057L6.19782 10.12L6.0303 10.6459L5.91998 10.8292L5.9115 11.2843L5.92478 11.3349Z" fill="#E2C270"/>
<path fill-rule="evenodd" clip-rule="evenodd" d="M6.45026 10.7444C6.45026 10.7444 6.48906 10.9284 6.5037 11.07C6.50886 11.0425 6.51171 11.0139 6.51218 10.9851C6.51218 10.9851 6.5425 11.2643 6.5485 11.3796C6.56066 11.3755 6.5725 11.3695 6.57522 11.3896C6.57794 11.4097 6.60562 11.6344 6.59922 11.7597C6.64975 11.6208 6.71968 11.5042 6.80306 11.42C6.85162 11.3693 6.90866 11.3148 6.96818 11.3107C7.06162 11.3067 7.12954 11.4099 7.24122 11.4099C7.51058 11.4099 7.75458 11.0801 7.93418 10.9791C8.06642 10.9041 8.1805 10.8496 8.26058 10.7281C8.29946 10.6736 8.36866 10.5523 8.4317 10.3721C8.51546 10.1321 8.60282 9.92319 8.69026 9.89692C8.65069 9.90904 8.61045 9.91378 8.57026 9.91105C8.57026 9.91105 8.59698 9.86652 8.64226 9.80585C8.68754 9.74519 8.74178 9.67039 8.81938 9.67039C8.95778 9.67039 9.0269 9.70465 9.10458 9.70465C9.18226 9.70065 9.22714 9.67039 9.22714 9.67039C9.22714 9.67039 9.3085 9.76545 9.4917 9.76545C9.67498 9.76945 9.79754 9.79572 9.89346 9.80999C9.98938 9.82425 10.3109 9.76545 10.4031 9.76999C10.4633 9.77385 10.5223 9.79793 10.5767 9.84079L10.2794 8.40079L9.21122 6.84479L8.5753 7.59519L7.59706 9.22545L6.6505 9.80999L6.45266 10.1801V10.7444H6.45026Z" fill="#CCB360"/>
<path fill-rule="evenodd" clip-rule="evenodd" d="M8.57407 9.91908C8.57407 9.91908 8.60079 9.87468 8.64559 9.81401C8.69039 9.75334 8.74519 9.67841 8.82279 9.67841C8.96111 9.67841 9.03031 9.71281 9.10799 9.71281C9.18567 9.70881 9.23055 9.67841 9.23055 9.67841C9.23055 9.67841 9.31199 9.77334 9.49511 9.77334C9.67839 9.77734 9.80095 9.80361 9.89687 9.81774C9.99279 9.83188 10.3143 9.77334 10.4065 9.77774C10.4667 9.78152 10.5257 9.8056 10.5801 9.84854L10.4453 9.19921L10.2889 8.70374L9.84223 7.88854C9.84223 7.88854 9.30623 7.36268 9.30215 7.35868C9.29975 7.35468 9.11647 7.27374 9.11647 7.27374L8.63103 7.76321L8.19055 9.66254L8.18207 10.0625L8.46719 10.2871C8.53879 10.0871 8.61775 9.92708 8.69175 9.90681C8.62495 9.91894 8.57399 9.91894 8.57399 9.91894L8.57407 9.91908Z" fill="#D5B457"/>
<path fill-rule="evenodd" clip-rule="evenodd" d="M8.56798 10.0546C8.5255 10.0586 8.49038 10.0445 8.48062 9.99397C8.44422 9.8241 8.4151 9.79984 8.38462 9.79984C8.35414 9.79984 8.31302 9.90904 8.28862 9.91904C8.26422 9.92904 8.23526 9.7937 8.23526 9.7937L8.20854 9.77344C8.20854 9.77344 8.05198 9.9433 7.94158 10.1436C7.83118 10.3438 7.6503 10.6837 7.56902 10.7442C7.48774 10.8048 7.20854 10.8252 7.11302 10.8596C7.0175 10.894 6.91158 11.0093 6.89702 11.0356C6.88246 11.0618 6.93958 11.0901 6.94806 11.1164C6.95654 11.1406 6.85454 11.1305 6.84606 11.1564C6.84006 11.1766 6.87006 11.2918 6.88494 11.3505C6.91098 11.3289 6.93955 11.3172 6.96862 11.3161C7.06206 11.3121 7.13006 11.4153 7.24166 11.4153C7.5111 11.4153 7.75502 11.0856 7.93462 10.9844C8.06694 10.9096 8.18102 10.8549 8.2611 10.7336C8.2999 10.679 8.3691 10.5576 8.43222 10.3776C8.4783 10.2542 8.52326 10.1389 8.56822 10.054L8.56798 10.0546Z" fill="#D2B257"/>
<path fill-rule="evenodd" clip-rule="evenodd" d="M4.70402 20.0648C4.70402 20.0648 4.68002 19.9151 4.45762 19.5288C4.3945 19.4196 4.3557 19.3288 4.31322 19.2639C4.20762 19.0979 4.1457 19.0535 4.0705 18.9584C3.90546 18.7541 3.72586 18.7541 3.58754 18.5033C3.44922 18.2525 3.28802 17.7733 3.17602 17.2836C3.06562 16.7941 3.03522 16.6384 3.03522 16.6243C3.03522 16.6101 3.06562 16.5151 3.10442 16.5292C3.14322 16.5433 3.14322 16.6687 3.15298 16.6991C3.17231 16.7487 3.19423 16.7954 3.2185 16.8385C3.27554 16.9479 3.35682 17.0785 3.3981 17.2735C3.38962 17.1076 3.35562 16.9236 3.35562 16.9236C3.35562 16.9236 3.56922 17.1481 3.75122 17.3827C3.9345 17.6173 4.0097 17.6983 4.06322 17.8479C4.11674 17.9975 4.24282 18.392 4.30322 18.5073C4.36362 18.6227 5.19122 19.0575 5.19122 19.0575L5.5849 19.5467L5.78034 20.2607L5.62738 20.6607L5.3337 20.7659L4.85674 20.4099L4.70402 20.0647V20.0648Z" fill="#D2B159"/>
<path fill-rule="evenodd" clip-rule="evenodd" d="M3.64441 17.6052C3.64441 17.6052 3.74393 17.8702 3.98665 18.121C4.20513 18.3415 4.55097 18.5418 4.85929 18.6611C5.03641 18.7319 5.21361 18.7864 5.37257 18.7906C5.80097 18.8006 6.09585 18.5964 6.46121 18.5296C6.65905 18.4952 6.90177 18.469 7.15417 18.3696C7.47817 18.2402 7.66993 18.0944 7.93089 17.8896C8.12017 17.744 8.29377 17.6348 8.43449 17.4952C8.63233 17.3011 8.77673 17.0847 8.94425 17.02C8.92361 17.1151 8.90177 17.285 8.73673 17.461C8.82409 17.4568 8.94425 17.4468 8.94425 17.4468C8.94425 17.4468 8.82777 17.562 8.62265 17.821C8.49641 17.981 8.32897 18.2518 8.15785 18.4318C8.04737 18.5471 7.92721 18.6318 7.84833 18.7008C7.65633 18.8768 7.57889 18.9658 7.45273 19.1808C7.49761 19.1768 7.50129 19.1808 7.50129 19.1808C7.50129 19.1808 7.34225 19.2152 7.22825 19.3163C7.20425 19.3163 7.16265 19.3022 7.08985 19.3366C7.03281 19.3668 6.95753 19.4358 6.87993 19.472C6.76945 19.5267 6.73313 19.5024 6.73313 19.5024L6.75129 19.5631C6.75129 19.5631 6.60729 19.559 6.55929 19.5671C6.56777 19.5711 6.56537 19.5772 6.56537 19.5772C6.55694 19.5796 6.54882 19.5844 6.54137 19.5914C6.51827 19.6163 6.49286 19.6347 6.46617 19.6459C6.45161 19.6499 6.43945 19.6499 6.42121 19.656C6.42729 19.6803 6.47465 19.816 6.49649 19.896C6.47833 19.9163 6.20521 20.2602 6.20521 20.2602C6.21368 20.2824 6.2206 20.3061 6.22585 20.331C6.23433 20.3754 6.23801 20.4402 6.24649 20.4704C6.26705 20.5311 6.27921 20.5412 6.27921 20.5412C6.27921 20.5412 6.24649 20.5514 6.18937 20.5756C6.14089 20.5959 6.08137 20.6302 5.99737 20.6504C5.9716 20.656 5.94567 20.6594 5.91969 20.6606C5.93185 20.7051 5.98521 20.875 5.88689 21.0711C5.78857 21.2672 5.75825 21.2958 5.72793 21.4211C5.71267 21.4019 5.69642 21.3849 5.67937 21.3704C5.64665 21.3462 5.60169 21.3099 5.58593 21.2612C5.57674 21.3261 5.56457 21.3896 5.54953 21.4514C5.51921 21.5868 5.47433 21.7204 5.46585 21.8215C5.43305 21.7608 5.37241 21.6415 5.28865 21.6658C5.20489 21.69 5.13817 21.8802 5.12361 21.9348C5.12361 21.9004 5.10905 21.8742 5.10545 21.9146C5.10297 21.9591 5.05689 22.4242 4.79961 22.8004C4.79721 22.7054 4.79721 22.495 4.79113 22.4263C4.76713 22.4663 4.73777 22.5254 4.56297 22.6508C4.39185 22.7762 4.41897 22.9016 4.41897 22.9016C4.41897 22.9016 4.40441 22.7016 4.49665 22.491C4.59009 22.2807 4.64713 22.1815 4.64713 22.1654C4.64562 22.1489 4.64141 22.1335 4.63497 22.1208C4.62281 22.1006 4.59857 22.0763 4.59857 22.0602C4.61313 22.0502 4.75753 21.9348 4.74905 21.696C4.74057 21.4818 4.68601 21.3704 4.64713 21.2916C4.64113 21.2815 4.70425 21.2067 4.69569 21.1824C4.68961 21.1683 4.61201 21.0731 4.60225 21.0224C4.60454 20.9922 4.60862 20.9624 4.61441 20.9335C4.62289 20.889 4.62897 20.8586 4.62657 20.8283C4.62049 20.7778 4.58769 20.6382 4.57801 20.624C4.58649 20.628 4.64713 20.624 4.64713 20.624C4.64713 20.624 4.59865 20.4946 4.59009 20.4339C4.58153 20.3732 4.56337 20.2134 4.55369 20.1831C4.57433 20.1871 4.62529 20.1931 4.62529 20.1831C4.62777 20.1527 4.58041 20.1022 4.60129 20.0631C4.61585 20.0671 4.64377 20.0874 4.67041 20.144C4.65585 20.0792 4.63161 19.9539 4.58057 19.9034C4.60457 19.8892 4.68617 19.8527 4.75777 19.9235C4.82937 19.9943 4.85377 20.0934 4.85377 20.0934C4.85377 20.0934 4.89625 20.148 4.96185 20.229C5.03705 20.328 5.13289 20.469 5.28585 20.5687C5.31865 20.5991 5.40233 20.5991 5.46305 20.5788C5.48949 20.5683 5.51484 20.5513 5.53825 20.5283C5.5467 20.52 5.55566 20.5132 5.56497 20.508C5.55192 20.4644 5.53692 20.4224 5.52009 20.3826C5.54073 20.3826 5.56497 20.3867 5.56497 20.3867C5.56497 20.3867 5.57953 20.332 5.51401 20.2267C5.52857 20.2024 5.54681 20.1867 5.54681 20.1458C5.52617 20.1418 5.48977 20.0912 5.48129 20.071C5.49337 20.0568 5.51161 20.0103 5.53225 19.9962C5.51401 19.9719 5.46913 19.8707 5.44849 19.8607C5.46821 19.8485 5.48729 19.8336 5.50553 19.8162C5.50553 19.8162 5.40361 19.7716 5.37081 19.7352C5.33801 19.6952 5.28953 19.626 5.26041 19.6058C5.23001 19.5855 5.17665 19.5755 5.15481 19.535C5.17537 19.5451 5.20817 19.535 5.23249 19.535C5.25065 19.535 5.25921 19.539 5.26521 19.539C5.26281 19.5248 5.26281 19.4944 5.31017 19.4844C5.33295 19.4787 5.35505 19.4671 5.37569 19.45C5.37569 19.45 5.33073 19.446 5.27969 19.3651C5.22865 19.2842 5.18625 19.2195 5.15713 19.2094C5.12681 19.1992 5.06977 19.2438 5.03457 19.2396C4.98601 19.2296 4.96537 19.1891 4.96537 19.1891C4.96537 19.1891 4.80401 19.2134 4.44601 18.8494C4.13649 18.5338 4.00177 18.2547 4.00177 18.2547C3.9728 18.2372 3.9448 18.2155 3.91809 18.1899C3.80161 18.0888 3.64017 17.8784 3.64505 17.6032L3.64441 17.6052Z" fill="#C2A44D"/>
<path fill-rule="evenodd" clip-rule="evenodd" d="M8.10921 5.46523C8.13729 5.48043 8.16224 5.50847 8.18121 5.54616C8.23825 5.65536 8.27465 5.86163 8.14481 6.08216C8.19577 6.11243 8.21681 6.12216 8.26129 6.11243C8.21641 6.2015 8.11449 6.39163 8.10841 6.5575C8.10233 6.69296 8.15329 6.7335 8.15329 6.7335C8.15329 6.7335 8.07561 6.8831 8.07201 7.1335C8.1087 7.06455 8.14884 7.00094 8.19201 6.94336C8.28185 6.82403 8.40561 6.68856 8.48937 6.60363C8.48823 6.63923 8.49111 6.67486 8.49785 6.7087C8.49785 6.7087 8.65433 6.4943 8.78585 6.5895C8.84529 6.63403 8.81857 6.7735 8.81857 6.7735C8.81857 6.7735 8.89993 6.72296 8.95697 6.81803C9.01401 6.9131 9.09465 7.1583 9.13601 7.25336C9.15417 7.2979 9.20153 7.38283 9.25001 7.5143C9.31624 7.69835 9.37155 7.89274 9.41513 8.0947C9.41753 7.9895 9.43329 7.82576 9.61297 7.92883C9.79257 8.03403 9.99641 8.25456 10.1675 8.68883C10.3387 9.1231 10.3811 9.61336 10.4672 9.80003C10.5546 9.98003 10.6444 10.2794 10.6505 10.4048C10.6566 10.5303 10.6238 10.9347 10.8034 12.029C10.8543 11.6892 10.932 10.9347 10.932 10.9347L10.9745 10.2692L11.0231 8.21016L9.73297 6.4239L8.72449 5.20416L8.06793 5.30936L8.10913 5.4651L8.10921 5.46523Z" fill="#CAA13E"/>
<path fill-rule="evenodd" clip-rule="evenodd" d="M10.5061 8.52945C10.5061 8.52945 10.4878 8.32945 10.1845 7.98945C9.88105 7.65372 9.64441 7.65372 9.42601 7.36852C9.25849 7.14398 9.08377 6.62811 8.97001 6.45825C8.85953 6.29038 8.84137 5.80492 8.84137 5.80492L9.21393 5.28492L9.76801 3.95012L10.2364 3.09052L10.4609 3.61052L10.7729 4.22132L10.9464 5.44705L11.0095 7.24118L10.5055 8.52958L10.5061 8.52945Z" fill="#B59544"/>
<path fill-rule="evenodd" clip-rule="evenodd" d="M10.8811 10.68C10.8903 10.4079 10.8702 10.1353 10.8216 9.87504C10.7416 9.46038 10.5668 8.72411 10.4856 8.44838C10.4528 8.14291 10.4771 8.11864 10.5123 8.08424C10.5475 8.04984 10.6799 7.92424 10.7523 7.48358C10.8248 7.04291 11.0497 7.02851 11.0497 7.02851L11.188 6.85864L11.398 7.73438L11.5812 8.52531L11.6383 9.13011L11.6807 9.64584L11.5812 10.7361L11.0898 11.4764L10.8811 10.68H10.8811Z" fill="#C89D3A"/>
<path fill-rule="evenodd" clip-rule="evenodd" d="M4.02313 22.8319V22.8095C4.03334 22.7988 4.04236 22.7853 4.04977 22.7695C4.05825 22.7492 4.06441 22.7249 4.07041 22.7189C4.08257 22.7088 4.13961 22.6789 4.16993 22.6885C4.20025 22.6981 4.28041 22.7532 4.32289 22.7492C4.41025 22.7452 4.51217 22.6339 4.67361 22.6845C4.91633 22.7593 4.97337 23.0344 5.11417 23.1901C5.21017 23.2995 5.30953 23.2508 5.32409 23.2508H5.35681C5.36289 23.2508 5.40777 23.1659 5.43209 23.17C5.48065 23.174 5.48545 23.2408 5.51577 23.2448C5.58737 23.2589 5.72577 23.1841 5.79497 23.2145C5.81549 23.2252 5.83415 23.2441 5.84936 23.2694C5.86457 23.2947 5.87589 23.3258 5.88233 23.36C5.89689 23.4348 5.88473 23.5299 5.84953 23.5845C5.77433 23.6997 5.70273 23.8091 5.68817 23.9045C5.70669 23.9281 5.72447 23.9532 5.74145 23.9797C5.14099 23.7247 4.56326 23.3392 4.02313 22.8331V22.8319Z" fill="#CEB052"/>
<path fill-rule="evenodd" clip-rule="evenodd" d="M10.4854 18.7905C10.4854 18.7905 10.6747 18.3698 10.7403 18.1614C10.8058 17.9466 10.5328 15.2266 10.5328 15.2266L11.0813 12.2312L11.0667 11.2562C11.0667 11.2562 11.0934 10.3561 11.1565 9.9657C11.2318 10.1902 11.4661 10.4613 11.517 10.6049C11.541 10.3297 11.6225 9.7493 11.6105 9.13037C11.6553 9.24557 11.7633 10.4046 11.7633 10.4046L11.8713 11.1853L12.0121 12.0146L12.1687 12.8905L12.2621 13.4953L12.3155 13.6409L12.3605 13.8957L12.4029 14.1709L12.5255 14.8161L12.5975 15.346L12.6545 16.3068C12.6669 16.3803 12.6759 16.4554 12.6813 16.5313C12.6837 16.6365 12.6728 16.6972 12.6728 16.7154C12.6728 16.7337 12.6934 16.946 12.6849 17.1058C12.6728 17.2658 12.6728 17.391 12.5975 17.5058C12.5222 17.6206 12.4749 18.3068 12.4749 18.3068L12.3402 18.1572C12.3402 18.1572 12.3669 17.9528 12.3038 17.7668C12.2407 17.5808 12.1181 17.5422 12.0489 17.5726C11.9798 17.5969 11.8415 17.6332 11.7965 17.698C11.7541 17.7626 11.6497 17.9629 11.5538 18.054C11.4338 18.174 11.2383 18.1834 11.134 18.2238C11.0284 18.2638 10.9119 18.3838 10.7893 18.5232C10.6931 18.6269 10.5916 18.7162 10.4859 18.7898L10.4854 18.7905Z" fill="#CCA847"/>
<path fill-rule="evenodd" clip-rule="evenodd" d="M10.4854 23.21C10.4854 23.21 10.4934 23.2187 10.5089 23.2328C11.3711 22.5595 12.1436 21.6052 12.7809 20.4261C12.7739 20.0168 12.7649 19.5972 12.7549 19.4417C12.7344 19.112 12.7489 18.7763 12.7429 18.5821C12.7368 18.388 12.6713 17.5971 12.6409 17.3928C12.6081 17.1885 12.5449 17.0873 12.5353 17.0873C12.5269 17.0915 12.4758 17.4717 12.4758 17.5673C12.4758 17.6629 12.4637 17.8931 12.4637 17.9517C12.4552 17.9476 12.4516 17.9117 12.4516 17.8971C12.4394 17.9476 12.4249 18.0367 12.4188 18.0468C12.4127 18.0569 12.4273 17.9619 12.4188 17.9416C12.4103 17.9213 12.3948 17.9315 12.3981 17.8809C12.3996 17.851 12.4024 17.8212 12.4066 17.792C12.4066 17.792 12.3702 17.8809 12.3436 18.1075C12.3169 18.332 12.3169 18.3381 12.3072 18.3583C12.2987 18.3827 12.2501 18.4635 12.2477 18.4939C12.2453 18.5484 12.2926 18.6031 12.2962 18.6333C12.2986 18.684 12.2537 18.9185 12.2392 19.0333C12.2246 19.1481 12.2307 19.3731 12.2152 19.4884C12.203 19.5936 12.1912 19.6543 12.1497 19.6987C12.18 19.7088 12.2091 19.7229 12.2091 19.7229C12.2091 19.7229 12.2516 20.0223 12.1436 20.2772C12.1048 20.3661 12.0951 20.4067 12.0538 20.4876C11.9725 20.6372 11.9093 20.8076 11.9033 20.9184C11.8991 20.8857 11.8962 20.8526 11.8948 20.8192C11.8948 20.8192 11.7686 21.064 11.7152 21.2036C11.6461 21.3836 11.5501 21.3735 11.5232 21.418C11.4962 21.4625 11.4904 21.5433 11.4992 21.6081C11.4752 21.6181 11.4301 21.6324 11.3997 21.7881C11.3851 21.8689 11.3487 21.9481 11.2917 22.0025C11.2346 22.0569 11.1654 22.0733 11.1302 22.0875C11.1605 22.1016 11.1727 22.1016 11.1873 22.1177C11.1691 22.1683 11.0853 22.2472 10.9919 22.3484C10.8985 22.4435 10.8535 22.5829 10.8305 22.674C10.8065 22.7589 10.771 22.8136 10.714 22.8237C10.738 22.848 10.7735 22.9045 10.7917 22.9228C10.7649 22.9329 10.7197 22.9329 10.6388 23.0483C10.5538 23.1656 10.5247 23.2 10.4858 23.2101L10.4854 23.21Z" fill="#C39D3C"/>
<path fill-rule="evenodd" clip-rule="evenodd" d="M8.79679 24.1473C8.84326 24.093 8.89359 24.0486 8.94663 24.0149C9.13591 23.8896 9.33615 23.8653 9.41503 23.8249C9.49031 23.7849 9.54975 23.7297 9.64319 23.6995C9.64071 23.7349 9.63863 23.7683 9.63639 23.7997C9.36091 23.9441 9.08038 24.0602 8.79639 24.1473H8.79679Z" fill="#D2BA6B"/>
<path fill-rule="evenodd" clip-rule="evenodd" d="M12.288 15.8496C12.288 15.8496 12.2492 16.1995 12.18 16.42C12.1108 16.6405 12.036 16.9459 12.036 16.9459C12.0364 16.8771 12.0413 16.8085 12.0505 16.7415C11.9632 16.8264 11.7508 17.0308 11.6905 17.1217C11.6335 17.2067 11.5376 17.3564 11.5133 17.4272C11.5704 17.1481 11.6298 16.8973 11.6396 16.782C11.5522 16.8872 11.1444 17.4475 10.9321 17.8176L10.2706 18.7096C10.1943 18.7782 10.1157 18.8396 10.0352 18.8933C9.92118 18.9741 9.78646 19.0429 9.68694 19.1077C9.71366 18.9884 9.75605 18.8831 9.81557 18.782C9.87869 18.6829 10.068 18.3411 10.0971 18.182C10.1238 18.0161 10.1299 17.9171 10.0947 17.7775C10.0619 17.7916 9.98669 17.7977 9.93573 17.822C9.88477 17.8463 9.83014 17.9372 9.83014 17.9372C9.83014 17.9372 9.86893 17.5671 9.95269 17.2172C9.88957 17.2212 9.78157 17.2515 9.78157 17.2515C9.78157 17.2515 9.93205 16.8308 10.1896 16.5376C10.1107 16.5656 10.0335 16.6055 9.95902 16.6568C9.80854 16.762 9.6435 16.9177 9.52094 17.0027C9.59006 16.8427 10.0755 15.688 10.3644 14.6119C10.6524 13.5379 10.76 13.2628 10.8231 12.6864C10.8558 12.4012 10.8471 11.9797 10.8558 11.6023C10.8643 11.228 10.8922 10.8923 10.8741 10.6677C10.9493 10.8235 11.2309 11.2624 11.2405 12.2435C11.249 13.2244 10.9712 14.5493 10.6762 15.2632C10.7482 15.2976 10.9348 15.3381 11.1265 14.7832C11.3181 14.2283 11.3158 14.0733 11.385 13.8427C11.3935 13.958 11.391 13.9984 11.391 13.9984C11.391 13.9984 11.6702 13.4341 11.8025 12.7241C11.8292 13.0296 11.9081 13.2987 11.7842 13.8589C11.6738 14.3645 11.5294 14.488 11.5294 14.488C11.5294 14.488 11.601 14.4677 11.7065 14.3625C11.7248 14.4373 11.7212 14.5225 11.7515 14.5527C11.7818 14.5828 11.8231 14.6336 11.8292 14.6821C11.8619 14.6012 11.9129 14.498 11.9287 14.4212C11.9165 14.5812 11.9081 15.2808 11.9527 15.6368C12.0462 15.6227 12.1421 15.6125 12.2076 15.3313C12.1627 15.6065 12.1627 15.7723 12.193 16.0069C12.2428 15.9504 12.2877 15.8492 12.2877 15.8492L12.288 15.8496Z" fill="#C0993A"/>
<path fill-rule="evenodd" clip-rule="evenodd" d="M9.13473 4.70066C9.13473 4.70066 9.04129 4.76532 8.88233 4.76532C8.74401 4.76532 8.78281 4.67639 8.56681 4.67639C8.23433 4.67639 7.07289 4.99639 6.86897 4.99186C6.73665 4.98786 7.31553 5.08692 7.31553 5.08692L8.79497 5.12132L9.09225 5.08132L9.20273 4.70666L9.13473 4.70066Z" fill="#A88F33"/>
<path fill-rule="evenodd" clip-rule="evenodd" d="M5.29853 9.52065C5.29853 9.52065 5.10917 9.76132 5.02909 9.94545C4.94901 10.1296 4.90653 10.2508 4.81549 10.4005C4.83686 10.4019 4.85821 10.3971 4.87861 10.3864C4.87861 10.3864 4.87861 10.4264 4.86405 10.4369C4.87663 10.4346 4.88937 10.4369 4.90133 10.4439C4.91329 10.4508 4.92417 10.4621 4.93317 10.4769C4.90645 10.5012 4.83365 10.6226 4.89069 10.7662C4.93317 10.8754 5.02301 10.8854 5.02301 10.8854C5.02301 10.8854 5.00237 10.9847 5.08853 10.9745C5.27421 10.9604 5.48173 10.8248 5.57757 10.8592C5.67357 10.8992 5.72813 10.9139 5.79605 11.1101C5.86805 11.3043 5.93077 11.3346 5.93077 11.3346C5.93077 11.3346 5.97325 11.1545 5.96357 10.8856C5.9984 10.7406 6.01771 10.5866 6.02061 10.4305L5.95749 9.65585L5.68205 9.07532L5.32525 9.40505L5.29853 9.52025V9.52065Z" fill="#E3C571"/>
<path fill-rule="evenodd" clip-rule="evenodd" d="M5.63715 9.40533C5.63715 9.40533 5.66387 9.51052 5.77555 9.52052C5.76339 9.56506 5.76339 9.57119 5.76707 9.60546C5.76947 9.63986 5.77307 9.69039 5.77307 9.69039C5.78536 9.68048 5.79647 9.66692 5.80587 9.65039C5.81195 9.69493 5.79979 9.76559 5.80587 9.81626C5.80962 9.84707 5.81572 9.87696 5.82403 9.90519C5.8258 9.89827 5.82783 9.89155 5.83011 9.88506C5.83251 9.87493 5.85411 9.99426 5.91387 10.0851C5.91381 10.0711 5.91588 10.0573 5.91987 10.0451C5.92078 10.0704 5.92581 10.0949 5.93443 10.1159C5.92995 10.1123 5.92587 10.1075 5.92235 10.1017C5.92235 10.1017 5.92835 10.4217 5.96115 10.5872C5.96663 10.5765 5.9715 10.565 5.97571 10.5528C5.97571 10.5428 5.97331 10.6419 5.96723 10.7128C5.95875 10.7836 5.96483 10.8827 5.96483 10.8827C5.98671 10.8539 6.01075 10.8301 6.03635 10.8119C6.07275 10.7875 6.13235 10.7127 6.16867 10.5468C6.18974 10.4529 6.20598 10.3561 6.21723 10.2576C6.22896 10.2952 6.23706 10.3357 6.24123 10.3776C6.24371 10.4281 6.30075 10.4019 6.30075 10.4019L6.31291 10.1813L6.38491 9.68173L6.45043 9.37226L6.76595 8.55319L7.33603 7.82146L7.83363 8.01159L8.25347 7.06093L7.53019 6.33679L6.84571 6.45613L6.22451 7.89013L5.72699 9.19079L5.63715 9.40519V9.40533Z" fill="#D8B65B"/>
<path fill-rule="evenodd" clip-rule="evenodd" d="M9.22207 7.33013C9.22207 7.33013 9.17959 7.34427 9.05703 7.45013C8.93447 7.556 8.84951 7.5896 8.80215 7.74533C8.75479 7.90107 8.75119 8.02453 8.75119 8.02453C8.75119 8.02453 8.83495 7.96387 8.88351 7.9436C8.93447 7.92347 8.99151 7.92947 8.98543 7.96387C8.97959 7.98745 8.97149 8.0093 8.96143 8.02853C8.96143 8.02853 9.05743 8.02453 9.05487 8.10347C9.05231 8.1824 9.03671 8.26933 9.01855 8.30773C9.00031 8.34773 8.92511 8.40693 8.91663 8.45347C8.89599 8.54853 8.92511 8.55253 8.91415 8.62933C8.90567 8.70427 8.86567 8.84987 8.73455 9.10467C8.59983 9.3596 8.54255 9.5396 8.54255 9.5396C8.54255 9.5396 8.47703 9.33533 8.44303 9.15933C8.41903 9.17947 8.29015 9.2988 8.29015 9.2988L7.99159 7.56547L7.99759 7.45013C7.99759 7.45013 8.02431 7.3956 8.03039 7.2944C7.98551 7.27013 7.97943 7.24987 7.91991 7.15493C7.86039 7.06 7.81191 6.94453 7.71247 6.8656C7.69791 6.82107 7.67967 6.76053 7.60687 6.73613C7.53407 6.71173 7.49039 6.69173 7.49039 6.69173C7.49039 6.69173 7.52919 6.66733 7.54743 6.6168C7.50247 6.62693 7.46615 6.6512 7.36783 6.6472C7.26831 6.64307 7.25735 6.63707 7.20279 6.6512C7.14823 6.66533 7.08279 6.70587 7.05839 6.56627C7.03167 6.53187 6.97463 6.56227 6.92607 6.68147C6.87751 6.80067 6.86055 6.89587 6.76711 6.9424C6.76054 7.01105 6.74612 7.07695 6.72463 7.13653C6.69791 7.21147 6.65543 7.28627 6.59839 7.39747C6.50855 7.57347 6.52311 7.86267 6.37991 8.0832C6.23551 8.3036 6.40391 7.47227 6.40391 7.47227L6.63447 6.55227L7.29103 5.48227L8.31047 5.36707L8.40999 6.24707L8.90759 6.53227L9.22191 7.3312L9.22207 7.33013Z" fill="#D3AE4D"/>
<path fill-rule="evenodd" clip-rule="evenodd" d="M9.38354 7.52424L8.95514 6.49477L8.65538 6.11037C8.65538 6.11037 8.44178 5.45517 8.42722 5.43491C8.41506 5.42077 8.21362 5.38437 8.08498 5.37024L8.10898 5.46931C8.13705 5.48451 8.162 5.51255 8.18098 5.55024C8.23802 5.65944 8.27442 5.86571 8.14458 6.08624C8.19554 6.11651 8.21658 6.12624 8.26106 6.11651C8.21618 6.20557 8.11426 6.39571 8.10818 6.56157C8.1021 6.69704 8.15306 6.73744 8.15306 6.73744C8.15306 6.73744 8.07538 6.88717 8.07178 7.13744C8.10846 7.06849 8.14861 7.00488 8.19178 6.94731C8.28162 6.82731 8.40538 6.69237 8.48914 6.60744C8.488 6.64308 8.49087 6.67876 8.49762 6.71264C8.49762 6.71264 8.6541 6.49824 8.78562 6.59331C8.84506 6.63784 8.81834 6.77744 8.81834 6.77744C8.81834 6.77744 8.8997 6.72691 8.95674 6.82197C9.01378 6.91704 9.09506 7.16171 9.13634 7.25691C9.1545 7.30144 9.20186 7.38637 9.25034 7.51771C9.31658 7.7018 9.37189 7.89623 9.41546 8.09824C9.41786 8.01731 9.42762 7.90411 9.51146 7.90411L9.38402 7.52384L9.38354 7.52424Z" fill="#CAA13E"/>
<path fill-rule="evenodd" clip-rule="evenodd" d="M2.96123 10.449C2.96123 10.449 2.93091 10.3236 2.96123 10.0789C2.99155 9.83424 3.03891 9.71891 3.05467 9.35891C3.07043 8.99891 3.21123 8.54984 3.21123 8.54984L3.60075 8.25464L3.87627 8.37997L3.95755 8.99491L3.60923 9.31491C3.60923 9.31491 3.59107 9.45037 3.49275 9.55957C3.39443 9.66877 3.25851 9.75371 3.22579 9.86504C3.20623 9.93321 3.19195 10.0053 3.18331 10.0794C3.18331 10.0794 3.08379 10.045 3.02435 10.1542C2.96123 10.2656 2.96363 10.3646 2.96123 10.4496V10.449Z" fill="#F4EFC8"/>
<path fill-rule="evenodd" clip-rule="evenodd" d="M3.74757 10.2852C3.74757 10.2852 3.71477 10.3196 3.69053 10.4052C3.66653 10.3405 3.60917 9.95611 3.60677 9.61024C3.60437 9.26437 3.59197 9.17864 3.63997 9.05944C3.68797 8.94024 3.87621 8.81464 3.84949 8.59997C3.82277 8.39571 3.71109 8.31077 3.57397 8.36944C3.47797 8.40944 3.40653 8.74971 3.30701 8.91957C3.23173 9.04904 3.14197 9.02877 3.11773 9.09957C3.08493 9.19464 3.11525 9.28971 3.10557 9.35037C3.10309 9.37064 3.07277 9.47984 3.01813 9.61131C2.90773 9.87624 2.72085 10.2505 2.69653 10.5862C2.70501 10.3961 2.69901 10.3921 2.72933 10.1817L2.71109 10.1312L2.83109 9.47584L2.90877 8.93584L3.08237 8.03157L3.38813 7.10731L3.68549 6.55304L3.99493 6.58744L4.03133 7.36211L4.20853 8.81651L4.58109 9.58104L3.98397 10.2508L3.74733 10.2852H3.74757Z" fill="#EBCC73"/>
<path fill-rule="evenodd" clip-rule="evenodd" d="M3.93327 10.56C3.93327 10.56 3.88231 10.5802 3.86407 10.5641C3.84583 10.548 3.82775 10.5297 3.83375 10.5094C3.83975 10.4892 3.87255 10.4549 3.87255 10.4386C3.87323 10.4239 3.87044 10.4094 3.86477 10.3981C3.85911 10.3867 3.85103 10.3795 3.84223 10.378C3.81431 10.372 3.80583 10.4022 3.80583 10.4022C3.80583 10.4022 3.77911 10.368 3.75735 10.3622C3.77023 10.3596 3.78318 10.3582 3.79615 10.3581C3.76261 10.3328 3.72704 10.3158 3.69055 10.3076C3.72087 10.2773 3.78039 10.1882 3.81919 10.1882C3.85799 10.1882 3.88231 10.1782 3.87623 10.1438C3.87015 10.1094 3.83983 10.0589 3.80711 10.0386C3.81919 10.0144 3.82775 9.97798 3.79863 9.87864C3.76823 9.77958 3.78039 9.71278 3.79015 9.68864C3.79863 9.65824 3.82895 9.60371 3.84351 9.56931C3.85807 9.53491 3.87023 9.48838 3.89447 9.46411C3.90663 9.44998 3.94543 9.42411 3.98431 9.39944C4.02679 9.37518 4.06199 9.34478 4.08623 9.37518C4.11295 9.40544 4.10079 9.44598 4.10079 9.44598C4.10079 9.44598 4.18455 9.39531 4.25975 9.46011C4.33503 9.52064 4.51831 9.55918 4.51831 9.55918L4.58399 9.77971L4.14951 10.4006L3.96991 10.5504L3.93351 10.5604L3.93327 10.56Z" fill="#E5C66B"/>
<path fill-rule="evenodd" clip-rule="evenodd" d="M4.53641 9.54491C4.53641 9.54491 4.40169 9.69464 4.37137 9.74917C4.38953 9.75331 4.41985 9.77357 4.40769 9.80384C4.39313 9.83411 4.30577 9.93931 4.25721 10.0385C4.20625 10.1376 4.15769 10.263 4.14073 10.3237C4.12257 10.3782 3.98417 10.5381 3.93689 10.5582C4.03641 10.5582 4.23665 10.354 4.31185 10.354C4.30945 10.4146 4.33249 10.4834 4.37497 10.4894C4.41745 10.4954 4.54001 10.534 4.70505 10.3641C4.87009 10.1982 4.81553 10.0748 4.88465 9.99397C5.01697 9.84824 5.07033 9.71877 5.14313 9.63797C5.21593 9.55717 5.25361 9.53877 5.25361 9.53877C5.25361 9.53877 5.25601 9.47811 5.27761 9.48424C5.28352 9.48537 5.28914 9.48917 5.29385 9.49523C5.29856 9.5013 5.30218 9.50939 5.30433 9.51864C5.30433 9.51864 5.43057 9.36891 5.59233 9.32851C5.58856 9.32569 5.58554 9.32066 5.58385 9.31437C5.58385 9.31437 5.59593 9.30424 5.59841 9.29411C5.59841 9.29411 5.60689 9.27384 5.61297 9.28397C5.61905 9.29411 5.62753 9.36891 5.63969 9.39931C5.66641 9.37904 5.71737 9.18891 5.71737 9.18891L5.84001 8.60437V8.07037L5.74401 8.10077L5.02401 8.61037L4.58705 9.36491L4.53609 9.54491H4.53641Z" fill="#E6BD62"/>
<path fill-rule="evenodd" clip-rule="evenodd" d="M6.60919 6.92558C6.64813 6.90983 6.68547 6.88458 6.71999 6.85064C6.70543 6.91544 6.70543 6.98624 6.64231 7.13998C6.57919 7.29371 6.57679 7.31598 6.52583 7.47571C6.47487 7.64158 6.46879 7.88024 6.42023 7.98531C6.44199 7.96768 6.46534 7.95611 6.48935 7.95104C6.48935 7.95104 6.44087 8.02184 6.42023 8.09664C6.39959 8.17144 6.36319 8.32718 6.27343 8.42238C6.18367 8.51758 6.06951 8.57811 5.94695 8.80264C5.82431 9.02304 5.69815 9.30224 5.63495 9.40264C5.66775 9.30758 5.71263 9.11744 5.72479 8.99211C5.73695 8.86678 5.72231 8.71691 5.74295 8.55118C5.76359 8.38544 5.76359 8.26598 5.86295 7.97664C5.96231 7.68731 6.13239 6.68211 6.13239 6.68211L6.49887 6.48798L6.60935 6.92491L6.60919 6.92558Z" fill="#B6933F"/>
<path fill-rule="evenodd" clip-rule="evenodd" d="M6.34462 6.55548C6.34462 6.55548 6.23422 6.82042 6.2039 7.05508C6.17358 7.28975 6.20142 7.26948 6.18326 7.38482C6.17239 7.45514 6.17239 7.5289 6.18326 7.59922C6.22149 7.49656 6.27384 7.41054 6.33598 7.34828C6.44038 7.24322 6.52534 7.16828 6.57598 7.07935C6.62694 6.98428 6.66942 6.82855 6.77982 6.70922C6.73494 6.69908 6.67182 6.66468 6.65982 6.66922C6.70478 6.58428 6.83942 6.45482 6.97534 6.29908C7.11006 6.13908 7.10158 6.07455 7.32006 5.91482C7.24846 5.93508 7.21446 5.90468 7.15494 5.91482C7.17894 5.82988 7.26294 5.78935 7.34694 5.64988C7.43094 5.51042 7.29358 5.30402 7.29358 5.30402L6.65358 5.94922L6.34414 6.55602L6.34462 6.55548Z" fill="#C49937"/>
<path fill-rule="evenodd" clip-rule="evenodd" d="M4.60797 6.07399L4.62253 5.87986L4.80581 5.39039L4.99757 4.53079V3.35559L4.98301 2.67599L5.01333 2.23092L5.03637 2.08946L5.06069 2.03479L5.21717 2.17026L5.43325 2.65972L5.45389 3.60439L5.24389 5.09506L4.64437 6.18532L4.60797 6.07399Z" fill="#DFC068"/>
<path fill-rule="evenodd" clip-rule="evenodd" d="M5.08495 1.98011C5.08495 1.98011 4.98895 1.98424 4.96847 2.64971C4.94799 3.31518 4.93807 3.66504 4.92351 3.99478C4.90895 4.32451 4.87503 4.52464 4.85799 4.71891C4.84095 4.91318 4.83127 5.17798 4.77671 5.33984C4.75271 5.41464 4.70143 5.64931 4.58127 5.82531C4.44655 6.01944 4.24527 6.15504 4.21479 6.16518C4.16135 6.18531 3.89071 6.22984 3.78031 6.33104C3.74151 6.36544 3.67471 6.40584 3.60071 6.52118C3.45383 6.74158 3.25847 7.13598 3.11767 7.61131C2.90167 8.32131 2.68567 10.3257 2.68567 10.3257L2.73423 10.1902C2.73423 10.1902 2.74031 10.0102 2.84831 9.69464C2.95391 9.37918 2.92359 9.02518 3.07039 8.42038C3.12743 8.18984 3.19903 7.89051 3.28639 7.63558C3.42479 7.22091 3.59223 6.86491 3.76095 6.67078C4.03639 6.35531 4.33983 6.28651 4.33983 6.28651L4.66631 5.92651C4.66631 5.92651 4.72335 5.74251 4.79863 5.53211C4.90415 5.23691 5.03863 4.90718 5.06799 4.42784C5.11295 3.71784 5.00487 3.25264 5.01095 2.83198C5.01703 2.41131 5.01943 2.10184 5.07047 2.02691C5.12151 1.95198 5.08503 1.98038 5.08503 1.98038L5.08495 1.98011Z" fill="#A88F33"/>
<path fill-rule="evenodd" clip-rule="evenodd" d="M5.08494 5.15572C5.08494 5.15572 5.22894 4.56506 5.29486 4.04119C5.30702 3.93599 5.33126 3.83092 5.33734 3.74599C5.36766 3.25039 5.37614 3.04612 5.33734 2.77506C5.30702 2.57506 5.19054 2.39479 5.12982 2.25506C5.07038 2.10932 5.04246 2.05506 5.05462 2.02439C5.06678 1.99372 5.11406 1.94359 5.16014 1.94959C5.20912 1.95197 5.2573 1.97092 5.30175 2.0053C5.3462 2.03969 5.38599 2.08878 5.4187 2.14959C5.51214 2.32959 5.58614 2.94052 5.58614 2.94052L5.66398 3.74666L5.86182 4.76199L5.0851 5.15652L5.08494 5.15572Z" fill="#C99E3D"/>
<path fill-rule="evenodd" clip-rule="evenodd" d="M6.43806 4.54091C6.43806 4.54091 6.41134 4.56104 6.36286 4.54091C6.36493 4.57392 6.36149 4.60725 6.35292 4.63723C6.34435 4.6672 6.33099 4.69265 6.3143 4.71077C6.26334 4.67637 5.7863 4.74517 5.7863 4.74517C5.7863 4.74517 5.56422 4.68037 5.49502 4.1909C5.44654 3.86517 5.53142 3.41624 5.5035 3.1209C5.46102 2.68597 5.40158 2.6009 5.3955 2.46557C5.38942 2.33024 5.38334 2.2957 5.38334 2.21077C5.35662 2.20064 5.34086 2.1865 5.31422 2.1865C5.30814 2.1465 5.32022 2.11157 5.29358 2.04077C5.30814 2.0509 5.40766 2.07117 5.52414 2.25517C5.62014 2.4049 5.62014 2.45944 5.63462 2.48984C5.65278 2.5201 5.79966 2.72984 5.86278 2.9389C5.9259 3.14797 6.04846 3.81464 6.07638 3.92384C6.08486 3.96837 6.1031 4.0129 6.14838 4.11397C6.21878 4.2597 6.3219 4.50064 6.43838 4.54064L6.43806 4.54091Z" fill="#B58634"/>
<path fill-rule="evenodd" clip-rule="evenodd" d="M5.65173 2.5C5.72525 2.69793 5.7913 2.90331 5.84949 3.11493C5.92109 3.38387 5.96357 3.6044 6.05341 3.7844C6.00485 3.54987 5.91869 3.08867 5.86773 2.9248C5.81069 2.75147 5.69421 2.5648 5.65173 2.50013V2.5Z" fill="#A88F33"/>
<path fill-rule="evenodd" clip-rule="evenodd" d="M4.82646 5.82533C4.82646 5.82533 4.7039 5.87586 4.47574 6.07613C4.40046 6.1408 4.32894 6.19533 4.25974 6.246C4.07998 6.38146 3.88718 6.50666 3.73422 6.57573C3.74638 6.6 3.75238 6.61 3.75238 6.61C3.75238 6.61 3.75238 6.7092 3.78518 6.76573C3.76702 6.79613 3.52422 7.07119 3.5959 7.99146C3.64438 7.96119 3.70142 7.92066 3.7099 7.92066C3.72454 7.9248 3.72814 7.99146 3.7463 7.99146C3.76446 7.99146 3.82398 7.95146 3.8871 7.81546C3.8847 7.87013 3.8483 8.42026 4.04366 8.7904C4.08006 8.7196 4.1723 8.48493 4.1723 8.48493L4.1747 8.41013C4.1747 8.41013 4.18318 8.14919 4.23422 7.91053C4.28526 7.67186 4.3847 7.49586 4.3847 7.49586L4.90398 6.26L4.8263 5.8252L4.82646 5.82533Z" fill="#E6C367"/>
<path fill-rule="evenodd" clip-rule="evenodd" d="M4.34103 7.64002C4.31725 7.66802 4.29106 7.68983 4.26335 7.70469C4.25487 7.65416 4.24271 7.48016 4.31431 7.31029C4.39807 7.10589 4.58127 6.84096 4.63223 6.63029C4.66503 6.49469 4.65047 6.15496 4.94175 5.72002C5.23303 5.28509 5.34703 5.13549 5.34703 5.13549L5.81791 4.74109L6.39679 5.12136L6.10919 7.00002L5.88591 7.88002L4.99791 7.60096L4.34095 7.64002H4.34103Z" fill="#DCBA5A"/>
<path fill-rule="evenodd" clip-rule="evenodd" d="M4.67999 7.12986L4.79047 6.89933V6.73546C4.79047 6.73546 4.91303 6.6808 5.04527 6.45626C5.17751 6.23173 5.36079 5.80093 5.52223 5.8272C5.68367 5.8576 5.69943 6.41173 5.70551 6.5676C5.71159 6.72346 5.73223 7.0772 5.76495 7.26746C5.80135 7.4576 5.37175 8.1776 5.37175 8.1776L5.07999 8.54773L4.67999 7.12986Z" fill="#E9CE77"/>
<path fill-rule="evenodd" clip-rule="evenodd" d="M5.02185 9.04932C5.02185 9.04932 5.11169 8.81466 5.04585 8.76412C5.08465 8.61852 5.15625 8.46479 5.15625 8.46479C5.15625 8.46479 5.20721 8.25452 5.37225 7.99559C5.53729 7.73666 5.63929 7.56466 5.66601 7.39079C5.68248 7.27748 5.69144 7.16149 5.69273 7.04492C5.71057 7.06922 5.72966 7.09085 5.74977 7.10959C5.77649 7.12985 5.90265 7.30372 5.88449 7.65372C5.86633 8.00372 5.78849 8.14932 5.78849 8.14932C5.78849 8.14932 5.71329 8.27466 5.65993 8.33946C5.60281 8.40412 5.58225 8.47892 5.48633 8.48506C5.49619 8.47199 5.50727 8.46172 5.51913 8.45465C5.51913 8.45465 5.41961 8.43452 5.36617 8.51532C5.31273 8.59612 5.19913 8.84506 5.14209 8.91999C5.08505 8.98066 5.02209 9.04946 5.02209 9.04946L5.02185 9.04932Z" fill="#CDAE50"/>
<path fill-rule="evenodd" clip-rule="evenodd" d="M9.05701 5.11522C8.91363 5.02813 8.76295 4.979 8.61045 4.96962C8.35557 4.95548 7.98301 4.97975 7.61773 4.98375C7.22453 4.98775 6.86773 4.75922 6.37261 4.71882C6.29133 4.63788 6.08461 4.28388 5.43933 5.03428C5.47813 5.03028 5.90781 4.86842 6.05701 5.18002C6.20749 5.48948 6.16501 6.01535 6.14445 6.14068C6.10557 6.41988 5.97933 6.82642 5.92845 7.11162C5.87757 7.39682 5.88957 7.54668 5.85317 7.74668C5.81677 7.94668 5.73669 8.04602 5.78397 8.27655C5.84709 8.21188 5.87997 8.21188 5.98541 7.81748C6.09085 7.42308 6.06917 7.14188 6.24397 6.80815C6.41509 6.47242 6.69997 6.01322 6.80829 5.89788C6.91661 5.78255 7.77669 5.03828 8.67725 5.74828C8.89445 5.70988 9.05709 5.11508 9.05709 5.11508L9.05701 5.11522Z" fill="#D2A83E"/>
<path fill-rule="evenodd" clip-rule="evenodd" d="M5.80216 4.84002C5.80127 4.82482 5.79925 4.80987 5.79616 4.79549C5.78773 4.76591 5.77668 4.73862 5.76336 4.71456C5.76336 4.71456 5.54976 4.64989 5.44176 4.67002C5.2524 4.70442 5.08128 5.09482 5.0012 5.29509C4.92112 5.49536 4.8216 5.80469 4.7136 5.96456C4.71478 5.94898 4.71263 5.93321 4.70752 5.92002C4.70752 5.92002 4.7136 5.93416 4.70152 5.95442C4.68944 5.97469 4.68936 5.98469 4.69544 5.99442L4.71368 6.02469C4.71968 6.02469 4.8872 5.89922 5.11536 5.54469C5.35808 5.17456 5.54376 4.98469 5.64088 4.91962C5.69267 4.88294 5.74681 4.85623 5.80224 4.84002H5.80216Z" fill="#C29637"/>
<path fill-rule="evenodd" clip-rule="evenodd" d="M9.94547 3.31921C9.94547 3.31921 9.90659 3.40001 9.85803 3.48908C9.75003 3.67921 9.60923 3.89348 9.48907 4.11401C9.37507 4.32441 9.24643 4.48828 9.10195 4.76335C8.95747 5.03841 8.78994 5.34375 8.74754 5.43281C8.70874 5.52188 8.67843 5.66748 8.67843 5.74228C8.65779 5.71801 8.63354 5.69175 8.63354 5.69175C8.64375 5.7235 8.65595 5.75336 8.66995 5.78081C8.70027 5.85161 8.74755 5.94081 8.77187 5.99521C8.8017 6.06447 8.82312 6.14278 8.83491 6.22575C8.84947 6.22975 8.94291 6.26015 9.05947 5.94055C9.17603 5.62095 9.32883 5.27108 9.32883 5.27108L9.57154 4.67028L9.72451 4.16068L9.91651 3.59028L9.9457 3.31921H9.94547Z" fill="#AC8132"/>
<path fill-rule="evenodd" clip-rule="evenodd" d="M10.1943 2.91064C10.1943 2.91064 10.0474 3.11064 9.99034 3.23064C9.9333 3.35064 9.79834 3.66558 9.79834 3.66558L9.8469 3.65544L10.0933 3.29144L10.1893 3.00624L10.1942 2.91118L10.1943 2.91064Z" fill="#A88F33"/>
<path fill-rule="evenodd" clip-rule="evenodd" d="M10.1493 18.9846C10.1493 18.9846 10.1469 18.8188 10.2027 18.7197C10.2597 18.6205 10.4041 18.4749 10.5449 17.9288C10.6857 17.3826 10.7014 17.2593 10.7014 17.2593C10.7014 17.2593 10.449 17.6193 10.2934 17.7042C10.3298 17.5788 10.3505 17.4898 10.3687 17.425C10.3481 17.3948 10.2607 17.3604 10.2522 17.3442C10.3007 17.2633 10.3274 17.065 10.4257 16.9336C10.552 16.7736 10.7825 16.4986 10.9617 16.2536C11.1409 16.0085 11.4933 15.4385 11.5382 15.2726C11.5649 15.3373 11.5709 15.3777 11.5709 15.3777C11.5709 15.3777 11.3938 15.7621 11.3016 16.0068C11.2202 16.2172 11.2263 16.3365 11.2263 16.3365L11.3938 16.2165C11.3938 16.2165 11.4423 16.5158 11.2227 16.971C11.3187 16.9104 11.3574 16.9468 11.412 16.8961C11.3221 16.9913 11.1984 17.1208 11.0819 17.4766C10.9678 17.8326 10.8125 18.2473 10.5504 18.5061C10.2955 18.7792 10.1486 18.9834 10.1486 18.9834L10.1493 18.9846Z" fill="#A67A2E"/>
<path fill-rule="evenodd" clip-rule="evenodd" d="M9.49155 5.32575C9.49155 5.32575 9.39203 5.67148 9.37747 5.94055C9.37507 6.00535 9.36531 6.05588 9.36531 6.13068C9.36291 6.37135 9.37379 6.64041 9.34131 6.76575C9.32915 6.71521 9.32307 6.68081 9.31091 6.66068C9.29275 6.74561 9.25995 7.01055 9.23323 7.10961C9.22115 7.04495 9.19443 6.82041 9.19691 6.55548C9.19939 6.29055 9.20291 6.23988 9.20291 6.18535C9.19691 6.26615 9.16411 6.37548 9.15195 6.44015C9.13379 6.38561 9.11315 6.31481 9.08883 6.25615C9.07427 6.29615 9.05611 6.35521 9.04035 6.38561C9.03787 6.36135 9.03187 6.29655 9.02819 6.20561C9.02579 6.10041 9.02211 5.96495 9.02579 5.93655C9.03179 5.88201 9.08283 5.66761 9.19083 5.47135C9.31947 5.23668 9.45179 4.78575 9.49059 4.64615C9.52939 4.50655 9.69443 3.92615 9.69443 3.92615H9.82067L9.63739 4.62188C9.63739 4.62188 9.52699 5.00215 9.46995 5.14188C9.41291 5.28161 9.29275 5.68201 9.23931 5.83775C9.27811 5.75281 9.31091 5.70828 9.34979 5.62735C9.38739 5.57068 9.49171 5.32601 9.49171 5.32601L9.49155 5.32575Z" fill="#8C6228"/>
<path fill-rule="evenodd" clip-rule="evenodd" d="M10.1966 2.88428C10.176 2.99005 10.1434 3.08827 10.1006 3.17361C10.0253 3.32334 9.86391 3.52348 9.78511 3.68321C9.71311 3.83894 9.5691 4.26374 9.63454 4.76734C9.65854 4.65814 9.70374 4.44174 9.8239 4.19694C9.94406 3.95214 10.0727 3.67108 10.1359 3.45268C10.1989 3.23214 10.2074 3.05828 10.2074 3.05828L10.2314 3.00774L10.2169 2.89241L10.1962 2.88428H10.1966Z" fill="#CBA94C"/>
<path fill-rule="evenodd" clip-rule="evenodd" d="M12.6542 16.3005C12.6542 16.3005 12.6056 16.0801 12.5911 15.8799C12.5765 15.6796 12.6151 15.6399 12.5704 15.4107C12.5437 15.2711 12.4952 15.2907 12.4831 15.2711C12.4709 15.2515 12.4624 15.0405 12.4648 14.9252C12.4672 14.8099 12.4624 14.6603 12.4503 14.5955C12.4321 14.5712 12.4199 14.5509 12.3932 14.4013C12.3629 14.2516 12.3483 14.1768 12.3338 14.1324C12.3192 14.088 12.2767 14.0475 12.2767 14.0029C12.2767 13.9139 12.3252 13.8675 12.3252 13.8429C12.3228 13.7924 12.2864 13.8329 12.2767 13.8187C12.2646 13.7944 12.3071 13.6488 12.2913 13.6285C12.2852 13.6185 12.2427 13.7035 12.2318 13.6792C12.2196 13.6548 12.2051 13.4141 12.1832 13.2544C12.1627 13.0987 12.1407 12.9855 12.1383 12.9389C12.1359 12.8944 11.9708 12.1096 11.9308 11.9195C11.8986 11.7588 11.8715 11.5954 11.8495 11.43C11.8374 11.3349 11.8289 11.1407 11.8228 11.1609C11.8167 11.1812 11.8204 11.2803 11.8107 11.2763C11.8022 11.2721 11.7719 10.9264 11.7622 10.8717C11.7537 10.8171 11.7027 10.6317 11.6902 10.4976C11.678 10.362 11.6514 10.008 11.6331 9.76734C11.6149 9.52668 11.6064 9.42761 11.6064 9.36734C11.6094 9.21994 11.6045 9.07238 11.5919 8.92641C11.5679 8.67148 11.5199 8.36201 11.4778 8.18214C11.3965 7.84228 11.1804 6.97255 11.1418 6.75615C11.1418 6.70148 11.1843 6.73188 11.1843 6.73188C11.1843 6.73188 11.2898 7.17281 11.3675 7.51255C11.4427 7.85241 11.5143 8.15174 11.5326 8.18214C11.5471 8.21241 11.6612 8.54614 11.7122 9.09228C11.7631 9.63841 11.7813 10.142 11.8117 10.4777C11.8263 10.6377 11.8384 10.8075 11.8687 10.9773C11.9015 11.1615 11.9524 11.3516 12.0192 11.6428C12.0763 11.8876 12.1187 12.0919 12.1418 12.2679C12.1685 12.4924 12.1685 12.6623 12.1843 12.7736C12.1989 12.8687 12.2207 13.0587 12.2717 13.3336C12.3227 13.6085 12.3979 13.9627 12.4488 14.1831C12.5484 14.624 12.5928 14.9921 12.6079 15.1884C12.6211 15.3907 12.6661 16.0905 12.6539 16.3008L12.6542 16.3005Z" fill="#A88F33"/>
<path fill-rule="evenodd" clip-rule="evenodd" d="M10.2027 2.86003L10.1966 2.88429C10.1966 2.88429 10.2148 2.89443 10.2112 2.93496C10.2115 2.99042 10.2094 3.04584 10.2051 3.10083C10.1991 3.17163 10.187 3.22616 10.1846 3.27069C10.1846 3.36576 10.193 3.47496 10.1126 3.74603C10.0886 3.82083 10.0738 3.88549 10.0616 3.93003C10.0313 4.03923 10.0252 4.05549 9.99847 4.10603C10.041 4.06603 10.1939 3.90603 10.2715 3.93003C10.2182 3.98056 10.1368 4.07976 10.0858 4.20923C10.098 4.21323 10.149 4.22949 10.2298 4.20923C10.3646 4.17483 10.515 4.09389 10.6473 4.11003C10.7918 4.12416 10.7347 3.82083 10.7347 3.82083L10.568 3.21003L10.2525 2.84003L10.2027 2.86016V2.86003Z" fill="#BE9C44"/>
<path fill-rule="evenodd" clip-rule="evenodd" d="M11.0255 7.43533C11.0255 7.43533 10.8847 7.20067 10.8277 6.39533C10.7706 5.58627 10.7828 4.39533 10.7828 4.39533L10.6687 3.93013C10.6687 3.93013 10.6447 3.62067 10.585 3.50547C10.5252 3.39027 10.4078 3.196 10.3544 3.10093C10.301 3.00587 10.2403 2.8764 10.2039 2.85613C10.2221 2.8056 10.3034 2.5204 10.6153 2.5164C10.9271 2.5124 11.0233 2.8016 11.0558 2.9068C11.0884 3.012 11.2354 3.4668 11.29 4.33347C11.341 5.19907 11.3434 5.26387 11.335 5.5632C11.3289 5.72907 11.2961 6.11333 11.239 6.52387C11.1868 6.87187 11.1298 7.26027 11.0254 7.43613L11.0255 7.43533Z" fill="#A17C34"/>
<path fill-rule="evenodd" clip-rule="evenodd" d="M10.584 8.12504C10.6309 8.13069 10.6778 8.11306 10.7187 8.07438C10.7636 8.07038 10.9263 8.10478 11.0512 7.83984C11.0597 7.90038 11.0816 8.06438 11.0245 8.20998C11.0549 8.15931 11.0998 8.13918 11.1059 8.12504C11.1083 8.19984 11.1507 8.43038 10.9711 8.99064C11.0196 8.90171 11.0767 8.90571 11.1276 8.89558C11.1301 9.00078 11.164 9.35464 11.0743 9.54491C11.0148 9.67438 10.9177 9.63384 10.9177 9.63384C10.9191 9.60558 10.9191 9.57717 10.9177 9.54891C10.9153 9.49424 10.9031 9.43971 10.9117 9.40331C10.8648 9.36758 10.822 9.31824 10.7855 9.25758C10.6799 9.09171 10.5427 8.80864 10.5331 8.59824C10.5209 8.36358 10.6471 8.31304 10.6471 8.31304C10.6366 8.29728 10.6275 8.27883 10.6204 8.25838C10.6143 8.22411 10.6083 8.16944 10.584 8.12504Z" fill="#8C6228"/>
<path fill-rule="evenodd" clip-rule="evenodd" d="M9.64799 5.58055C9.64799 5.58055 9.64191 5.56641 9.60919 5.63108C9.61527 5.56641 9.62135 5.50561 9.62375 5.44695C9.63924 5.39263 9.65928 5.34226 9.68327 5.29735C9.66503 5.35788 9.65287 5.41255 9.65287 5.41255C9.65287 5.41255 9.69783 5.27295 9.76335 5.18801C9.80823 5.12735 9.86527 5.09908 9.88951 5.04241C9.91623 4.98175 9.91015 4.97161 9.91623 4.96148C9.91623 4.96148 9.97575 4.89681 10.0668 4.70655C10.0789 4.68228 10.0971 4.65601 10.1093 4.63175C10.1298 4.61761 10.1784 4.58121 10.2354 4.53255C10.295 4.47801 10.3617 4.40321 10.403 4.37255C10.4842 4.31188 10.5705 4.31801 10.6105 4.22281C10.6408 4.20868 10.6735 4.05695 10.6675 3.92761C10.7124 3.95788 10.943 4.19655 11.0219 4.71841C11.079 5.08855 10.977 5.65895 10.9345 5.93415C10.892 6.20935 10.886 6.41348 10.8265 6.53881C10.7512 6.70481 10.5086 6.93881 10.449 7.05468C10.3981 7.14975 10.2452 7.39041 10.2512 7.56428C10.2573 7.69375 10.3531 7.76428 10.3738 7.78881C10.3946 7.81335 10.3944 7.84348 10.4333 7.82881C10.4722 7.81415 10.4866 7.78428 10.5025 7.78428C10.5206 7.78828 10.5206 7.79441 10.5291 7.79441C10.5353 7.79411 10.5414 7.79272 10.5474 7.79028C10.5474 7.79028 10.5413 7.97441 10.2828 8.03028C10.2646 8.03441 10.2464 8.04441 10.2233 8.05055C10.2537 8.02628 10.2718 8.02628 10.3046 7.95148C10.2682 7.94135 10.1638 7.93121 10.1371 7.91708C10.1456 7.89281 10.1735 7.82801 10.1966 7.79775C10.2172 7.76748 10.1942 7.75775 10.176 7.77348C10.1447 7.80893 10.1147 7.8474 10.0862 7.88868C10.0558 7.93321 10.0291 7.99388 9.98055 8.04868C9.96599 7.96775 9.96839 7.81401 10.0255 7.70281C10.0109 7.70681 9.98295 7.77761 9.95631 7.76348C9.9515 7.6897 9.95436 7.61509 9.96479 7.54295C9.97935 7.45188 10.0582 7.29215 10.0582 7.29215L10.4393 6.15735L10.5206 5.29775L9.64799 5.58028V5.58055Z" fill="#92723A"/>
<path fill-rule="evenodd" clip-rule="evenodd" d="M9.62745 5.62908C9.62745 5.62908 9.60681 5.65335 9.64809 5.69988C9.64201 5.71402 9.62745 5.76455 9.60921 5.79895C9.58865 5.83895 9.56673 5.86375 9.55825 5.89815C9.54009 5.96895 9.52553 6.01748 9.52553 6.04788C9.52553 6.07828 9.51945 6.27242 9.46849 6.39775C9.45025 6.44228 9.42961 6.51708 9.41505 6.56762C9.38473 6.65655 9.35801 6.72762 9.35193 6.76762C9.33985 6.83842 9.33137 7.03255 9.33137 7.03255C9.33137 7.03255 9.35809 6.97788 9.36777 6.95775C9.35313 7.00828 9.33737 7.06282 9.31433 7.10335C9.32889 7.08308 9.37137 7.03255 9.44297 6.92735C9.54249 6.78788 9.69785 6.55322 9.88721 6.36735C9.83009 6.40175 9.78161 6.40175 9.74281 6.41188C9.77313 6.36135 10.0462 5.82735 10.1894 5.77682C10.1981 5.75844 10.2024 5.73537 10.2015 5.71202L10.0789 5.69188L9.83009 5.78082L9.79377 5.46082L9.62745 5.62868V5.62908Z" fill="#B18E3E"/>
<path fill-rule="evenodd" clip-rule="evenodd" d="M10.0231 7.44949C10.0231 7.44949 9.99034 7.50402 9.96002 7.63962C9.93667 7.59899 9.91666 7.5534 9.9005 7.50402C9.85562 7.37869 9.7865 7.21882 9.62506 7.30989C9.62266 7.22495 9.61898 7.18042 9.62506 7.11975C9.65178 7.10975 9.73306 7.00055 9.81434 6.84069C9.87146 6.73149 9.92482 6.60602 9.96122 6.44629C9.98522 6.41589 10.0267 6.36535 10.0812 6.30669C10.1589 6.21775 10.2523 6.09629 10.2669 5.96082C10.2305 5.98509 10.1528 6.04575 10.0363 6.03575C10.0812 6.00135 10.1503 5.96495 10.1419 5.81522C10.1601 5.79495 10.1747 5.78082 10.1747 5.78082C10.161 5.77321 10.1466 5.76978 10.1322 5.77069C10.1297 5.75655 10.1261 5.73642 10.1055 5.74642C10.0848 5.75642 10.0815 5.75655 10.0787 5.77069C10.0703 5.77482 10.0423 5.77069 10.0217 5.79509C10.0011 5.81949 9.94402 5.90015 9.92218 5.91429C9.93066 5.89002 9.94274 5.85375 9.94274 5.85375C9.94274 5.85375 9.8833 5.86375 9.84082 5.89375C9.76314 5.93829 9.67338 6.01922 9.58234 6.09802C9.59082 6.07375 9.5945 6.05802 9.6005 6.05349C9.6065 6.04895 9.62114 6.04349 9.62114 6.03935C9.62114 6.03522 9.61514 5.99935 9.61874 5.98482C9.64595 5.88872 9.67807 5.79669 9.71474 5.70975C9.75722 5.61455 9.7657 5.47909 9.7657 5.47909L9.95138 5.32335L10.4732 5.12335L10.8119 5.15775L10.7694 5.54815L10.5694 6.22975L10.3983 6.85069L10.2028 7.23109L10.0232 7.44949H10.0231Z" fill="#543E26"/>
<path fill-rule="evenodd" clip-rule="evenodd" d="M10.869 5.76002C10.869 5.76002 10.6651 6.18069 10.608 6.24549C10.6444 6.11602 10.869 5.34536 10.9503 5.13096C10.9321 5.10669 10.9078 5.10669 10.9648 4.73096C10.9163 4.92096 10.8993 5.02016 10.8593 5.07069C10.8193 5.12122 10.8143 5.10509 10.7873 5.10509C10.7924 5.0897 10.7945 5.07203 10.7933 5.05456C10.7933 5.05456 10.6222 5.02016 10.5053 5.02016C10.3884 5.02016 10.1571 5.12536 10.0283 5.21029C9.92642 5.28109 9.86938 5.28109 9.83298 5.32549C9.79658 5.37602 9.77594 5.43069 9.7577 5.44482C9.74314 5.45896 9.67402 5.49536 9.65818 5.53376C9.64362 5.57376 9.61938 5.61869 9.61938 5.62882C9.61938 5.63896 9.6133 5.65322 9.63154 5.64296C9.63754 5.63896 9.6825 5.59842 9.73346 5.54789C9.80258 5.48322 9.88634 5.40842 9.94706 5.36389C10.1206 5.24856 10.1752 5.26882 10.2528 5.24456C10.3341 5.22029 10.4507 5.16362 10.5283 5.16362C10.6059 5.15962 10.7528 5.16362 10.7868 5.17376C10.7723 5.19402 10.7601 5.21829 10.7662 5.30322C10.7662 5.32749 10.754 5.35376 10.7422 5.41242C10.7059 5.57829 10.6367 5.85336 10.5982 5.99296C10.5448 6.18296 10.4842 6.34282 10.4542 6.44189C10.4242 6.54096 10.3582 6.80189 10.2928 6.94149C10.2275 7.08109 10.1933 7.16602 10.1728 7.19642C10.1523 7.22682 10.0053 7.40669 10.0163 7.47149C10.043 7.45736 10.2117 7.35149 10.3342 7.12162C10.4567 6.89176 10.4811 6.75149 10.5769 6.62602C10.6727 6.50056 10.748 6.29029 10.7929 6.11642C10.8305 5.95456 10.822 5.90402 10.8693 5.76042L10.869 5.76002Z" fill="#806031"/>
<path fill-rule="evenodd" clip-rule="evenodd" d="M6.47459 8.89975C6.47459 8.89975 6.44787 9.08375 6.38715 9.17482C6.32771 9.26389 6.22211 9.34069 6.21003 9.49042C6.19547 9.64002 6.31563 9.71495 6.31563 9.71495C6.31563 9.71495 6.25003 9.89495 6.25003 10.0304C6.25003 10.17 6.24763 10.1963 6.25611 10.3298C6.24648 10.3401 6.2383 10.3537 6.23211 10.3698C6.23211 10.3698 6.23811 10.4992 6.29763 10.58C6.35715 10.6608 6.40802 10.7095 6.43834 10.6892C6.44297 10.7057 6.44704 10.7226 6.45051 10.7399C6.45051 10.7399 6.49546 10.5498 6.52578 10.3839C6.5561 10.214 6.58283 10.2382 6.59491 10.0096C6.60699 9.78109 6.73891 9.38869 6.73891 9.38869L6.82891 9.05335L6.68211 8.86322L6.47459 8.89962V8.89975Z" fill="#B6903C"/>
<path fill-rule="evenodd" clip-rule="evenodd" d="M6.7476 9.22931C6.71733 9.2811 6.68938 9.33654 6.664 9.39518C6.6252 9.48424 6.59488 9.56504 6.53784 9.59958C6.4808 9.63411 6.4444 9.63384 6.448 9.72904C6.4516 9.82424 6.50504 9.86451 6.53536 9.91304C6.56816 9.96358 6.59488 10.0485 6.58032 10.1437C6.59848 10.1296 6.63128 10.1133 6.6616 10.0041C6.69192 9.89491 6.904 9.22944 6.904 9.22944H6.7476V9.22931Z" fill="#685026"/>
<path fill-rule="evenodd" clip-rule="evenodd" d="M7.58403 7.69414C7.58403 7.69414 7.60219 7.61334 7.58403 7.55467C7.56579 7.494 7.45539 7.47374 7.40075 7.40494C7.34371 7.33414 7.27451 7.28494 7.21747 7.316C7.22595 7.2816 7.25995 7.20667 7.23203 7.19054C7.20531 7.1764 7.10587 7.2512 7.07915 7.2856C7.05243 7.32 6.99171 7.3604 6.97963 7.3848C6.96755 7.4092 6.94683 7.4556 6.93467 7.43534C6.92251 7.4212 6.91651 7.3848 6.89587 7.40494C6.87523 7.42507 6.77587 7.56067 6.75755 7.6396C6.73923 7.71854 6.69803 7.89454 6.57427 8.09467C6.45051 8.2948 6.39707 8.4244 6.43347 8.4992C6.46987 8.574 6.48691 8.51947 6.49299 8.58414C6.49767 8.64762 6.49561 8.71198 6.48691 8.77427C6.47235 8.87947 6.44811 8.97854 6.48083 8.9988C6.56459 9.04334 6.64595 8.9588 6.66411 8.98467C6.70051 9.0392 6.64347 9.23547 6.72963 9.27387C6.81707 9.31387 6.90323 9.23947 6.90323 9.23947L7.22115 8.95427L7.52699 8.68534L7.68347 8.16947L7.59955 7.73867L7.58355 7.69414H7.58403Z" fill="#D4B968"/>
<path fill-rule="evenodd" clip-rule="evenodd" d="M7.28401 8.926C7.28401 8.926 7.23057 8.79053 7.29617 8.67107C7.36177 8.5516 7.45513 8.5012 7.49153 8.4264C7.4846 8.41216 7.47531 8.40163 7.46481 8.39613C7.48897 8.32407 7.52583 8.26613 7.57041 8.23013C7.55225 8.19987 7.52793 8.1756 7.50129 8.1756C7.44177 8.1756 7.40529 8.23627 7.35073 8.23627C7.29737 8.23627 7.29129 8.19173 7.29129 8.19173C7.29129 8.19173 7.38113 8.1776 7.37257 8.1108C7.36409 8.04 7.34857 8.04 7.34857 8.04C7.34857 8.04 7.52209 7.92 7.55241 7.856C7.58273 7.792 7.57913 7.7164 7.58521 7.68613C7.60577 7.68613 7.72593 7.58093 7.77449 7.62547C7.82305 7.67 7.78905 7.79133 7.78905 7.79133C7.78905 7.79133 7.93601 7.6072 8.01089 7.42667C8.07641 7.4368 8.10689 7.35187 8.15489 7.35187C8.21441 7.35187 8.30785 7.48733 8.32601 7.77653C8.33817 7.9424 8.35633 8.03747 8.33817 8.3308C8.32969 8.49667 8.33209 8.8508 8.36217 9.02653C8.38273 9.16613 8.43129 9.152 8.43129 9.152C8.42384 9.19454 8.40907 9.2325 8.38881 9.2612C8.35601 9.31173 8.35241 9.44533 8.35601 9.49587C8.36085 9.53281 8.36694 9.56927 8.37425 9.60507C8.37425 9.60507 8.33545 9.67987 8.32569 9.73053C8.31721 9.78107 8.27721 9.81547 8.24801 9.81547C8.21881 9.81547 8.23345 9.81133 8.19465 9.81547C8.15585 9.8196 8.14369 9.8296 8.11937 9.81547C8.09505 9.80133 8.07689 9.78507 8.08665 9.65547C8.09513 9.526 7.78689 9.22467 7.78689 9.22467L7.28289 8.92533L7.28401 8.926Z" fill="#CCA849"/>
<path fill-rule="evenodd" clip-rule="evenodd" d="M6.70511 10.2042C6.70511 10.2042 6.81551 10.449 7.26943 10.449C7.48543 10.449 7.56071 10.4146 7.60543 10.3944C7.65399 10.3741 7.83599 10.2549 8.01927 9.89477C8.18431 9.56917 8.14791 9.4357 8.14791 9.4357L8.05191 9.41144L7.73991 9.48224L6.81671 10.1376L6.70471 10.2042H6.70511Z" fill="#585136"/>
<path fill-rule="evenodd" clip-rule="evenodd" d="M7.04365 10.265C7.04365 10.265 6.65045 10.4107 6.65045 9.99602C6.65045 9.59148 6.89317 9.16668 6.95389 9.09188C7.01701 9.01695 7.16749 8.93188 7.16749 8.93188H7.53037L7.59949 9.23735L7.56917 9.89668L7.04365 10.2648V10.265Z" fill="#252211"/>
<path fill-rule="evenodd" clip-rule="evenodd" d="M7.40655 9.05547C7.40655 9.05547 7.33135 8.94013 7.16023 9.09547C6.98911 9.2508 6.85071 9.57547 6.84223 9.87027C6.83375 10.1311 6.97087 10.3253 7.18447 10.3355C7.34343 10.3455 7.43935 10.3152 7.48791 10.2955C7.47575 10.2712 7.41263 10.1397 7.41263 10.1397L7.40663 9.0556L7.40655 9.05547Z" fill="#C3B378"/>
<path fill-rule="evenodd" clip-rule="evenodd" d="M7.33259 9.12002C7.33259 9.12002 7.31443 9.09575 7.26059 9.14429C7.21571 9.18429 7.15019 9.29002 7.09923 9.36482C7.06643 9.40935 7.04579 9.42949 7.02723 9.46389C6.95195 9.61362 6.88883 9.85842 6.92531 9.97975C6.96179 10.1011 7.08187 10.2407 7.38771 10.1456L7.33171 9.12015L7.33259 9.12002Z" fill="#E6D89C"/>
<path fill-rule="evenodd" clip-rule="evenodd" d="M7.23306 9.37093C7.23306 9.37093 7.1845 9.4964 7.1845 9.69666C7.1845 9.90093 7.2537 10.2265 7.50858 10.2508C7.70394 10.2711 7.83498 9.7816 7.97698 9.59146C8.08498 9.44586 8.1505 9.44173 8.1505 9.44173C8.1505 9.44173 8.0401 9.24173 7.74522 8.98266C7.45394 8.72173 7.12746 8.68733 6.95026 9.08786C7.03402 9.07773 7.30466 8.9624 7.30466 8.9624L7.43698 9.0332L7.23306 9.37106V9.37093Z" fill="#252211"/>
<path fill-rule="evenodd" clip-rule="evenodd" d="M7.61408 9.63586C7.6056 9.6056 7.59952 9.56507 7.63472 9.55507C7.66992 9.54507 7.68568 9.55093 7.69784 9.59507C7.71 9.6392 7.72184 9.676 7.70384 9.69427C7.68568 9.7104 7.63832 9.69426 7.614 9.6356L7.61408 9.63586ZM7.55704 9.35066C7.55704 9.35066 7.54488 9.3648 7.55096 9.33653C7.55336 9.30226 7.5692 9.24146 7.608 9.25573C7.6468 9.27 7.6384 9.34067 7.632 9.36093C7.6256 9.3812 7.5932 9.41547 7.56888 9.40093C7.56579 9.39962 7.56294 9.39711 7.56055 9.39361C7.55816 9.39012 7.55629 9.38573 7.55511 9.38081C7.55392 9.37588 7.55345 9.37056 7.55373 9.36528C7.55401 9.36 7.55503 9.3549 7.55672 9.3504L7.55704 9.35066Z" fill="#6F674D"/>
<path fill-rule="evenodd" clip-rule="evenodd" d="M4.27197 9.47999C4.27197 9.47999 4.36797 9.59999 4.47949 9.59533C4.58989 9.59119 4.73189 9.40119 4.79741 9.27973C4.83621 9.20893 4.86941 9.13413 4.90541 9.07546C4.93581 9.02493 4.95637 9.00066 4.97093 8.96626C4.99157 8.92626 5.01341 8.85106 5.02437 8.82666C4.99765 8.86106 4.95885 8.92186 4.91877 8.96226C4.87997 9.00226 4.79621 9.07746 4.76221 9.09773C4.72949 9.11799 4.38965 9.41773 4.38965 9.41773L4.27197 9.47999Z" fill="#AC924C"/>
<path fill-rule="evenodd" clip-rule="evenodd" d="M4.4187 7.98549C4.4187 7.98549 4.47206 7.92482 4.57526 7.88629C4.67478 7.84629 4.87502 7.81549 4.87502 7.81549L5.04006 7.93549L5.10558 8.35016L4.98558 8.78109L4.8327 8.94109L4.6591 8.47589L4.4191 7.98629L4.4187 7.98549Z" fill="#9F8E57"/>
<path fill-rule="evenodd" clip-rule="evenodd" d="M4.20275 8.3556L4.14563 8.42667C4.14563 8.42667 4.16027 8.38213 4.17235 8.24667C4.18443 8.1112 4.24763 7.78147 4.33987 7.59133C4.43211 7.4012 4.42971 7.41133 4.42971 7.41133C4.42122 7.40874 4.4125 7.4092 4.40413 7.41267C4.39575 7.41615 4.38792 7.42255 4.38115 7.43147C4.39331 7.38667 4.47099 7.22667 4.54867 7.14667C4.62635 7.06667 4.65667 7.04147 4.73795 7.10667C4.81923 7.17187 4.83987 7.20573 4.89939 7.20173C4.95891 7.19773 5.00979 7.09253 5.00979 7.09253C5.00979 7.09253 5.02195 7.1572 4.97707 7.30693C4.93219 7.45667 4.75499 7.762 4.75499 7.762L4.38603 8.18267L4.20275 8.356V8.3556Z" fill="#EAC970"/>
<path fill-rule="evenodd" clip-rule="evenodd" d="M4.47566 7.93495C4.47566 7.93495 4.7427 7.99562 4.82398 7.87029C4.82638 7.88442 4.83614 7.88442 4.83614 7.89455C4.83549 7.90219 4.83335 7.90926 4.83006 7.91469C4.8389 7.91234 4.84783 7.911 4.85678 7.91069C4.86747 7.91599 4.87846 7.91939 4.88958 7.92082C4.89854 7.9205 4.90746 7.91912 4.9163 7.91669C4.91546 7.92674 4.91341 7.93641 4.91027 7.94511C4.90714 7.95382 4.90299 7.96138 4.89806 7.96735C4.91022 7.96735 4.92206 7.97135 4.92206 7.98749C4.92206 8.00362 4.92446 8.05229 4.9099 8.06242C4.89784 8.06798 4.885 8.06652 4.8735 8.05829C4.87446 8.09658 4.88071 8.13399 4.89174 8.16762C4.91574 8.24242 4.96694 8.32762 5.03574 8.30309C5.03574 8.30309 5.07206 8.44869 4.91918 8.77229C4.89862 8.81682 4.8767 8.87749 4.85006 8.92802C4.83954 8.96626 4.83149 9.00627 4.82606 9.04735C4.82606 9.04735 5.08462 8.88149 5.15862 8.50322C5.2339 8.12295 5.24846 7.74882 5.2339 7.39895C5.23142 7.29975 5.22174 7.22909 5.20718 7.17842C5.17078 7.05295 5.06878 7.07322 5.02758 7.14402C4.96806 7.24322 4.86854 7.48989 4.73022 7.65975C4.58942 7.82962 4.58342 7.85975 4.47534 7.93495H4.47566Z" fill="#D7BC6B"/>
<path fill-rule="evenodd" clip-rule="evenodd" d="M4.15534 8.48105C4.15534 8.48105 4.10438 8.53158 4.07766 8.72105C4.05094 8.91518 4.10166 9.15185 4.13102 9.22665C4.16038 9.30145 4.22702 9.50585 4.36526 9.51598C4.39948 9.51568 4.43331 9.50399 4.46478 9.48158C4.51304 9.4447 4.5583 9.3978 4.5995 9.34198C4.65902 9.26718 4.7075 9.20252 4.70142 9.19638C4.68686 9.18625 4.33494 8.70078 4.33494 8.70078L4.20262 8.45465L4.15526 8.48132L4.15534 8.48105Z" fill="#585136"/>
<path fill-rule="evenodd" clip-rule="evenodd" d="M4.48799 9.28603C4.48799 9.28603 4.55959 9.27603 4.60207 9.23149C4.64455 9.18696 4.35327 8.70563 4.35327 8.70563L4.37391 9.22563L4.48799 9.28603Z" fill="#453A25"/>
<path fill-rule="evenodd" clip-rule="evenodd" d="M4.17841 8.44454C4.17841 8.44454 4.14201 8.55987 4.14201 8.59027C4.13593 8.68934 4.15417 9.00081 4.16873 9.09987C4.18329 9.20507 4.26217 9.36481 4.36417 9.36481C4.42721 9.36481 4.51465 9.30014 4.51465 9.28401C4.51465 9.26374 4.42481 9.24401 4.40057 9.16867C4.38601 9.12867 4.37993 9.02921 4.37657 8.92867C4.37417 8.86401 4.37417 8.79321 4.38873 8.76867C4.42153 8.70801 4.42753 8.53401 4.42753 8.53401L4.54401 8.17334H4.39081L4.20753 8.36347L4.17841 8.44454Z" fill="#84754B"/>
<path fill-rule="evenodd" clip-rule="evenodd" d="M4.13354 8.55586C4.13354 8.55586 4.25355 8.29092 4.36171 8.23012C4.46987 8.16932 4.51827 8.20586 4.51827 8.20586L4.45515 8.47492L4.3653 8.64079L4.37138 8.72572C4.37138 8.72572 4.35674 8.95026 4.44658 9.10599C4.53642 9.26172 4.60314 9.25572 4.64202 9.25572C4.6809 9.25572 4.7925 9.20106 4.84954 8.97652C4.9005 8.76626 4.94298 8.49652 4.84106 8.22612C4.74146 7.95706 4.56554 7.94666 4.53154 7.94666C4.49754 7.94666 4.23058 7.96892 4.13354 8.55545V8.55586Z" fill="#252211"/>
<path fill-rule="evenodd" clip-rule="evenodd" d="M7.21478 9.45589C7.1699 9.42149 7.21238 9.21122 7.25726 9.14642C7.30214 9.08162 7.35918 9.00695 7.45878 8.99669C7.4951 8.99269 7.5303 9.03109 7.5243 9.07162C7.51582 9.14642 7.4527 9.25162 7.39566 9.32642C7.31678 9.42962 7.26574 9.49429 7.21478 9.45589Z" fill="#F7F7E7"/>
<path fill-rule="evenodd" clip-rule="evenodd" d="M4.78758 8.30909C4.82038 8.30509 4.86286 8.34909 4.87134 8.40829C4.87982 8.47296 4.8507 8.60242 4.78758 8.60242C4.73662 8.60242 4.7099 8.49722 4.7099 8.46696C4.71047 8.44207 4.71465 8.41778 4.72206 8.39616C4.72446 8.39002 4.73054 8.31922 4.78758 8.30909Z" fill="#F8F6DE"/>
<path fill-rule="evenodd" clip-rule="evenodd" d="M4.31431 8.35559C4.31431 8.35559 4.23055 8.42026 4.19175 8.55559C4.16403 8.65553 4.15564 8.76736 4.16775 8.87559C4.17383 8.92612 4.20415 9.05146 4.22479 9.09599C4.24543 9.14052 4.27335 9.17092 4.29399 9.16679C4.31463 9.16266 4.35703 9.07172 4.35703 9.01719C4.35703 8.96266 4.35951 8.73199 4.39951 8.60652C4.43471 8.48119 4.31455 8.35572 4.31455 8.35572L4.31431 8.35559Z" fill="#D4C38B"/>
<path fill-rule="evenodd" clip-rule="evenodd" d="M4.32646 8.34546C4.3119 8.35959 4.28766 8.37986 4.29366 8.40613C4.29974 8.43039 4.3507 8.44613 4.36894 8.50533C4.38958 8.56599 4.38958 8.63066 4.3835 8.66106C4.39935 8.64851 4.41374 8.63135 4.42598 8.61039C4.4527 8.55986 4.48542 8.49119 4.51334 8.49119C4.53158 8.49119 4.54974 8.50533 4.56678 8.50533C4.5935 8.50533 4.62014 8.49119 4.62382 8.44466C4.62982 8.38399 4.57286 8.32933 4.54006 8.33946C4.54614 8.29946 4.55462 8.24039 4.5279 8.19986C4.50118 8.15933 4.4175 8.23026 4.39926 8.25053C4.38102 8.27079 4.32646 8.34559 4.32646 8.34559V8.34546Z" fill="#E2D59D"/>
<path fill-rule="evenodd" clip-rule="evenodd" d="M6.25486 12.5951L6.43446 12.5067L6.48542 12.5673C6.48542 12.5673 6.52174 12.6968 6.57886 12.7129C6.56062 12.7776 6.51326 12.8329 6.51574 12.8788C6.51822 12.9247 6.54246 12.9597 6.54246 12.9597C6.54246 12.9597 6.38102 13.4047 6.69902 13.8531C6.62374 13.9036 6.5279 13.9731 6.47694 14.0131C6.51326 14.0272 6.59094 14.0531 6.62374 14.1021C6.65654 14.1512 6.65654 14.1668 6.68686 14.1972C6.71718 14.2276 6.73534 14.268 6.72934 14.2861C6.7087 14.2659 6.6395 14.2053 6.62742 14.2619C6.61534 14.3184 6.32766 14.2963 6.32766 14.2963L5.84222 14.452C5.84222 14.452 5.86038 14.3711 5.80942 14.2963C5.74998 14.2073 5.67718 14.3003 5.5995 14.2012C5.49758 14.0717 5.4939 13.922 5.46118 13.8655C5.4939 13.8311 5.5607 13.7805 5.71966 13.7455C5.71358 13.7252 5.69294 13.6645 5.7051 13.61C5.71966 13.5392 5.7803 13.4947 5.76214 13.41C5.78886 13.3999 5.80094 13.3999 5.86774 13.2603C5.93086 13.1207 5.96966 13.0904 6.01822 13.0803C6.06678 13.0701 6.0959 13.0803 6.18574 12.9407C6.24878 12.8416 6.22822 12.7567 6.22822 12.7567C6.22822 12.7567 6.26942 12.7344 6.25494 12.5948L6.25486 12.5951Z" fill="#CBAC5A"/>
<path fill-rule="evenodd" clip-rule="evenodd" d="M5.72459 12.64C5.72699 12.6198 5.73675 12.6096 5.80227 12.6198C5.86779 12.6299 6.28283 12.5551 6.39571 12.545C6.50979 12.5308 6.91147 12.5408 7.10691 12.6096C7.30235 12.6784 7.50011 12.7594 7.59595 12.7998C7.69195 12.8443 7.72219 12.8603 7.71851 12.8806C7.71611 12.9008 7.69451 12.9206 7.68211 12.915C7.67003 12.911 7.35202 12.7491 7.25378 12.715C7.15554 12.6808 6.81562 12.5895 6.62978 12.595C6.45626 12.5991 6.38707 12.591 6.24027 12.6192C6.09339 12.6496 5.85066 12.69 5.77786 12.6739C5.70586 12.6598 5.72074 12.6598 5.72442 12.6395L5.72459 12.64Z" fill="#D6BC6F"/>
<path fill-rule="evenodd" clip-rule="evenodd" d="M6.70142 14.2253C6.70142 14.2253 6.95022 14.4498 7.04006 14.7249C7.10558 14.9292 7.00126 15.0304 7.00126 15.0304C7.00126 15.0304 7.14206 15.0304 7.12382 15.1598C7.11534 15.2406 6.8811 15.459 6.72454 15.5744C6.56558 15.6897 6.57166 15.6837 6.49398 15.7038C6.4187 15.7241 6.21238 15.6638 6.1699 15.7645C6.12742 15.8652 6.1459 15.9689 6.15774 15.985C6.1699 15.9992 6.26822 16.0194 6.26822 16.0194C6.26822 16.0194 6.24758 16.1145 6.04374 16.1246C5.8399 16.1348 5.78886 16.1589 5.7767 16.1954C5.76454 16.2297 5.8155 16.2096 5.90902 16.2354C6.00246 16.2597 6.1335 16.2754 6.1335 16.2754C6.1335 16.2754 6.09102 16.3361 5.98062 16.3846C5.85438 16.4392 5.65654 16.4898 5.5971 16.5505C5.62742 16.5849 5.67238 16.6354 5.6931 16.6394C5.64214 16.6597 5.57046 16.7042 5.55838 16.7204C5.57654 16.7406 5.60086 16.7649 5.60086 16.7649C5.60086 16.7649 5.49886 16.9692 5.43942 17.0198C5.37998 17.0705 5.03774 17.3353 4.91998 17.2848C4.6263 17.1553 4.5899 16.6193 4.5183 16.5789C4.4103 16.5182 4.35934 16.6394 4.26342 16.5545C4.3059 16.504 4.32902 16.4737 4.3739 16.4393C4.32534 16.3993 4.07414 16.1338 4.07414 16.1338C4.04787 16.0384 4.01872 15.9453 3.98678 15.8548C3.93822 15.7152 3.86678 15.529 3.81318 15.3652C3.6967 15.0052 3.69062 14.8393 3.58502 14.635C3.60326 14.595 3.6663 14.6006 3.6663 14.6006L4.5511 15.0861L6.11998 15.1618L6.52798 14.191L6.7015 14.2254L6.70142 14.2253Z" fill="#DFC677"/>
<path fill-rule="evenodd" clip-rule="evenodd" d="M4.37744 15.7058C4.38691 15.7234 4.39795 15.7384 4.41016 15.7504C4.44056 15.7848 4.48544 15.8253 4.51576 15.8858C4.52792 15.8556 4.55824 15.8009 4.61176 15.8858C4.66528 15.9708 4.73176 15.9102 4.77312 15.9304C4.8156 15.9548 4.818 15.9648 4.818 15.9648C4.818 15.9648 4.842 15.9304 4.89568 15.894C4.92848 15.8737 4.96728 15.8596 5.00976 15.8394C5.04856 15.8253 5.09104 15.805 5.12024 15.805C5.14696 15.8353 5.2428 16.005 5.62752 15.7545C5.9904 15.5198 6.07408 15.4936 6.1348 15.5298C6.14088 15.5056 6.14696 15.459 6.2404 15.4652C6.2404 15.4005 6.16272 15.18 6.16272 15.18L5.73432 14.9353H5.5L4.79736 15.1497L4.408 15.52L4.37768 15.7066L4.37744 15.7058Z" fill="#C4A859"/>
<path fill-rule="evenodd" clip-rule="evenodd" d="M4.14319 15.2953C4.14319 15.2953 4.15167 15.4045 4.24879 15.5199C4.34479 15.6351 4.37495 15.7039 4.37495 15.7039C4.37495 15.7039 4.39319 15.6639 4.40775 15.6231C4.42231 15.5785 4.43447 15.528 4.45871 15.5139C4.50727 15.4795 4.61767 15.5441 4.64199 15.534C4.66263 15.524 4.65655 15.4532 4.67839 15.4532C4.72935 15.4491 4.76207 15.5077 4.78031 15.5077C4.79855 15.5077 4.84335 15.5037 4.84943 15.4876C4.85551 15.4715 4.85791 15.3035 4.92711 15.2225C5.00239 15.1336 5.09463 15.172 5.11911 15.1923C5.11911 15.2225 5.12151 15.2975 5.17007 15.3015C5.21863 15.3055 5.22343 15.2913 5.26607 15.3156C5.30871 15.3399 5.35951 15.3116 5.38255 15.4308C5.40319 15.4208 5.45175 15.4107 5.43959 15.2953C5.46359 15.2651 5.48455 15.2448 5.53559 15.1255C5.54775 15.0952 5.56831 15.0608 5.58415 15.0163C5.62663 15.0163 5.67759 15.0021 5.74551 15.1012C5.72487 15.1255 5.71271 15.1412 5.70671 15.1659C5.72447 15.1952 5.74069 15.227 5.75519 15.2609C5.77343 15.3009 5.78559 15.35 5.80863 15.3601C5.85959 15.3844 5.94335 15.35 6.03679 15.3601C6.12663 15.3703 6.20183 15.4248 6.23463 15.4592C6.24679 15.4492 6.24679 15.4451 6.27711 15.4552C6.30743 15.4653 6.33047 15.4693 6.29775 15.4047C6.31591 15.4188 6.33655 15.4492 6.35479 15.4188C6.37303 15.3884 6.38751 15.344 6.43847 15.3339C6.48943 15.3237 6.50767 15.3379 6.52831 15.2489C6.55503 15.1397 6.46279 15.1397 6.46279 15.1397C6.46279 15.1397 6.50527 15.0749 6.55263 14.99C6.60967 14.9011 6.67519 14.7857 6.69095 14.6441C6.71767 14.3832 6.56479 14.3489 6.56479 14.3489L5.82327 14.7292L4.91671 14.6543L4.14367 15.2955L4.14319 15.2953Z" fill="#927D49"/>
<path fill-rule="evenodd" clip-rule="evenodd" d="M3.47698 11.7253C3.47698 11.7253 3.45298 11.7758 3.43818 11.8952C3.42338 12.0145 3.4297 12.0004 3.41754 12.0853C3.40538 12.1702 3.25602 13.0157 3.31202 13.3009C3.36802 13.5861 3.46498 13.6913 3.52562 13.9218C3.53778 13.9724 3.54962 14.0028 3.55594 14.0473C3.57658 14.1969 3.55842 14.3122 3.58266 14.462C3.59114 14.5125 3.61306 14.5712 3.64578 14.6318C3.71778 14.7572 3.83514 14.8765 3.88578 14.9614C3.9573 15.0869 4.0593 15.3418 4.18914 15.366C4.25834 15.3801 4.35666 15.3316 4.43794 15.2508C4.50994 15.1758 4.55442 15.0708 4.62994 15.0108C4.6833 14.9662 4.74034 14.9501 4.7913 14.9298C4.8969 14.8954 4.99282 14.8898 5.04986 14.9096C5.13722 14.94 5.34354 15.0452 5.45786 15.0452C5.54719 15.0428 5.63602 15.0224 5.72242 14.9845C5.89594 14.8996 6.10586 14.7538 6.24426 14.6892C6.32554 14.6492 6.39106 14.6386 6.45786 14.6144C6.57194 14.5698 6.66778 14.5092 6.72242 14.3938C6.68602 14.323 6.64113 14.2138 6.39833 14.2178C6.1229 14.228 5.8049 14.4828 5.64834 14.5233C5.49178 14.5638 5.42386 14.5981 5.24906 14.4929C5.0777 14.3866 5.07202 14.3164 5.07202 14.3164C5.07202 14.3164 4.8921 14.1066 4.81682 13.572C4.74154 13.0373 4.81682 12.6477 5.01226 12.2774C5.06322 12.1824 5.05106 12.0974 5.05106 12.0974C5.05106 12.0974 5.1797 11.8082 5.1445 11.5374C5.1057 11.2684 4.8569 11.323 4.8569 11.323L3.47706 11.7253H3.47698Z" fill="#6E6342"/>
<path fill-rule="evenodd" clip-rule="evenodd" d="M3.68447 12.6255C3.67377 12.659 3.66873 12.6968 3.66991 12.7347C3.67231 12.7892 3.68207 12.86 3.78031 13.0199C3.86407 13.1594 3.84583 13.3151 3.84583 13.3151C3.84583 13.3151 3.88799 13.3292 4.00239 13.24C4.09223 13.1692 4.12239 13.2947 4.12239 13.2947C4.14854 13.2718 4.17688 13.2568 4.20615 13.2502C4.23266 13.2461 4.25832 13.2324 4.28135 13.2102C4.28135 13.2102 4.38695 13.3902 4.47919 13.4751C4.56295 13.55 4.61151 13.6006 4.65279 13.55C4.69159 13.5055 4.69159 13.4144 4.68911 13.374C4.67948 13.3367 4.66729 13.3014 4.65279 13.2688C4.62607 13.2042 4.58359 13.1292 4.58079 13.0688C4.57471 12.9294 4.64391 12.7634 4.62927 12.723C4.61463 12.6826 4.56015 12.6724 4.42543 12.7534C4.28591 12.8302 3.68391 12.6259 3.68391 12.6259L3.68447 12.6255Z" fill="#39331F"/>
<path fill-rule="evenodd" clip-rule="evenodd" d="M4.00243 13.5296C4.00243 13.5296 3.93331 13.4204 3.95755 12.8904C3.98689 12.8897 4.01619 12.8944 4.04491 12.9045C4.04491 12.9045 4.08259 13.3152 4.00243 13.5296Z" fill="#292311"/>
<path fill-rule="evenodd" clip-rule="evenodd" d="M3.50973 11.3208C3.51938 11.3089 3.52833 11.2955 3.53645 11.2808C3.51245 11.3556 3.40165 11.6549 3.49149 12.1262C3.58133 12.5954 3.80701 12.9453 4.08493 12.9616C4.36285 12.9778 4.50893 12.7512 4.67597 12.4114C4.74149 12.276 4.81677 12.106 4.88349 11.9908C4.98301 11.8106 5.06069 11.7601 5.06069 11.5862C5.06069 11.2302 4.84221 11.0704 4.52061 10.9106C4.19901 10.7509 3.90893 10.7706 3.75845 10.88C3.61165 10.9992 3.54853 11.1246 3.50965 11.3209L3.50973 11.3208Z" fill="#252211"/>
<path fill-rule="evenodd" clip-rule="evenodd" d="M4.54248 13.6893L4.56648 13.6691C4.56648 13.6691 4.57248 13.5091 4.61136 13.5133C4.65016 13.5235 4.6684 13.6085 4.66472 13.6388C4.66232 13.6691 4.65264 13.7197 4.61376 13.7136C4.5628 13.7156 4.54224 13.6893 4.54224 13.6893H4.54248Z" fill="#3F3824"/>
<path fill-rule="evenodd" clip-rule="evenodd" d="M4.43451 13.0097C4.43451 13.0097 4.45851 12.9956 4.48787 13.0441C4.51187 13.0441 4.61651 13.0239 4.64931 13.0583C4.68211 13.0927 4.69179 13.1229 4.69179 13.1229C4.69179 13.1229 4.56923 13.1675 4.50243 13.1229C4.43451 13.0845 4.43451 13.0097 4.43451 13.0097Z" fill="#2D2815"/>
<path fill-rule="evenodd" clip-rule="evenodd" d="M4.97455 13.04C4.97455 13.0298 4.90903 12.955 4.83983 12.9306C4.82767 12.9266 4.82519 12.9408 4.81583 12.9408C4.80975 12.9368 4.80735 12.9064 4.80735 12.9064L4.76799 12.9409C4.76799 12.9409 4.76191 12.955 4.78255 12.9809C4.80071 13.0052 4.83111 13.0254 4.83959 13.0658C4.84807 13.1062 4.84807 13.1204 4.85175 13.1265C4.85415 13.1305 4.89663 13.1265 4.91727 13.1062C4.93791 13.086 4.97679 13.0529 4.97431 13.0396L4.97455 13.04Z" fill="#82764F"/>
<path fill-rule="evenodd" clip-rule="evenodd" d="M4.36169 13.4506C4.36169 13.4506 4.37377 13.3112 4.45513 13.305C4.53881 13.2949 4.55465 13.4304 4.55465 13.4304L4.50609 13.5113C4.50609 13.5093 4.46969 13.4244 4.36209 13.4506H4.36169Z" fill="#2D2816"/>
<path fill-rule="evenodd" clip-rule="evenodd" d="M4.88959 12.8498C4.88959 12.8498 4.84463 12.9308 4.74519 12.955C4.73671 12.9348 4.71847 12.8944 4.74519 12.8297C4.77191 12.765 4.80223 12.7448 4.83255 12.7649C4.84593 12.7685 4.85841 12.7784 4.86852 12.7935C4.87862 12.8085 4.88594 12.8281 4.88959 12.8498Z" fill="#574F35"/>
<path fill-rule="evenodd" clip-rule="evenodd" d="M5.07281 12.9491C5.07529 12.9288 5.06681 12.9248 5.07281 12.9147C5.07881 12.9045 5.11169 12.8844 5.11777 12.8944C5.12017 12.8985 5.11777 12.9147 5.11777 12.9344C5.11777 12.9541 5.11777 12.9744 5.11169 12.9889C5.10321 13.0092 5.07897 13.0193 5.06681 13.0133C5.05465 13.0073 5.05225 12.9789 5.05225 12.9733C5.05825 12.9693 5.07281 12.9592 5.07281 12.9491ZM5.28001 12.7307C5.28001 12.7205 5.30065 12.7003 5.31281 12.7003C5.33097 12.7003 5.33097 12.7245 5.33345 12.7307C5.33945 12.7347 5.33945 12.7265 5.34553 12.7448C5.35161 12.7631 5.36017 12.7953 5.35401 12.8156C5.34785 12.8359 5.32369 12.8499 5.31769 12.8459C5.30921 12.8357 5.28249 12.7448 5.28001 12.7307Z" fill="#82764F"/>
<path fill-rule="evenodd" clip-rule="evenodd" d="M4.86285 12.9956C4.86285 12.9956 4.88957 13.0056 4.92597 13.0563C4.91381 13.0704 4.89557 13.0866 4.89557 13.0866C4.89557 13.0866 4.89317 13.04 4.86285 12.9955V12.9956Z" fill="#6E6342"/>
<path fill-rule="evenodd" clip-rule="evenodd" d="M4.80345 12.5505C4.79737 12.5405 4.82161 12.5163 4.83617 12.5203C4.85073 12.5243 4.85681 12.5405 4.87257 12.5445C4.88833 12.5485 4.89081 12.5344 4.89657 12.5243C4.90233 12.5141 4.92329 12.5203 4.92689 12.5243C4.92913 12.5287 4.93116 12.5335 4.93297 12.5384C4.93322 12.5307 4.93443 12.5232 4.93651 12.5163C4.93858 12.5094 4.94149 12.5033 4.94505 12.4984C4.94971 12.4927 4.95507 12.4888 4.96075 12.4871C4.96643 12.4853 4.97228 12.4857 4.97785 12.4883C4.98025 12.5024 4.99241 12.5529 4.99001 12.5631C4.98761 12.5732 4.95121 12.5875 4.94505 12.5772C4.95113 12.6016 4.97785 12.6521 4.98145 12.6621C4.98505 12.6721 4.95473 12.6965 4.94265 12.6925C4.92569 12.6905 4.82129 12.5893 4.80313 12.5509L4.80345 12.5505ZM4.96241 12.2148C4.96016 12.2046 4.95587 12.196 4.95025 12.1905C4.94177 12.1865 4.91385 12.1905 4.91385 12.2148C4.91385 12.2391 4.93785 12.3748 4.96481 12.4455C4.99521 12.5163 5.01577 12.5748 5.03641 12.5911C5.04289 12.596 5.05025 12.5966 5.057 12.5929C5.06376 12.5891 5.0694 12.5812 5.07281 12.5708C5.07521 12.5607 5.08129 12.4859 5.07889 12.3099C5.07649 12.1339 5.07281 11.964 5.06673 11.9539C5.06065 11.9437 5.03641 11.9439 5.02793 11.964C5.01945 11.9841 4.96481 12.1845 4.96233 12.2148H4.96241Z" fill="#585136"/>
<path fill-rule="evenodd" clip-rule="evenodd" d="M4.85438 13.2504C4.85438 13.2504 4.8119 13.2059 4.77062 13.2363C4.73182 13.2667 4.73422 13.386 4.73422 13.386C4.74295 13.3917 4.75238 13.3938 4.7617 13.392C4.77101 13.3902 4.77992 13.3847 4.78766 13.3759C4.81438 13.3456 4.8483 13.2951 4.85438 13.2505V13.2504Z" fill="#574F35"/>
<path fill-rule="evenodd" clip-rule="evenodd" d="M4.93446 13.4103C4.93206 13.3703 4.91046 13.3703 4.91046 13.3496C4.91195 13.3397 4.91538 13.331 4.92021 13.3247C4.92504 13.3185 4.93099 13.3151 4.9371 13.3152C4.94926 13.3152 4.9611 13.3395 4.97598 13.3552C4.99054 13.3693 5.01238 13.3952 5.01478 13.426C5.01718 13.4568 4.99078 13.5412 4.96142 13.5412C4.93206 13.5412 4.94078 13.4501 4.9347 13.4097L4.93446 13.4103ZM5.1687 13.3556C5.1687 13.3556 5.12014 13.3799 5.12374 13.3556C5.12734 13.3313 5.13838 13.3253 5.15414 13.3253C5.16215 13.3114 5.17292 13.3027 5.18446 13.3009C5.19106 13.3004 5.19755 13.304 5.20262 13.3111C5.20262 13.3111 5.23542 13.2868 5.2451 13.3009C5.25478 13.3151 5.24758 13.3151 5.25358 13.3313C5.26122 13.3494 5.26623 13.3702 5.26822 13.392C5.26822 13.4081 5.23182 13.4425 5.20262 13.4365C5.1687 13.4244 5.1747 13.3657 5.1687 13.3556ZM5.45142 13.2645C5.45142 13.2645 5.46598 13.2787 5.4539 13.2949C5.44542 13.3091 5.40294 13.3349 5.36646 13.3395C5.33006 13.3395 5.29734 13.3495 5.29734 13.3293C5.29734 13.3092 5.32766 13.2687 5.34582 13.2585C5.34946 13.2509 5.35409 13.2448 5.35935 13.2406C5.36462 13.2364 5.37038 13.2342 5.37622 13.2343C5.39078 13.2343 5.44774 13.2241 5.46358 13.2201C5.47814 13.216 5.4903 13.2301 5.48174 13.2504C5.47814 13.2645 5.45142 13.2645 5.45142 13.2645ZM5.53518 12.64C5.53518 12.64 5.51694 12.7047 5.49638 12.7047C5.47574 12.7007 5.47574 12.6905 5.47574 12.6804C5.47574 12.6663 5.49638 12.6299 5.4939 12.6197C5.4879 12.6197 5.47326 12.6197 5.47574 12.5955C5.47574 12.5752 5.49638 12.5509 5.51454 12.5555C5.52826 12.5367 5.54535 12.526 5.5631 12.5252C5.58374 12.5252 5.6019 12.5352 5.6019 12.5555C5.6019 12.5757 5.5779 12.6201 5.5691 12.6304C5.55942 12.6465 5.54726 12.6571 5.53518 12.6404V12.64ZM5.25846 13.8353C5.25846 13.8353 5.23446 13.8395 5.23446 13.8596C5.23446 13.8697 5.24046 13.8697 5.24902 13.8637C5.25395 13.8633 5.25884 13.8619 5.26358 13.8596C5.26598 13.8637 5.26598 13.8839 5.28422 13.8839C5.2992 13.8805 5.31363 13.8723 5.3267 13.8596C5.34126 13.8496 5.35342 13.8393 5.35342 13.8196C5.34734 13.7852 5.33518 13.7689 5.31702 13.7689C5.30772 13.768 5.29844 13.7715 5.2903 13.7791C5.2903 13.7791 5.28422 13.7588 5.26358 13.7791C5.24294 13.7993 5.24534 13.7993 5.25142 13.8095C5.2623 13.8256 5.2587 13.8361 5.2587 13.8361L5.25846 13.8353ZM5.12134 14.0457C5.12134 14.0356 5.15166 14.0153 5.16014 14.0215C5.16862 14.0255 5.19286 14.1023 5.19286 14.1104C5.19286 14.1205 5.16254 14.1448 5.15038 14.1448C5.13822 14.1448 5.11766 14.1104 5.11766 14.1048C5.11766 14.1008 5.13222 14.0948 5.13222 14.0907C5.13582 14.0807 5.12134 14.0563 5.12134 14.0461V14.0457ZM5.02534 13.7504C5.03142 13.7464 5.03142 13.7363 5.0399 13.7261C5.04256 13.7232 5.04558 13.7213 5.04874 13.7206C5.0519 13.7199 5.05512 13.7204 5.05814 13.7221C5.06028 13.7158 5.06324 13.7103 5.06681 13.7061C5.07038 13.7018 5.07447 13.699 5.07878 13.6977C5.09334 13.6937 5.1055 13.6977 5.10278 13.7079C5.10278 13.7383 5.11494 13.7584 5.11494 13.7827C5.11494 13.8069 5.10646 13.8373 5.07614 13.8576C5.04582 13.8717 5.00454 13.8717 4.99846 13.8677C4.99238 13.8637 4.9863 13.8232 4.99238 13.8029C4.99846 13.7827 5.01542 13.7605 5.02518 13.7504H5.02534Z" fill="#82764F"/>
<path fill-rule="evenodd" clip-rule="evenodd" d="M5.06398 13.7642C5.06398 13.7642 5.04334 13.7844 5.04334 13.7946C5.04151 13.8043 5.04069 13.8146 5.04094 13.8248C5.04094 13.8308 5.06766 13.8208 5.07126 13.8147C5.07246 13.8107 5.06398 13.7747 5.06398 13.7642Z" fill="#6E6342"/>
<path fill-rule="evenodd" clip-rule="evenodd" d="M4.88352 13.6691C4.8956 13.6732 4.91624 13.6691 4.932 13.6792C4.94416 13.6893 4.95264 13.7096 4.94048 13.7339C4.92832 13.7582 4.91648 13.7945 4.88952 13.7884C4.8592 13.7844 4.83008 13.7581 4.83008 13.7379C4.82957 13.7251 4.8306 13.7122 4.8331 13.7C4.8356 13.6879 4.83952 13.6767 4.84464 13.6671C4.8568 13.651 4.8628 13.6611 4.88344 13.6691H4.88352Z" fill="#585136"/>
<path fill-rule="evenodd" clip-rule="evenodd" d="M4.86893 13.6893C4.86893 13.6893 4.83013 13.7399 4.82037 13.7643C4.80821 13.7885 4.74877 13.9139 4.73061 13.9401C4.73664 13.9224 4.74352 13.9055 4.75117 13.8896C4.72717 13.9152 4.70918 13.9537 4.70021 13.9988C4.68565 14.0737 4.78157 14.1141 4.84461 14.1445C4.90765 14.1749 4.93205 14.1845 4.93205 14.1845C4.90884 14.1264 4.88892 14.0648 4.87253 14.0005C4.84853 13.9055 4.83613 13.8953 4.85189 13.8508C4.86405 13.8063 4.88229 13.776 4.88229 13.7416C4.87501 13.7096 4.86893 13.6893 4.86893 13.6893Z" fill="#574F35"/>
<path fill-rule="evenodd" clip-rule="evenodd" d="M3.48545 13.8492C3.49428 13.8519 3.50334 13.8519 3.51217 13.8492C3.53033 13.8451 3.71969 13.7292 3.91753 13.75C4.06564 13.7649 4.21243 13.8051 4.35561 13.87C4.60441 13.9792 4.91385 14.1956 5.11409 14.3191C5.16745 14.3533 5.21969 14.4141 5.25809 14.4383C5.41105 14.5375 5.41705 14.5375 5.50689 14.5637C5.61249 14.588 5.72049 14.5293 5.83337 14.4889C5.97169 14.4383 6.20833 14.414 6.41585 14.3635C6.48295 14.348 6.54914 14.3229 6.61369 14.2887C6.61369 14.2887 6.44865 14.5637 6.05297 14.6628C5.89303 14.7033 5.73051 14.7067 5.57001 14.6729C5.44377 14.6527 5.36009 14.6223 5.29697 14.592C5.22537 14.5576 5.07849 14.4665 4.89769 14.392C4.77145 14.3373 4.63065 14.2969 4.46929 14.2464C4.07121 14.1249 3.63921 13.9855 3.48529 13.85L3.48545 13.8492Z" fill="#252211"/>
<path fill-rule="evenodd" clip-rule="evenodd" d="M3.03877 12.5992C2.94277 12.7346 2.84093 12.8641 2.74149 12.9894L2.44173 13.3733C2.33981 13.4986 2.24029 13.6281 2.13829 13.7536C2.03629 13.879 1.93445 13.9982 1.82629 14.1136C1.92229 13.9781 2.02413 13.8526 2.12605 13.7293C2.22797 13.606 2.33365 13.485 2.43197 13.36L2.73173 12.9756C2.83485 12.8502 2.93437 12.7208 3.03877 12.5994V12.5992ZM2.50845 14.015C2.50845 14.015 2.61645 13.8653 2.75117 13.655C2.91861 13.3942 3.12373 13.0604 3.18925 12.9998L2.50837 14.0152L2.50845 14.015Z" fill="#CFB66C"/>
<path fill-rule="evenodd" clip-rule="evenodd" d="M2.50848 14.015C2.56192 13.926 2.61896 13.8391 2.676 13.754L2.76336 13.6287C2.79008 13.5887 2.82048 13.5438 2.84712 13.4992C2.90048 13.4103 2.95272 13.3151 3.00608 13.2242C3.03253 13.1784 3.0605 13.1352 3.08984 13.0947C3.10452 13.073 3.12081 13.0547 3.13832 13.04C3.15296 13.0259 3.16872 13 3.18928 12.9955C3.1772 13.0259 3.16264 13.04 3.15048 13.0663C3.13592 13.0866 3.12376 13.1108 3.11168 13.131C3.08496 13.1755 3.05464 13.2159 3.02792 13.2564C2.97088 13.3374 2.91144 13.4164 2.8544 13.5011C2.79736 13.5858 2.744 13.6771 2.68688 13.762C2.62504 13.8491 2.568 13.934 2.50848 14.0154V14.015ZM3.23424 13.2059C3.23424 13.2059 2.83864 13.8512 2.75728 13.9563L3.23424 13.2059Z" fill="#CFB66C"/>
<path fill-rule="evenodd" clip-rule="evenodd" d="M3.23422 13.2059C3.19864 13.2745 3.16048 13.3394 3.11998 13.4L2.99998 13.5901C2.96118 13.6548 2.9247 13.7196 2.8835 13.7843C2.84102 13.8449 2.80222 13.9043 2.75726 13.9603L2.87374 13.7701C2.91262 13.7055 2.9551 13.6509 2.99638 13.5861L3.11286 13.396C3.15286 13.3293 3.19174 13.2645 3.23422 13.2059ZM3.25238 13.5557C3.21592 13.7254 3.17295 13.8909 3.12374 14.0513C3.02182 14.3912 2.86894 14.8159 2.80214 15.0324L3.25238 13.5557Z" fill="#CFB66C"/>
<path fill-rule="evenodd" clip-rule="evenodd" d="M3.25238 13.5558C3.25238 13.6306 3.24022 13.6954 3.22566 13.7601C3.21147 13.8248 3.19529 13.8883 3.17718 13.9502C3.15894 14.0109 3.1383 14.0757 3.11766 14.1344C3.09702 14.193 3.07278 14.2536 3.05454 14.3144L2.93198 14.6744C2.8895 14.7944 2.84822 14.915 2.80334 15.0304C2.83366 14.9009 2.87494 14.7796 2.91382 14.6602C2.9563 14.5402 2.9951 14.4202 3.03382 14.2961C3.05273 14.2343 3.06974 14.1708 3.08478 14.1061C3.10294 14.0413 3.1211 13.9806 3.13574 13.922C3.1539 13.8573 3.16846 13.7965 3.1867 13.738C3.20726 13.6752 3.2243 13.6145 3.25222 13.5558H3.25238Z" fill="#CFB66C"/>
<path fill-rule="evenodd" clip-rule="evenodd" d="M3.68447 15.2144C3.68447 15.2144 3.56447 15.4794 3.57647 15.8151C3.60919 15.6392 3.65047 15.3701 3.68447 15.2144ZM3.79855 15.48C3.79855 15.48 3.75607 16.2 3.72087 16.554C3.77063 16.1448 3.78031 16.1792 3.79855 15.48ZM4.59343 16.5966C4.59343 16.5966 4.41383 17.4765 4.41015 17.7211C4.44903 17.4696 4.52423 16.9559 4.59343 16.5959V16.5966Z" fill="#DEC270"/>
<path fill-rule="evenodd" clip-rule="evenodd" d="M5.01337 15.16C5.01337 15.16 5.30465 15.9609 5.52313 16.6445C5.46401 16.3005 5.32801 15.6696 5.01337 15.16Z" fill="#CBAF59"/>
<path fill-rule="evenodd" clip-rule="evenodd" d="M5.79614 16.3391C5.95607 16.8102 6.10029 17.2957 6.22814 17.7933C6.2039 17.4494 6.1383 16.8609 5.79614 16.3391Z" fill="#E3C677"/>
<path fill-rule="evenodd" clip-rule="evenodd" d="M8.09715 17.52C8.14563 17.4695 8.24155 17.1943 8.32531 17.1256C8.40899 17.0548 8.47211 17.0407 8.54739 16.9011C8.62259 16.7553 8.64339 16.6664 8.80827 16.5512C9.03891 16.3852 8.88027 16.1708 8.88027 16.1708C8.90568 16.1292 8.93284 16.0907 8.96155 16.0556C9.02107 15.9808 9.09019 15.8897 9.08419 15.7299C9.07571 15.4609 9.04539 15.0705 8.91307 14.844C9.04171 14.7995 9.28803 14.7692 9.44107 14.7045C9.61819 14.6296 9.69955 14.5244 9.69955 14.5244C9.69955 14.5244 9.59763 14.2352 9.76267 13.944C9.92771 13.6528 10.0624 13.4788 10.1619 13.1531C10.0479 13.1288 9.87395 13.0277 9.43011 13.3088C9.45407 13.3276 9.47719 13.3492 9.49931 13.3735C9.49931 13.3735 9.22627 13.4989 9.12675 13.6385C8.95315 13.8832 8.93131 14.0835 8.74323 14.2332C8.55515 14.3829 8.36579 14.3424 8.20931 14.4637C8.05283 14.5851 8.02971 14.6883 7.97259 14.7328C7.98475 14.7571 7.97019 14.7975 7.99323 14.8319C7.97867 14.8663 7.89371 15.0968 7.80755 15.0968C7.81603 15.1515 7.88883 15.1919 7.88883 15.1919C7.88883 15.1919 7.83547 15.2567 7.69955 15.2728C7.76867 15.3928 7.83427 15.5236 8.01507 15.7137C8.00051 15.7643 7.93979 15.8392 7.96411 15.9343C7.99083 16.0293 8.06011 16.1588 8.33667 16.264C8.19587 16.274 8.03091 16.3287 7.80867 16.2781C7.58659 16.2336 7.55019 16.2073 7.41307 16.264C7.42763 16.2883 7.46643 16.2883 7.50043 16.3529C7.46403 16.3569 7.23587 16.3084 7.15819 16.4784C7.07691 16.6543 7.04171 16.9436 7.04779 17.1377C7.00531 17.1721 6.96403 17.2328 6.98467 17.3583C7.00531 17.4837 7.11331 17.5241 7.18251 17.6029C7.25163 17.6879 7.25771 17.7181 7.32331 17.698C7.39243 17.6737 7.49435 17.5585 7.55387 17.5585C7.61339 17.5585 7.65579 17.6333 7.65579 17.6333C7.65579 17.6333 7.81723 17.5039 7.83299 17.5281C7.84755 17.5524 7.83539 17.7081 7.85115 17.7324C7.86715 17.7507 8.04899 17.5707 8.09755 17.52H8.09715Z" fill="#ECD592"/>
<path fill-rule="evenodd" clip-rule="evenodd" d="M11.625 9.42561C10.8665 6.16107 8.99151 5.55627 8.99151 5.55627H3.64199L3.66263 8.88147H4.72799V16.3067H3.64191V19.6259H8.84343C10.097 19.6259 11.1019 17.5263 11.1019 17.5263C12.7111 13.7197 11.6249 9.42561 11.6249 9.42561H11.625ZM8.87135 15.2892C8.87135 15.2892 8.46335 16.2703 8.01943 16.2703H7.13143L7.11039 8.88961H8.24999C8.24999 8.88961 8.77799 9.07361 9.14687 10.8151C9.14687 10.8151 9.63591 13.3084 8.87135 15.2892Z" fill="white" fill-opacity="0.8"/>
</g>
<defs>
<clipPath id="clip0_34_13">
<rect width="15" height="25" fill="white"/>
</clipPath>
</defs>
</svg>
