<svg width="215" height="315" viewBox="0 0 215 315" fill="none" xmlns="http://www.w3.org/2000/svg">
<path d="M50.8203 93.4671C48.6767 95.3769 46.1018 96.7384 43.3164 97.4347C40.5311 98.131 37.6184 98.1413 34.8282 97.4648C33.397 97.099 32.0784 96.3849 30.9901 95.386C30.4796 94.8994 30.0961 94.2952 29.8731 93.6262C29.6501 92.9572 29.5943 92.2437 29.7108 91.5482C29.7108 89.4694 36.4274 91.5482 40.7453 88.6698C40.7453 88.6698 40.7453 88.6698 40.7453 87.8702C40.7453 87.0707 34.6683 87.8702 34.5084 86.9108C34.3484 85.9513 47.1421 83.5527 49.5409 86.9108C51.9397 90.2689 49.5409 90.7486 50.5004 93.627" fill="#EEC2AA"/>
<path d="M86.1628 40.3774C84.6927 41.2909 83.6109 42.7142 83.1243 44.3751C82.3756 45.95 81.8378 47.6168 81.5251 49.3323C80.402 55.7488 80.8967 62.3441 82.9644 68.5214C84.5636 74.7578 87.4421 80.1947 88.7215 86.4311C89.6824 92.3088 89.6824 98.3034 88.7215 104.181C87.677 107.676 87.677 111.4 88.7215 114.895C86.3387 114.641 84.0147 113.993 81.8449 112.976C80.8735 106.349 80.8735 99.6149 81.8449 92.9874C80.7271 85.1538 79.0706 77.4065 76.8874 69.8006C75.4855 75.2115 72.7973 80.2036 69.0513 84.3523C62.3256 88.7611 55.0723 92.3069 47.462 94.9063C48.1156 93.0504 48.2374 91.0488 47.8135 89.1274C47.3896 87.2059 46.437 85.4412 45.0632 84.0325C51.2361 81.996 56.7558 78.3533 61.0553 73.4785C68.0918 62.7646 65.533 47.0936 71.4501 41.4968C73.0816 39.7324 75.0603 38.3245 77.2619 37.3613C79.4636 36.3982 81.8406 35.9006 84.2437 35.9C84.2843 36.5923 84.2843 37.2864 84.2437 37.9788L86.1628 40.3774Z" fill="url(#paint0_linear_19_5003)"/>
<path d="M98.9563 229.39C98.9563 231.469 108.552 230.669 111.75 226.831V226.032C113.349 223.473 111.75 215.638 113.029 212.439C114.309 209.241 109.191 212.439 107.272 212.439C105.374 212.525 103.494 212.848 101.675 213.399C102.155 220.755 98.1567 223.473 98.9563 229.39Z" fill="#183589"/>
<g style="mix-blend-mode:multiply" opacity="0.34">
<path d="M98.9562 229.39C98.9562 231.468 108.551 230.669 111.75 226.831V226.032C112.417 224.526 112.692 222.875 112.549 221.234C111.43 223.953 111.11 225.872 108.551 227.311C106.02 228.539 103.164 228.931 100.395 228.43C99.7027 228.057 99.1631 227.452 98.8708 226.721C98.5785 225.991 98.5522 225.181 98.7963 224.432C98.4146 226.063 98.4146 227.759 98.7963 229.39" fill="#231F20"/>
</g>
<path d="M78.9661 203.005C75.9276 203.964 73.3689 207.642 67.4518 209.881C65.8526 209.881 63.4538 212.28 65.3729 213.879C68.4836 215.624 72.1363 216.138 75.6078 215.318L80.2455 214.199C82.1391 213.174 84.1191 212.318 86.1625 211.64C86.1625 211.64 86.1625 213.079 86.1625 213.239C86.1625 213.399 93.359 213.239 93.359 212.12C93.8414 208.94 93.8414 205.705 93.359 202.525L78.9661 203.005Z" fill="#183589"/>
<g style="mix-blend-mode:multiply" opacity="0.34">
<path d="M65.5328 213.718C67.0445 214.657 68.7296 215.283 70.4878 215.558C72.2461 215.832 74.0417 215.751 75.7677 215.317L80.4054 214.198C82.2456 213.178 84.1721 212.322 86.1626 211.64C86.1626 211.64 86.1626 213.079 86.1626 213.239C86.1626 213.399 93.359 213.239 93.359 212.119V210.68C93.4383 209.989 93.4383 209.292 93.359 208.601C93.359 213.079 86.3225 212.759 86.3225 211.959C86.3225 211.16 86.3225 210.68 86.3225 210.52C85.9112 210.36 85.4545 210.36 85.0431 210.52C78.9137 214.101 71.6423 215.189 64.7332 213.558L65.5328 213.718Z" fill="#231F20"/>
</g>
<path d="M95.7578 164.626C99.2009 181.009 101.34 197.638 102.155 214.358C106.199 215.735 110.585 215.735 114.628 214.358C114.628 213.399 114.628 212.759 114.628 211.959C115.773 201.339 116.253 190.658 116.068 179.978C115.859 174.596 115.163 169.243 113.989 163.987C113.27 158.038 113.27 152.025 113.989 146.077C113.989 137.762 115.908 130.086 116.548 121.611C117.135 117.528 116.752 113.364 115.428 109.458C113.349 104.661 110.311 106.42 105.993 105.94L99.436 104.661C96.4305 103.943 93.4888 102.98 90.6404 101.782C83.1241 98.744 81.6848 105.94 78.3265 105.62C74.4884 123.69 82.4844 153.593 79.6059 201.565V203.164C84.5634 207.482 94.4785 205.563 95.5979 203.164C96.7174 200.766 95.5979 175.18 97.1971 165.266L95.7578 164.626Z" fill="url(#paint1_linear_19_5003)"/>
<path d="M99.2763 47.4136C100.654 50.1834 101.103 53.3236 100.556 56.3684C100.139 59.3785 99.2196 62.2973 97.8371 65.0035C94.3342 72.351 90.4371 79.504 86.1629 86.4313C83.3523 79.7209 81.9049 72.5185 81.9049 65.2434C81.9049 57.9683 83.3523 50.7658 86.1629 44.0555C87.3089 46.0895 89.2041 47.5956 91.4446 48.2528C93.685 48.91 96.0936 48.6662 98.1569 47.5735L99.2763 47.4136Z" fill="white"/>
<path d="M102.154 26.3053C101.62 30.697 101.946 35.1508 103.114 39.4178C103.114 42.2962 100.235 43.5754 97.9966 45.6543C95.7577 47.7331 92.5593 49.9718 89.8406 49.0124C90.2579 47.6712 90.3595 46.2517 90.1376 44.8648C89.9156 43.4778 89.3762 42.161 88.5612 41.0169C94.6743 37.6288 99.4641 32.2758 102.154 25.8256V26.3053Z" fill="#F9CB9D"/>
<path d="M102.154 26.3053C101.62 30.697 101.946 35.1508 103.114 39.4178C103.114 42.2962 100.235 43.5754 97.9966 45.6543C95.7577 47.7331 92.2394 50.6114 89.8406 48.8524C90.4357 47.4876 90.6745 45.994 90.5346 44.5117C90.3947 43.0293 89.8808 41.6068 89.041 40.3773C94.8691 37.0701 99.4697 31.965 102.154 25.8256V26.3053Z" fill="#EEC2AA"/>
<path d="M113.029 116.494C104.554 123.37 90.9603 118.253 88.4015 118.413C86.8685 113.505 86.325 108.341 86.8023 103.222C85.9332 108.033 85.9332 112.962 86.8023 117.773C82.4845 117.773 78.9662 114.415 77.0472 113.776C77.0713 104.415 77.7123 95.0672 78.9662 85.7914C78.9662 75.7172 71.9297 50.6115 84.8833 37.8188C86.4888 38.1539 88.0112 38.8062 89.3611 39.7377C89.3611 39.7377 90.9603 41.6566 90.6404 42.1363C89.3235 43.646 88.1957 45.3107 87.2821 47.0935C86.157 50.0472 85.7726 53.2316 86.1627 56.3682C86.4188 62.2203 87.3854 68.0195 89.0412 73.6384C89.0412 71.3996 90.1607 69.4807 90.8003 67.4019C92.125 63.0232 94.2986 58.9481 97.1972 55.4088C99.4969 53.1076 101.634 50.6498 103.594 48.0529C104.576 46.744 105.245 45.2275 105.55 43.6198C105.855 42.012 105.788 40.3558 105.353 38.7782C108.362 40.3944 111.156 42.3822 113.669 44.6949C114.037 45.0089 114.329 45.4023 114.523 45.8455C114.717 46.2887 114.807 46.7701 114.788 47.2534C114.866 48.3181 114.866 49.3869 114.788 50.4516C112.913 56.6727 111.996 63.1433 112.07 69.6406C112.07 76.8365 110.63 80.5145 110.95 84.3523L113.029 116.494Z" fill="url(#paint2_linear_19_5003)"/>
<g style="mix-blend-mode:multiply">
<path d="M92.3996 49.8119C96.1502 48.0311 99.4764 45.4685 102.155 42.2962C103.226 40.8686 103.789 39.1236 103.754 37.339C104.584 37.6324 105.305 38.1726 105.819 38.8871C106.334 39.6016 106.618 40.4564 106.633 41.3367C107.912 49.4921 97.1973 50.1317 95.1183 57.3276C95.13 54.7308 94.2871 52.2022 92.7195 50.1317C91.8451 50.2388 91.0098 50.5567 90.2855 51.0581C89.5612 51.5595 88.9696 52.2294 88.5616 53.0101C88.5616 53.0101 88.5616 51.411 88.5616 50.9313C88.3984 50.8141 88.2027 50.7511 88.0018 50.7511C87.801 50.7511 87.6052 50.8141 87.4421 50.9313C87.0098 51.1034 86.6257 51.3777 86.3227 51.7308C86.5998 48.6216 88.0942 45.7478 90.4806 43.7354C91.041 45.9497 91.8456 48.0949 92.8794 50.1317L92.3996 49.8119Z" fill="#E6E6E6"/>
</g>
<path d="M90.4803 42.9357C90.7552 45.081 91.4625 47.1482 92.5593 49.0123C96.245 47.2714 99.5164 44.7635 102.155 41.6565C103.132 40.2012 103.531 38.4334 103.274 36.6993C104.094 37.0518 104.815 37.6009 105.373 38.2982C105.931 38.9954 106.309 39.8193 106.472 40.697C107.752 49.0123 97.0371 49.6519 95.118 56.6879C95.0049 54.063 94.1753 51.5191 92.7192 49.3321C91.8489 49.4519 91.019 49.7749 90.2966 50.2749C89.5743 50.775 88.9798 51.438 88.5613 52.2104C88.5613 52.2104 88.5613 50.6114 88.5613 50.1316H87.2819L86.3224 50.9312C86.433 49.3852 86.859 47.8783 87.574 46.5033C88.2891 45.1282 89.2782 43.9141 90.4803 42.9357Z" fill="white"/>
<path d="M105.513 38.7782C105.73 40.2053 105.627 41.6628 105.212 43.0455C104.797 44.4281 104.081 45.7014 103.114 46.7736C101.391 48.6877 99.46 50.4039 97.357 51.8907C94.923 53.9842 92.9436 56.554 91.5409 59.4417C90.1381 62.3294 89.3418 65.4739 89.2011 68.6811C86.5451 60.5324 87.059 51.6819 90.6404 43.8953C90.8993 43.2265 90.8993 42.4852 90.6404 41.8165C90.6404 41.8165 89.2011 41.8165 88.8812 41.8165C82.0047 51.5709 86.8023 64.5235 88.8812 73.7982C88.8812 75.3973 88.8812 78.4356 89.8408 80.3545C89.9266 78.4038 90.2488 76.4708 90.8003 74.5977C92.0277 68.4577 95.1617 62.8617 99.7558 58.6069C101.959 57.0629 103.995 55.2945 105.833 53.3299C107.447 51.2741 108.346 48.7474 108.392 46.134C108.44 43.6305 107.714 41.1732 106.313 39.098L105.513 38.7782Z" fill="url(#paint3_linear_19_5003)"/>
<path d="M86.1626 8.39555C83.6039 12.5532 84.8832 14.9518 84.0836 18.6297C81.6044 23.5827 81.0352 29.2748 82.4844 34.6206C82.9333 36.9376 84.2487 38.9962 86.1626 40.3773C91.1201 42.9359 99.9158 38.6183 102.155 30.1431C102.048 30.0389 101.964 29.9145 101.906 29.7772C101.848 29.6399 101.819 29.4925 101.819 29.3436C101.819 29.1947 101.848 29.0473 101.906 28.91C101.964 28.7727 102.048 28.6483 102.155 28.5441C106.472 26.3053 107.272 23.9067 106.632 22.6274C105.993 21.3482 105.673 21.1883 104.713 21.3482C103.638 21.7186 102.655 22.3188 101.835 23.1072C102.382 22.0437 102.667 20.865 102.667 19.6691C102.667 18.4732 102.382 17.2945 101.835 16.2311C96.2499 14.4136 90.9676 11.7727 86.1626 8.39555Z" fill="#EEC2AA"/>
<g style="mix-blend-mode:multiply" opacity="0.36">
<path d="M102.155 35.2603C102.104 34.6644 102.193 34.0649 102.415 33.5097C102.638 32.9544 102.986 32.4587 103.434 32.0621L106.952 28.3843C108.832 26.6025 110.25 24.3909 111.086 21.9397C111.922 19.4885 112.15 16.871 111.75 14.3123C111.75 14.3123 111.75 14.3123 111.75 13.3528C111.75 12.3934 110.79 9.51501 110.471 9.83482C109.84 8.20605 108.893 6.71786 107.686 5.45559C106.478 4.19332 105.033 3.1818 103.434 2.47901C100.334 1.24974 96.9379 0.971393 93.679 1.67946C89.681 2.47901 86.6425 4.71773 82.6445 4.07809C83.1129 6.30441 84.1142 8.38397 85.5625 10.1385C87.0109 11.8931 88.863 13.2704 90.9603 14.1524C92.4985 15.592 94.3724 16.6241 96.4113 17.1547C98.4503 17.6854 100.59 17.6977 102.635 17.1906C103.048 18.3596 103.219 19.6007 103.137 20.838C103.054 22.0753 102.72 23.2828 102.155 24.3865C104.873 22.3077 106.313 22.4676 106.792 22.9473C107.272 23.4271 106.792 25.5059 106.792 26.3054C105.944 27.568 104.71 28.5218 103.274 29.0239C102.661 31.1119 102.661 33.3322 103.274 35.4202L102.155 35.2603Z" fill="#F9CB9D"/>
</g>
<path d="M111.43 98.744C111.51 104.484 110.7 110.202 109.031 115.694C109.031 116.814 109.031 118.573 107.272 119.212C106.381 119.45 105.444 119.45 104.554 119.212C102.326 119.532 100.064 119.532 97.8368 119.212C99.0893 119.327 100.346 119.05 101.435 118.42C102.523 117.79 103.389 116.837 103.914 115.694C103.914 113.935 103.914 111.697 105.193 109.778C105.789 108.242 106.483 106.746 107.272 105.3L111.43 98.744Z" fill="url(#paint4_linear_19_5003)"/>
<path d="M110.151 121.611C110.399 121.921 110.716 122.17 111.077 122.336C111.438 122.503 111.832 122.583 112.229 122.57C113.15 122.608 114.066 122.425 114.901 122.035C115.736 121.646 116.465 121.061 117.027 120.332C118.109 118.811 118.821 117.059 119.106 115.215V112.496C119.264 111.597 119.264 110.677 119.106 109.778C119.106 109.778 118.147 109.778 117.667 109.778H115.908L112.389 108.339C112.389 108.339 110.79 107.379 110.47 108.339C108.747 109.159 107.382 110.581 106.632 112.336C106.632 113.296 105.193 117.613 106.632 117.134C106.888 117.089 107.127 116.977 107.324 116.808C107.521 116.639 107.669 116.42 107.752 116.174C107.826 115.644 107.826 115.105 107.752 114.575C108.076 115.671 108.076 116.837 107.752 117.933C107.752 118.733 107.752 119.532 107.752 120.332C107.991 120.749 108.343 121.09 108.767 121.316C109.191 121.543 109.671 121.645 110.151 121.611Z" fill="#EEC2AA"/>
<path d="M113.989 44.5352C116.49 46.5786 118.649 49.0077 120.386 51.7311C123.123 56.6412 124.709 62.1092 125.023 67.722C125.993 81.9898 124.533 96.3187 120.706 110.098C118.717 110.552 116.652 110.558 114.66 110.115C112.669 109.673 110.801 108.793 109.191 107.539C111.646 99.2331 112.885 90.6152 112.869 81.9539C109.132 69.76 109.469 56.6805 113.829 44.6951L113.989 44.5352Z" fill="url(#paint5_linear_19_5003)"/>
<path style="mix-blend-mode:multiply" opacity="0.22" d="M107.272 105.94C108.89 102.671 109.341 98.947 108.552 95.3861C107.55 90.1184 107.175 84.751 107.432 79.3952C107.755 76.4189 107.755 73.4165 107.432 70.4403C105.747 62.0639 107.351 53.3604 111.91 46.1341C110.6 43.0364 108.437 40.3745 105.673 38.4585C109.135 40.4216 112.355 42.7829 115.268 45.4945C111.43 49.6521 106.792 65.1633 110.95 60.0462C109.647 64.803 109.927 69.8549 111.75 74.438C111.155 78.4671 111.155 82.5619 111.75 86.5911C111.82 87.0682 111.82 87.5531 111.75 88.0302C111.823 89.4685 111.823 90.9095 111.75 92.3478C111.909 94.5303 111.909 96.7215 111.75 98.9041L107.272 105.94Z" fill="url(#paint6_linear_19_5003)"/>
<path d="M102.155 37.3389C102.376 35.6222 103.099 34.0091 104.234 32.7015C105.193 31.4223 106.472 30.143 107.592 28.8637C109.405 26.6627 110.704 24.0855 111.395 21.3194C112.087 18.5533 112.153 15.6678 111.59 12.8728C111.59 12.8728 111.59 12.8728 112.709 11.4337C112.402 11.5581 112.058 11.5581 111.75 11.4337C112.071 10.611 112.071 9.69774 111.75 8.87512C111.727 9.17733 111.627 9.46865 111.459 9.7208C111.291 9.97295 111.061 10.1774 110.79 10.3143C111.193 9.12131 111.193 7.82939 110.79 6.6364C110.79 6.6364 110.79 7.59586 110.79 7.91567C109.335 4.67441 106.707 2.10375 103.434 0.719781C100.199 -0.239927 96.7542 -0.239927 93.5189 0.719781C89.822 2.31863 85.8676 3.23943 81.8447 3.43822C82.5937 5.79442 83.8789 7.94488 85.5992 9.72063C87.3196 11.4964 89.4284 12.8491 91.7598 13.6724C93.27 14.9865 95.0969 15.8841 97.06 16.2767C99.0231 16.6693 101.055 16.5433 102.954 15.9111C103.39 16.9492 103.614 18.0636 103.614 19.1892C103.614 20.3149 103.39 21.4293 102.954 22.4674C105.513 20.3886 106.632 21.0282 107.272 21.348C107.623 21.7766 107.814 22.3133 107.814 22.8671C107.814 23.4209 107.623 23.9577 107.272 24.3863C106.016 25.8747 104.498 27.1211 102.794 28.0642C102.308 30.8683 102.308 33.7352 102.794 36.5394" fill="#4C4C4C"/>
<path d="M25.7127 83.8726H24.5933H20.9151H19.6357H18.0365H16.4373L14.0385 85.1519L11.4798 87.0708C9.31628 89.0878 7.38523 91.3406 5.72267 93.787L3.80363 96.5054C3.44027 97.337 3.01252 98.139 2.52427 98.904L1.56474 100.983C1.50166 101.621 1.50166 102.264 1.56474 102.902L0.765131 104.821V106.74V108.658V110.577V112.656C0.765131 112.656 0.765131 113.935 0.765131 114.735C0.685846 115.426 0.685846 116.123 0.765131 116.814C0.690825 117.665 0.690825 118.521 0.765131 119.372V122.251C0.60795 123.632 0.60795 125.027 0.765131 126.408C0.987499 128.979 1.88963 131.445 3.37903 133.552C4.86843 135.66 6.89152 137.333 9.24091 138.402L14.9981 140.48C12.7096 139.289 10.7435 137.561 9.26759 135.445C7.79167 133.328 6.84977 130.886 6.52228 128.327V124.33V121.451C6.44276 120.6 6.44276 119.744 6.52228 118.893C6.52228 118.893 6.52228 117.453 6.52228 116.654C6.59932 116.017 6.59932 115.372 6.52228 114.735V112.656V110.737V108.818C6.59101 108.181 6.59101 107.537 6.52228 106.899V104.981L7.16196 104.341C7.43816 103.6 7.81482 102.901 8.2814 102.262C8.64475 101.431 9.07251 100.629 9.56076 99.8635C10.0884 98.8693 10.6758 97.9081 11.3199 96.9851C13.0256 94.6213 14.9534 92.4258 17.077 90.4289L19.7957 88.3501L22.1945 86.9109L23.9536 86.1113H25.3929H26.6722H30.1905H31.3099L25.7127 83.8726Z" fill="url(#paint7_linear_19_5003)"/>
<path d="M17.0769 90.109C27.3119 81.4739 37.3868 84.9919 39.9456 97.9445C40.8939 105.096 40.1428 112.371 37.7533 119.178C35.3637 125.985 31.403 132.132 26.1924 137.122C15.9575 145.917 5.8825 142.399 3.32377 129.287C2.38831 122.136 3.14549 114.865 5.53431 108.06C7.92313 101.255 11.8768 95.1065 17.0769 90.109Z" fill="url(#paint8_linear_19_5003)"/>
<path style="mix-blend-mode:multiply" opacity="0.34" d="M0.12541 128.167C-0.0418301 126.84 -0.0418301 125.497 0.12541 124.17C0.0460472 123.212 0.0460472 122.249 0.12541 121.291C0.199717 120.44 0.199717 119.584 0.12541 118.733C0.12541 118.733 0.12541 117.294 0.12541 116.494C0.0599823 115.803 0.0599823 115.107 0.12541 114.415C0.20245 113.778 0.20245 113.134 0.12541 112.496V110.577C0.194145 109.94 0.194145 109.296 0.12541 108.659C0.056675 108.021 0.056675 107.377 0.12541 106.74C0.12541 106.74 0.12541 105.46 0.12541 104.821L1.08494 102.902L2.04445 100.663L6.20239 98.4244L7.96151 95.546C9.72228 93.1786 11.7035 90.9834 13.8786 88.9898C14.651 88.2493 15.5102 87.605 16.4373 87.0708L18.6762 85.7916L20.4353 84.992H22.0345H23.3139H26.992H28.1115L30.9901 85.9515L25.2329 83.8727H24.1135H20.4353H19.1559C18.6252 83.8022 18.0875 83.8022 17.5567 83.8727H15.9575L13.5587 85.1519L11 87.0708C8.83648 89.0879 6.90542 91.3406 5.24286 93.787L3.32381 96.5055C2.96046 97.3371 2.53271 98.1391 2.04445 98.9041L1.08494 100.983C1.02187 101.621 1.02187 102.264 1.08494 102.902L0.285334 104.821V106.74V108.659V110.577V112.656C0.285334 112.656 0.285334 113.936 0.285334 114.735C0.206051 115.426 0.206051 116.123 0.285334 116.814C0.211027 117.665 0.211027 118.521 0.285334 119.372V122.251C0.128155 123.632 0.128155 125.027 0.285334 126.408C0.507702 128.979 1.40982 131.445 2.89922 133.553C4.38862 135.66 6.41172 137.334 8.76111 138.402H10.8401C8.30834 137.796 5.98261 136.53 4.10024 134.732C2.21787 132.934 0.846256 130.669 0.12541 128.167Z" fill="url(#paint9_linear_19_5003)"/>
<path style="mix-blend-mode:screen" d="M39.9456 97.9445C40.8939 105.096 40.1428 112.371 37.7533 119.178C35.3637 125.985 31.403 132.132 26.1924 137.122C15.9575 145.917 5.8825 142.399 3.32377 129.287C2.38831 122.136 3.14549 114.865 5.53431 108.06C7.92313 101.255 11.8768 95.1065 17.0769 90.109C27.3119 81.4739 37.3868 84.9919 39.9456 97.9445ZM37.5468 100.023C35.3079 88.6698 26.5123 85.6315 17.7166 93.1473C13.2577 97.5556 9.89364 102.947 7.8941 108.89C5.89456 114.832 5.31516 121.161 6.20234 127.368C8.44123 138.561 17.2369 141.6 26.0325 134.084C30.6032 129.769 34.0872 124.433 36.1997 118.513C38.3122 112.593 38.993 106.257 38.1864 100.023H37.5468Z" fill="url(#paint10_linear_19_5003)"/>
<g style="mix-blend-mode:multiply">
<path d="M23.4737 95.5461C22.8226 96.7401 22.2354 97.9678 21.7146 99.224L19.3158 104.341L16.917 109.778L14.5182 114.895L15.4777 113.936L16.5971 112.656L17.8765 111.217L18.996 109.938L20.2753 108.499L21.3948 107.219C21.3948 107.219 21.3948 107.219 22.1944 107.219H28.5912C26.992 103.382 25.2328 99.5438 23.4737 95.706V95.5461ZM21.8745 109.298H28.5912L26.6721 111.697L20.7551 119.213L14.5182 117.933L15.7975 116.494L17.2368 114.735L18.5162 113.456L20.2753 111.537L21.3948 110.258L22.1944 109.298H21.8745ZM28.7511 111.857C26.0325 117.134 23.3138 122.411 20.7551 127.848L19.7956 129.447L18.0364 126.568L16.4372 123.85L14.6781 120.972H17.3967H20.5951L22.1944 120.332L28.4313 112.496" fill="#EAEFF4"/>
</g>
<path d="M24.913 96.5055L23.1539 100.183C23.1539 101.942 21.7146 103.542 20.915 105.3L18.3563 110.737C17.5141 112.4 16.7666 114.108 16.1174 115.854V116.654L16.917 115.695L18.0364 114.415L19.3158 112.976L20.4352 111.697L22.1943 110.418V109.138L22.9939 108.339H30.1904L24.913 96.8253V96.5055ZM23.3138 110.577C23.3138 110.577 24.1134 110.577 24.5931 110.577H29.3908L27.6316 112.976L22.1943 120.332L16.1174 119.053L17.3967 117.614L18.9959 116.014L20.1154 114.575L21.8745 112.656L22.1943 111.217L22.9939 110.258L23.3138 110.577ZM29.7106 112.656L21.7146 128.647C21.3854 129.147 21.1169 129.683 20.915 130.246L19.3158 127.368C19.3158 126.568 18.1963 125.609 17.5566 124.65L15.9574 121.771H18.836H21.8745C22.4458 121.108 22.9797 120.414 23.4737 119.692L29.7106 111.857" fill="url(#paint11_linear_19_5003)"/>
<path d="M83.604 262.171C83.604 270.006 89.8409 273.684 97.677 270.486C101.644 268.657 105.062 265.819 107.588 262.255C110.113 258.691 111.659 254.526 112.07 250.178C112.07 242.342 105.833 238.664 97.9968 241.862C94.0296 243.691 90.6121 246.529 88.0863 250.093C85.5605 253.657 84.0148 257.822 83.604 262.171Z" fill="#515151"/>
<path d="M90.4806 275.283C93.1291 275.199 95.7361 274.602 98.1568 273.524C102.985 271.215 107.105 267.653 110.086 263.208C113.068 258.764 114.802 253.602 115.108 248.259C115.222 246.023 114.768 243.796 113.79 241.783C112.811 239.77 111.339 238.037 109.511 236.745C107.284 235.513 104.78 234.867 102.235 234.867C99.6894 234.867 97.1857 235.513 94.9584 236.745C90.1323 239.014 86.0092 242.545 83.0252 246.964C80.0412 251.383 78.3073 256.527 78.0068 261.851C77.8624 264.091 78.3023 266.329 79.2835 268.348C80.2647 270.366 81.7535 272.095 83.604 273.364C85.6564 274.669 88.0492 275.337 90.4806 275.283ZM102.155 242.502C103.116 242.524 104.054 242.799 104.873 243.302C105.662 243.884 106.284 244.663 106.677 245.561C107.07 246.459 107.22 247.444 107.112 248.419C106.726 252.279 105.364 255.978 103.154 259.168C100.944 262.357 97.9582 264.931 94.4786 266.648C93.3704 267.236 92.135 267.544 90.8804 267.544C89.6259 267.544 88.3904 267.236 87.2822 266.648C86.742 265.987 86.3603 265.211 86.1663 264.379C85.9722 263.548 85.971 262.683 86.1628 261.851C86.5475 258.011 87.8914 254.328 90.071 251.143C92.2507 247.958 95.1961 245.371 98.6366 243.621C99.7544 243.094 100.938 242.717 102.155 242.502Z" fill="#C9C9C9"/>
<path d="M206.423 205.243C206.6 205.318 206.79 205.357 206.983 205.357C207.175 205.357 207.365 205.318 207.542 205.243L214.099 196.289C214.17 196.139 214.207 195.975 214.207 195.809C214.207 195.643 214.17 195.479 214.099 195.329C214.174 195.014 214.174 194.685 214.099 194.37L168.202 166.226C168.202 166.226 165.963 164.467 165.483 164.946L161.325 170.223C161.174 170.341 161.05 170.49 160.964 170.661C160.878 170.832 160.832 171.021 160.828 171.212C160.825 171.404 160.864 171.593 160.944 171.768C161.024 171.942 161.141 172.096 161.288 172.218C161.436 172.341 161.608 172.429 161.794 172.476C161.98 172.523 162.174 172.528 162.361 172.49C162.549 172.452 162.726 172.372 162.879 172.256C163.032 172.141 163.156 171.993 163.244 171.822L166.123 168.304L211.061 195.809L205.463 203.165C205.463 203.165 205.463 204.604 205.463 204.924L206.423 205.243Z" fill="url(#paint12_linear_19_5003)"/>
<path d="M202.585 211.96L150.93 178.858L145.493 244.741L188.032 274.004L202.585 211.96Z" fill="url(#paint13_linear_19_5003)"/>
<path d="M144.533 256.414L150.93 178.858L62.4943 221.554L79.4458 269.527L144.533 256.414Z" fill="url(#paint14_linear_19_5003)"/>
<path d="M188.032 274.004L200.985 213.559L120.066 256.894L122.944 303.748L188.032 274.004Z" fill="url(#paint15_linear_19_5003)"/>
<path d="M120.066 256.894L62.4944 221.554L74.3285 272.245L122.944 303.748L120.066 256.894Z" fill="url(#paint16_linear_19_5003)"/>
<path d="M200.986 213.559L208.662 205.563L157.487 170.703L150.93 178.858L200.986 213.559Z" fill="url(#paint17_linear_19_5003)"/>
<path d="M144.853 314.781C147.511 314.777 150.135 314.175 152.529 313.022C157.314 310.699 161.402 307.154 164.378 302.746C167.354 298.338 169.115 293.222 169.481 287.916C169.592 285.664 169.121 283.421 168.113 281.404C167.104 279.388 165.593 277.665 163.724 276.403C161.526 275.17 159.048 274.523 156.528 274.523C154.007 274.523 151.529 275.17 149.331 276.403C144.506 278.691 140.378 282.223 137.37 286.635C134.363 291.047 132.585 296.181 132.22 301.508C132.092 303.763 132.557 306.011 133.567 308.031C134.576 310.051 136.097 311.771 137.977 313.022C140.047 314.27 142.438 314.882 144.853 314.781ZM156.847 282.799C157.862 282.8 158.857 283.076 159.726 283.599C160.474 284.209 161.056 284.997 161.419 285.892C161.782 286.786 161.915 287.757 161.805 288.716C161.511 292.582 160.203 296.303 158.013 299.503C155.823 302.704 152.829 305.27 149.331 306.945C148.194 307.534 146.933 307.841 145.653 307.841C144.373 307.841 143.111 307.534 141.975 306.945C141.238 306.326 140.664 305.536 140.301 304.644C139.939 303.753 139.8 302.786 139.896 301.828C140.28 297.988 141.624 294.306 143.804 291.12C145.984 287.935 148.929 285.348 152.37 283.599C153.752 282.797 155.27 282.255 156.847 282V282.799Z" fill="url(#paint18_radial_19_5003)"/>
<path style="mix-blend-mode:multiply" d="M137.977 301.988C137.977 309.664 143.894 313.022 151.25 309.504C155.038 307.548 158.262 304.655 160.613 301.1C162.965 297.545 164.366 293.446 164.684 289.195C164.684 281.52 158.607 278.322 151.25 281.84C147.485 283.765 144.283 286.633 141.957 290.164C139.631 293.695 138.259 297.769 137.977 301.988Z" fill="url(#paint19_linear_19_5003)"/>
<path d="M208.662 205.563L188.032 274.004L200.986 213.558L208.662 205.563Z" fill="url(#paint20_linear_19_5003)"/>
<g style="mix-blend-mode:screen">
<path style="mix-blend-mode:screen" d="M120.066 258.973H121.185L202.105 216.277C202.442 216.082 202.723 215.803 202.919 215.466C203.116 215.13 203.221 214.748 203.224 214.358C203.213 213.988 203.121 213.625 202.955 213.293C202.79 212.962 202.554 212.671 202.265 212.439L152.21 177.899C151.869 177.702 151.483 177.599 151.09 177.599C150.697 177.599 150.311 177.702 149.971 177.899L61.5348 219.475C61.1675 219.649 60.8544 219.919 60.629 220.257C60.4037 220.595 60.2745 220.988 60.2555 221.394C60.2258 221.771 60.2995 222.149 60.4686 222.487C60.6376 222.825 60.8957 223.111 61.215 223.313L118.147 258.653C118.387 258.91 118.705 259.08 119.052 259.138C119.399 259.196 119.755 259.138 120.066 258.973ZM196.828 213.239L120.226 254.335L66.9721 222.354L150.131 181.417L196.828 213.239Z" fill="url(#paint21_linear_19_5003)"/>
</g>
<path d="M119.398 218.356H120.198H127.394H129.633C131.596 218.978 133.476 219.837 135.23 220.915L137.149 222.194L138.748 223.313L140.028 224.433L141.147 225.392L142.107 226.511L143.066 227.471L144.026 228.59V229.71L144.985 230.829C145.776 232.12 145.776 232.12 146.575 233.398C146.528 233.919 146.528 234.455 146.585 234.987C146.782 235.653 147.05 236.296 147.384 236.905C147.455 237.81 147.455 238.719 147.384 239.624C147.993 241.348 148.136 243.202 147.799 244.999C147.462 246.795 146.657 248.472 145.465 249.858L142.267 252.736C143.475 251.392 144.292 249.742 144.63 247.967C144.968 246.191 144.815 244.357 144.186 242.662C144.278 241.758 144.278 240.847 144.186 239.944C144.249 239.306 144.249 238.663 144.186 238.025C143.952 237.476 143.684 236.942 143.386 236.426C143.417 236 143.417 235.572 143.386 235.146C143.541 234.193 143.541 233.221 143.386 232.268V231.149L142.427 230.029V228.91L141.467 227.951L140.348 226.831L139.228 225.872C138.88 225.418 138.445 225.037 137.949 224.752L136.51 223.633L134.59 222.354C132.343 221.156 129.91 220.345 127.394 219.955C126.655 219.804 125.894 219.804 125.155 219.955H119.238H118.279H117.479L119.398 218.356Z" fill="url(#paint22_linear_19_5003)"/>
<path d="M127.394 219.955C118.439 217.237 112.841 222.514 115.08 231.629C116.501 236.523 119.072 241.006 122.577 244.705C126.082 248.405 130.42 251.213 135.23 252.897C144.186 255.455 149.783 250.338 147.544 241.223C146.123 236.329 143.553 231.846 140.048 228.147C136.543 224.447 132.204 221.639 127.394 219.955Z" fill="url(#paint23_linear_19_5003)"/>
<path style="mix-blend-mode:multiply" opacity="0.34" d="M148.663 239.464L147.704 236.746C147.767 236.108 147.767 235.465 147.704 234.827C147.733 234.294 147.733 233.76 147.704 233.228V231.948V230.669L143.386 229.55V228.43V227.471L142.427 226.352L141.307 225.392C141.02 224.942 140.638 224.56 140.188 224.273L138.908 223.153L137.469 222.034L135.55 220.755C133.725 219.704 131.796 218.846 129.793 218.196H127.554H121.957H120.997H120.198L118.598 219.635L121.797 216.597H122.596H127.394H129.633C131.596 217.219 133.476 218.078 135.23 219.156L137.149 220.435L138.748 221.554L140.028 222.674L141.147 223.633L142.107 224.753L143.066 225.712L144.026 226.831V227.951L144.985 229.07C145.783 230.355 145.783 230.355 146.585 231.637C146.528 232.16 146.528 232.696 146.584 233.228C146.782 233.894 147.05 234.537 147.384 235.147C147.455 236.051 147.455 236.96 147.384 237.865C147.993 239.589 148.136 241.443 147.799 243.24C147.462 245.037 146.657 246.713 145.465 248.099L144.346 249.059C145.818 247.955 146.987 246.496 147.742 244.818C148.497 243.14 148.814 241.298 148.663 239.464Z" fill="url(#paint24_linear_19_5003)"/>
<path style="mix-blend-mode:screen" d="M114.281 232.268C115.702 237.162 118.272 241.645 121.777 245.345C125.282 249.044 129.62 251.853 134.431 253.536C143.386 256.095 148.983 250.978 146.745 241.863C145.492 236.936 143.084 232.379 139.719 228.569C136.353 224.759 132.129 221.806 127.394 219.955C117.639 217.237 111.402 222.514 114.281 232.268ZM116.36 232.268C114.441 224.273 119.238 219.795 127.074 222.034C131.256 223.529 135.028 225.987 138.084 229.21C141.139 232.432 143.394 236.328 144.666 240.583C146.585 248.419 141.787 253.056 133.951 250.658C129.774 249.201 126.002 246.775 122.944 243.578C119.886 240.381 117.63 236.506 116.36 232.268Z" fill="url(#paint25_linear_19_5003)"/>
<g style="mix-blend-mode:multiply">
<path d="M124.196 225.232L126.275 226.991L129.313 229.709L132.512 232.428L135.55 234.986H134.431H133.151H132.192H130.912H129.793H124.196V226.031V225.232ZM129.153 234.347H128.194L130.113 235.306L136.03 238.344L139.708 235.626H138.429H136.989H135.87H134.111H132.991L129.153 234.347ZM129.313 239.144L139.068 247.14C139.371 247.493 139.756 247.767 140.188 247.939C140.121 247.194 140.121 246.445 140.188 245.7C140.188 244.901 140.188 244.101 140.188 243.302C140.188 242.502 140.188 241.862 140.188 241.063L138.589 242.342L136.67 243.621L135.07 242.662L128.833 239.464" fill="#EAEFF4"/>
</g>
<path d="M123 226L124.742 227.899L127.289 230.432L129.969 233.281L132.381 235.813H131.443H130.371H129.433H128.361H127.423H124.608H123V226.95V226ZM127.155 235.18H126.351H125.68L127.289 236.13L132.381 239.137L135.33 236.604H134.392H133.186H132.113L130.773 235.813H129.835L127.155 235.18ZM126.887 239.295L135.196 247.209L136 248C136 247.209 136 246.417 136 245.784C136 245.151 136 244.201 136 243.41C135.926 242.674 135.926 241.93 136 241.194L134.66 242.302L133.052 243.727L131.711 242.935L126.351 239.77" fill="url(#paint26_linear_19_5003)"/>
<path d="M162.097 221.234V222.194V223.153C162.07 223.686 162.07 224.22 162.097 224.752V226.831C162.256 228.747 162.256 230.672 162.097 232.588C162.02 233.332 162.02 234.082 162.097 234.827C162.007 235.409 162.007 236.003 162.097 236.586V238.025C162.097 238.025 162.097 238.025 162.097 239.304V240.583V241.863V242.982V244.261C162.066 244.634 162.066 245.008 162.097 245.381V246.5C162.048 246.925 162.048 247.354 162.097 247.779L161.137 249.058L159.378 252.896C158.76 253.566 158.062 254.157 157.299 254.655C156.128 255.876 154.64 256.748 153.002 257.171C151.364 257.595 149.64 257.554 148.024 257.054L144.346 255.775C145.981 256.186 147.695 256.167 149.321 255.718C150.946 255.27 152.428 254.408 153.621 253.216L155.54 251.457L156.819 250.018L158.259 248.259H159.378L159.333 248.326C159.987 247.181 159.987 247.181 160.641 246.037L160.657 246.02C160.715 245.596 160.715 245.165 160.657 244.741V243.621V242.342V241.063V239.784C160.657 239.784 160.657 238.824 160.657 238.345C160.733 237.761 160.733 237.169 160.657 236.586C160.734 235.895 160.734 235.198 160.657 234.507C160.902 232.596 160.902 230.661 160.657 228.75V226.671C160.747 226.142 160.747 225.601 160.657 225.072V223.953C160.725 223.69 160.725 223.415 160.657 223.153V222.354L162.097 221.234Z" fill="url(#paint27_linear_19_5003)"/>
<path d="M163.696 227.951C162.257 219.316 155.7 216.757 148.983 222.194C145.384 225.43 142.628 229.496 140.956 234.038C139.284 238.58 138.746 243.462 139.388 248.259C140.827 256.894 147.384 259.293 154.101 253.856C157.687 250.645 160.436 246.606 162.108 242.092C163.78 237.578 164.325 232.723 163.696 227.951Z" fill="url(#paint28_linear_19_5003)"/>
<path style="mix-blend-mode:multiply" opacity="0.38" d="M156.18 254.016L158.099 252.257L159.378 250.818L160.338 249.538C160.661 249.15 160.93 248.72 161.137 248.259V247.14C161.085 246.768 161.085 246.392 161.137 246.02V244.901C161.08 244.476 161.08 244.046 161.137 243.622V242.342C161.137 242.342 161.137 241.543 161.137 241.063V239.784C161.212 239.307 161.212 238.821 161.137 238.345C161.213 237.761 161.213 237.17 161.137 236.586C161.214 235.895 161.214 235.198 161.137 234.507C161.382 232.596 161.382 230.661 161.137 228.75C161.228 228.06 161.228 227.361 161.137 226.671V225.072C161.168 224.7 161.168 224.325 161.137 223.953V223.153V222.354H159.218L163.057 223.793V224.752V225.712C163.03 226.245 163.03 226.778 163.057 227.311V229.39C163.216 231.305 163.216 233.231 163.057 235.146C162.979 235.891 162.979 236.641 163.057 237.385C162.966 237.968 162.966 238.561 163.057 239.144V240.583C163.057 240.583 163.057 240.583 163.057 241.863V243.142V244.421V245.541V246.82C163.026 247.192 163.026 247.567 163.057 247.939V249.059C163.008 249.484 163.008 249.913 163.057 250.338L162.097 251.617L159.378 252.896C158.761 253.566 158.062 254.157 157.299 254.655C156.128 255.877 154.64 256.748 153.002 257.171C151.364 257.595 149.64 257.554 148.024 257.054H146.745C148.443 257.512 150.237 257.468 151.911 256.929C153.586 256.39 155.068 255.378 156.18 254.016Z" fill="url(#paint29_linear_19_5003)"/>
<path style="mix-blend-mode:screen" d="M148.983 222.194C145.384 225.43 142.628 229.496 140.956 234.038C139.284 238.58 138.746 243.462 139.388 248.259C140.827 256.894 147.384 259.293 154.101 253.856C157.592 250.709 160.284 246.777 161.952 242.383C163.621 237.989 164.219 233.261 163.696 228.59C162.257 219.316 155.7 216.277 148.983 222.194ZM148.983 224.273C154.9 219.476 160.657 221.714 161.777 229.23C162.21 233.302 161.684 237.419 160.24 241.251C158.795 245.083 156.474 248.524 153.461 251.297C147.544 255.935 141.947 253.856 140.667 246.34C140.261 242.241 140.831 238.104 142.332 234.268C143.833 230.433 146.222 227.007 149.303 224.273H148.983Z" fill="url(#paint30_linear_19_5003)"/>
<path d="M133.311 200.286C126.594 194.849 119.878 197.248 118.438 205.723C117.901 210.29 118.43 214.92 119.984 219.249C121.538 223.577 124.074 227.486 127.394 230.669C134.111 236.266 140.667 233.867 142.107 225.392C142.653 220.814 142.144 216.171 140.62 211.819C139.095 207.468 136.595 203.523 133.311 200.286Z" fill="url(#paint31_linear_19_5003)"/>
<path d="M127.394 195.809H131.552H132.512C132.875 195.687 133.268 195.687 133.631 195.809H135.23L136.829 197.088C138.319 198.314 139.661 199.709 140.827 201.246L141.947 203.165C142 203.643 142 204.126 141.947 204.604V206.043V207.322V208.442V209.721V211C141.875 211.424 141.875 211.856 141.947 212.28C141.947 212.28 141.947 213.079 141.947 213.559C141.947 214.039 141.947 214.518 141.947 214.838C141.947 215.158 141.947 215.798 141.947 216.277C141.947 216.757 141.947 217.397 141.947 217.876V219.795C141.947 220.755 141.947 221.714 141.947 222.514C141.846 224.213 141.288 225.853 140.33 227.261C139.373 228.668 138.053 229.791 136.51 230.509L132.831 231.788C135.069 232.203 137.381 231.78 139.327 230.6C141.273 229.421 142.718 227.567 143.386 225.392C143.463 224.488 143.463 223.578 143.386 222.674V220.755C143.457 220.224 143.457 219.686 143.386 219.156C143.464 218.679 143.464 218.193 143.386 217.716C143.386 217.716 143.386 216.917 143.386 216.437C143.386 215.957 143.386 215.478 143.386 215.158C143.386 214.838 143.386 214.198 143.386 213.879C143.315 213.455 143.315 213.023 143.386 212.599V211.32V210.041V208.762C143.386 208.762 143.386 207.962 143.386 207.482L142.427 205.883L141.307 204.124C138.894 202.375 136.186 201.075 133.311 200.286L131.552 199.007L130.113 198.208H128.833H123.876L127.394 195.809Z" fill="url(#paint32_linear_19_5003)"/>
<path style="mix-blend-mode:multiply" opacity="0.38" d="M144.826 224.593C144.91 223.688 144.91 222.778 144.826 221.874C144.988 221.245 144.988 220.585 144.826 219.955V218.356C144.748 217.88 144.748 217.394 144.826 216.917C144.826 216.917 144.826 216.117 144.826 215.638C144.916 215.216 144.916 214.78 144.826 214.358C144.897 213.935 144.897 213.503 144.826 213.079C144.897 212.656 144.897 212.223 144.826 211.8V210.521V209.401C144.886 208.923 144.886 208.44 144.826 207.962V206.683C144.826 206.683 144.826 205.563 144.826 205.084L143.546 203.325C142.439 201.741 141.151 200.292 139.708 199.007L137.949 197.888L136.51 196.928H135.39H134.431H125.955H124.196L127.394 195.809H131.552H132.512C132.875 195.687 133.268 195.687 133.631 195.809H135.23L136.83 197.088C138.319 198.314 139.661 199.709 140.828 201.246L141.947 203.165C142 203.643 142 204.126 141.947 204.604V206.043V207.322V208.442V209.721V211C141.875 211.424 141.875 211.856 141.947 212.28C141.947 212.28 141.947 213.079 141.947 213.559C141.947 214.039 141.947 214.518 141.947 214.838C141.947 215.158 141.947 215.798 141.947 216.277C141.947 216.757 141.947 217.397 141.947 217.876V219.795C141.947 220.755 141.947 221.714 141.947 222.514C141.846 224.213 141.288 225.853 140.33 227.261C139.373 228.668 138.053 229.791 136.51 230.509H135.23C137.229 230.55 139.198 230.014 140.9 228.964C142.602 227.915 143.965 226.397 144.826 224.593Z" fill="url(#paint33_linear_19_5003)"/>
<path style="mix-blend-mode:screen" d="M118.438 205.243C117.823 209.887 118.314 214.611 119.87 219.029C121.427 223.447 124.004 227.436 127.394 230.669C134.111 236.266 140.667 233.867 142.107 225.392C142.653 220.814 142.144 216.171 140.62 211.819C139.095 207.468 136.595 203.523 133.311 200.286C127.394 194.37 119.878 196.768 118.438 205.243ZM120.038 206.523C121.317 199.167 127.074 197.088 132.831 201.885C135.888 204.66 138.238 208.124 139.684 211.991C141.131 215.857 141.632 220.013 141.147 224.113C141.12 225.606 140.639 227.055 139.768 228.268C138.897 229.481 137.678 230.4 136.272 230.904C134.866 231.407 133.34 231.47 131.897 231.086C130.454 230.701 129.162 229.886 128.194 228.75C125.197 225.936 122.898 222.462 121.482 218.602C120.066 214.743 119.572 210.607 120.038 206.523Z" fill="url(#paint34_linear_19_5003)"/>
<g style="mix-blend-mode:multiply" opacity="0.48">
<path style="mix-blend-mode:multiply" opacity="0.48" d="M128.513 206.683H130.113H131.552C131.552 208.442 131.552 210.361 131.552 212.12H133.151V213.079V214.039H131.712V217.557L137.469 219.795V222.034L133.951 220.755L130.433 219.475H128.354V216.277H127.394C127.394 216.277 127.394 214.998 127.394 214.518C127.394 212.28 127.394 210.041 127.394 207.802C127.394 205.563 128.354 206.683 128.513 206.683Z" fill="url(#paint35_linear_19_5003)"/>
</g>
<path d="M127.394 207.162H128.833H130.432V212.759H131.872V213.719C131.872 214.518 131.872 214.838 131.872 214.678H130.592V218.196L136.35 220.595V222.833L132.671 221.394L129.153 220.115H127.074C127.124 218.832 127.231 217.551 127.394 216.277H125.795V214.678H127.394C127.394 214.678 127.394 210.041 127.394 207.802C127.394 205.563 127.394 207.002 127.394 207.162Z" fill="url(#paint36_linear_19_5003)"/>
<defs>
<linearGradient id="paint0_linear_19_5003" x1="46.8223" y1="75.7173" x2="90.4806" y2="75.7173" gradientUnits="userSpaceOnUse">
<stop stop-color="#FF8FBC"/>
<stop offset="1" stop-color="#FF5197"/>
</linearGradient>
<linearGradient id="paint1_linear_19_5003" x1="76.5674" y1="158.39" x2="116.068" y2="158.39" gradientUnits="userSpaceOnUse">
<stop stop-color="#FFDD02"/>
<stop offset="1" stop-color="#FFA900"/>
</linearGradient>
<linearGradient id="paint2_linear_19_5003" x1="37812" y1="1554.15" x2="37721.3" y2="1554.15" gradientUnits="userSpaceOnUse">
<stop stop-color="#FF8FBC"/>
<stop offset="1" stop-color="#FF5197"/>
</linearGradient>
<linearGradient id="paint3_linear_19_5003" x1="23119.3" y1="753.475" x2="23085.8" y2="753.475" gradientUnits="userSpaceOnUse">
<stop stop-color="#FF8FBC"/>
<stop offset="1" stop-color="#FF5197"/>
</linearGradient>
<linearGradient id="paint4_linear_19_5003" x1="13655.1" y1="519.527" x2="13643.5" y2="519.527" gradientUnits="userSpaceOnUse">
<stop stop-color="#FF8FBC"/>
<stop offset="1" stop-color="#FF5197"/>
</linearGradient>
<linearGradient id="paint5_linear_19_5003" x1="16171.7" y1="1251.97" x2="16155.4" y2="1251.97" gradientUnits="userSpaceOnUse">
<stop stop-color="#FF8FBC"/>
<stop offset="1" stop-color="#FF5197"/>
</linearGradient>
<linearGradient id="paint6_linear_19_5003" x1="9667.32" y1="1251.78" x2="9661.56" y2="1251.78" gradientUnits="userSpaceOnUse">
<stop stop-color="#FF8FBC"/>
<stop offset="1" stop-color="#FF5197"/>
</linearGradient>
<linearGradient id="paint7_linear_19_5003" x1="-5632.6" y1="38771.5" x2="-5699.44" y2="38772.3" gradientUnits="userSpaceOnUse">
<stop stop-color="#7C96EF"/>
<stop offset="1" stop-color="#7B58FF"/>
</linearGradient>
<linearGradient id="paint8_linear_19_5003" x1="-8328.29" y1="38790" x2="-8416.57" y2="38791" gradientUnits="userSpaceOnUse">
<stop stop-color="#7C96EF"/>
<stop offset="1" stop-color="#7B58FF"/>
</linearGradient>
<linearGradient id="paint9_linear_19_5003" x1="-5787.19" y1="36861" x2="-5854.74" y2="36861.7" gradientUnits="userSpaceOnUse">
<stop stop-color="#7C96EF"/>
<stop offset="1" stop-color="#7B58FF"/>
</linearGradient>
<linearGradient id="paint10_linear_19_5003" x1="-19948.4" y1="12192" x2="-19988.4" y2="12081.1" gradientUnits="userSpaceOnUse">
<stop stop-color="#7C96EF"/>
<stop offset="1" stop-color="#7B58FF"/>
</linearGradient>
<linearGradient id="paint11_linear_19_5003" x1="-9741.82" y1="3036.82" x2="-9757.73" y2="3007.58" gradientUnits="userSpaceOnUse">
<stop stop-color="white"/>
<stop offset="1" stop-color="#7B58FF"/>
</linearGradient>
<linearGradient id="paint12_linear_19_5003" x1="134.139" y1="1164.24" x2="129.192" y2="1174.02" gradientUnits="userSpaceOnUse">
<stop stop-color="#29ABE2"/>
<stop offset="0.29" stop-color="#1981D3"/>
<stop offset="0.58" stop-color="#0B5EC7"/>
<stop offset="0.82" stop-color="#0348BF"/>
<stop offset="0.98" stop-color="#0040BC"/>
</linearGradient>
<linearGradient id="paint13_linear_19_5003" x1="93.5396" y1="2630.76" x2="-366.46" y2="3219.56" gradientUnits="userSpaceOnUse">
<stop stop-color="#29ABE2"/>
<stop offset="0.29" stop-color="#1981D3"/>
<stop offset="0.58" stop-color="#0B5EC7"/>
<stop offset="0.82" stop-color="#0348BF"/>
<stop offset="0.98" stop-color="#0040BC"/>
</linearGradient>
<linearGradient id="paint14_linear_19_5003" x1="-441.591" y1="2460.07" x2="-450.887" y2="2901.62" gradientUnits="userSpaceOnUse">
<stop stop-color="#29ABE2"/>
<stop offset="0.29" stop-color="#1981D3"/>
<stop offset="0.58" stop-color="#0B5EC7"/>
<stop offset="0.82" stop-color="#0348BF"/>
<stop offset="0.98" stop-color="#0040BC"/>
</linearGradient>
<linearGradient id="paint15_linear_19_5003" x1="-70.9049" y1="2732.53" x2="-27.6956" y2="3795.51" gradientUnits="userSpaceOnUse">
<stop stop-color="#29ABE2"/>
<stop offset="0.29" stop-color="#1981D3"/>
<stop offset="0.58" stop-color="#0B5EC7"/>
<stop offset="0.82" stop-color="#0348BF"/>
<stop offset="0.98" stop-color="#0040BC"/>
</linearGradient>
<linearGradient id="paint16_linear_19_5003" x1="-266.958" y1="2613.38" x2="-1719.84" y2="3357.64" gradientUnits="userSpaceOnUse">
<stop stop-color="#29ABE2"/>
<stop offset="0.29" stop-color="#1981D3"/>
<stop offset="0.58" stop-color="#0B5EC7"/>
<stop offset="0.82" stop-color="#0348BF"/>
<stop offset="0.98" stop-color="#0040BC"/>
</linearGradient>
<linearGradient id="paint17_linear_19_5003" x1="68.952" y1="1246.81" x2="246.07" y2="1579.93" gradientUnits="userSpaceOnUse">
<stop stop-color="#29ABE2"/>
<stop offset="0.29" stop-color="#1981D3"/>
<stop offset="0.58" stop-color="#0B5EC7"/>
<stop offset="0.82" stop-color="#0348BF"/>
<stop offset="0.98" stop-color="#0040BC"/>
</linearGradient>
<radialGradient id="paint18_radial_19_5003" cx="0" cy="0" r="1" gradientUnits="userSpaceOnUse" gradientTransform="translate(150.93 295.752) rotate(180) scale(26.227 26.2251)">
<stop offset="0.02" stop-color="#0040BC"/>
<stop offset="0.15" stop-color="#0B5DC6"/>
<stop offset="0.43" stop-color="#27A6E0"/>
<stop offset="0.45" stop-color="#29ABE2"/>
<stop offset="0.7" stop-color="#1473CE"/>
<stop offset="0.9" stop-color="#054EC1"/>
<stop offset="1" stop-color="#0040BC"/>
</radialGradient>
<linearGradient id="paint19_linear_19_5003" x1="65.8687" y1="1228.82" x2="27.6623" y2="1354.33" gradientUnits="userSpaceOnUse">
<stop stop-color="#29ABE2"/>
<stop offset="0.29" stop-color="#1981D3"/>
<stop offset="0.58" stop-color="#0B5EC7"/>
<stop offset="0.82" stop-color="#0348BF"/>
<stop offset="0.98" stop-color="#0040BC"/>
</linearGradient>
<linearGradient id="paint20_linear_19_5003" x1="175.654" y1="2339.56" x2="351.635" y2="2100.85" gradientUnits="userSpaceOnUse">
<stop stop-color="#29ABE2"/>
<stop offset="0.29" stop-color="#1981D3"/>
<stop offset="0.58" stop-color="#0B5EC7"/>
<stop offset="0.82" stop-color="#0348BF"/>
<stop offset="0.98" stop-color="#0040BC"/>
</linearGradient>
<linearGradient id="paint21_linear_19_5003" x1="-82.7262" y1="2207.65" x2="-620.329" y2="2862.85" gradientUnits="userSpaceOnUse">
<stop stop-color="#29ABE2"/>
<stop offset="0.29" stop-color="#1981D3"/>
<stop offset="0.58" stop-color="#0B5EC7"/>
<stop offset="0.82" stop-color="#0348BF"/>
<stop offset="0.98" stop-color="#0040BC"/>
</linearGradient>
<linearGradient id="paint22_linear_19_5003" x1="14165" y1="18026.3" x2="14208.1" y2="18007.5" gradientUnits="userSpaceOnUse">
<stop stop-color="#7C96EF"/>
<stop offset="1" stop-color="#7B58FF"/>
</linearGradient>
<linearGradient id="paint23_linear_19_5003" x1="15188.7" y1="17499.3" x2="15239.9" y2="17477" gradientUnits="userSpaceOnUse">
<stop stop-color="#7C96EF"/>
<stop offset="1" stop-color="#7B58FF"/>
</linearGradient>
<linearGradient id="paint24_linear_19_5003" x1="13127" y1="16030.6" x2="13169.5" y2="16012.1" gradientUnits="userSpaceOnUse">
<stop stop-color="#7C96EF"/>
<stop offset="1" stop-color="#7B58FF"/>
</linearGradient>
<linearGradient id="paint25_linear_19_5003" x1="12893" y1="6986.29" x2="12887.4" y2="6911.78" gradientUnits="userSpaceOnUse">
<stop stop-color="#7C96EF"/>
<stop offset="1" stop-color="#7B58FF"/>
</linearGradient>
<linearGradient id="paint26_linear_19_5003" x1="3714.64" y1="-349.181" x2="3719.52" y2="-373.43" gradientUnits="userSpaceOnUse">
<stop stop-color="white"/>
<stop offset="1" stop-color="#7B58FF"/>
</linearGradient>
<linearGradient id="paint27_linear_19_5003" x1="13107.8" y1="-12741" x2="13088.5" y2="-12670.7" gradientUnits="userSpaceOnUse">
<stop stop-color="#5CE595"/>
<stop offset="1" stop-color="#01AFB2"/>
</linearGradient>
<linearGradient id="paint28_linear_19_5003" x1="17707.7" y1="-10254.9" x2="17646.9" y2="-10183.8" gradientUnits="userSpaceOnUse">
<stop stop-color="#5CE595"/>
<stop offset="1" stop-color="#01AFB2"/>
</linearGradient>
<linearGradient id="paint29_linear_19_5003" x1="11606.1" y1="-12628.3" x2="11624" y2="-12613" gradientUnits="userSpaceOnUse">
<stop stop-color="#5CE595"/>
<stop offset="1" stop-color="#01AFB2"/>
</linearGradient>
<linearGradient id="paint30_linear_19_5003" x1="7733.61" y1="-3426.32" x2="7697.1" y2="-3382.32" gradientUnits="userSpaceOnUse">
<stop stop-color="#5CE595"/>
<stop offset="1" stop-color="#01AFB2"/>
</linearGradient>
<linearGradient id="paint31_linear_19_5003" x1="8801.05" y1="-11428.7" x2="8800.83" y2="-11499.2" gradientUnits="userSpaceOnUse">
<stop stop-color="#FF8FBC"/>
<stop offset="1" stop-color="#FF5197"/>
</linearGradient>
<linearGradient id="paint32_linear_19_5003" x1="3987.4" y1="-11369.5" x2="3970.47" y2="-11436.9" gradientUnits="userSpaceOnUse">
<stop stop-color="#FF8FBC"/>
<stop offset="1" stop-color="#FF5197"/>
</linearGradient>
<linearGradient id="paint33_linear_19_5003" x1="5237.11" y1="-10560.2" x2="5266.79" y2="-10560.3" gradientUnits="userSpaceOnUse">
<stop stop-color="#FF8FBC"/>
<stop offset="1" stop-color="#FF5197"/>
</linearGradient>
<linearGradient id="paint34_linear_19_5003" x1="7166.84" y1="-4236.44" x2="7162.46" y2="-4182.07" gradientUnits="userSpaceOnUse">
<stop stop-color="#FF8FBC"/>
<stop offset="1" stop-color="#FF5197"/>
</linearGradient>
<linearGradient id="paint35_linear_19_5003" x1="-6133.19" y1="862.323" x2="-6111.75" y2="885.673" gradientUnits="userSpaceOnUse">
<stop stop-color="#FF8FBC"/>
<stop offset="1" stop-color="#FF5197"/>
</linearGradient>
<linearGradient id="paint36_linear_19_5003" x1="-5623.82" y1="479.418" x2="-5601.5" y2="503.866" gradientUnits="userSpaceOnUse">
<stop stop-color="white"/>
<stop offset="1" stop-color="#FF5197"/>
</linearGradient>
</defs>
</svg>
