<svg width="15" height="25" viewBox="0 0 15 25" fill="none" xmlns="http://www.w3.org/2000/svg">
<g clip-path="url(#clip0_49_155)">
<path d="M7.49999 11.3208C9.37567 11.3208 10.8962 8.78652 10.8962 5.66038C10.8962 2.53424 9.37567 0 7.49999 0C5.6243 0 4.10376 2.53424 4.10376 5.66038C4.10376 8.78652 5.6243 11.3208 7.49999 11.3208Z" fill="#88BDF3"/>
<path d="M7.49999 25C9.37567 25 10.8962 22.4657 10.8962 19.3396C10.8962 16.2134 9.37567 13.6792 7.49999 13.6792C5.6243 13.6792 4.10376 16.2134 4.10376 19.3396C4.10376 22.4657 5.6243 25 7.49999 25Z" fill="#3075EE"/>
<path d="M11.6037 18.1604C13.4794 18.1604 15 15.6261 15 12.5C15 9.37384 13.4794 6.8396 11.6037 6.8396C9.72806 6.8396 8.20752 9.37384 8.20752 12.5C8.20752 15.6261 9.72806 18.1604 11.6037 18.1604Z" fill="#5795F1"/>
<path d="M3.39623 18.1604C5.27191 18.1604 6.79245 15.6261 6.79245 12.5C6.79245 9.37384 5.27191 6.8396 3.39623 6.8396C1.52054 6.8396 0 9.37384 0 12.5C0 15.6261 1.52054 18.1604 3.39623 18.1604Z" fill="#205FEC"/>
<path d="M6.70052 11.1675C6.09517 10.9222 5.54197 10.4041 5.10146 9.66987C4.66094 8.93567 4.35007 8.01368 4.20288 7.00476C4.80716 7.25382 5.35916 7.77316 5.79932 8.50676C6.23948 9.24036 6.55109 10.1604 6.70052 11.1675Z" fill="#134BEF"/>
<path d="M4.1958 18.0071C4.34299 16.9982 4.65386 16.0762 5.09438 15.342C5.53489 14.6078 6.08809 14.0897 6.69344 13.8444C6.54401 14.8515 6.2324 15.7715 5.79224 16.5051C5.35208 17.2387 4.80008 17.758 4.1958 18.0071Z" fill="#0932E8"/>
<path d="M8.29956 13.8325C8.90491 14.0778 9.45811 14.5959 9.89863 15.3301C10.3391 16.0643 10.65 16.9863 10.7972 17.9953C10.1929 17.7462 9.64092 17.2269 9.20076 16.4933C8.7606 15.7597 8.44899 14.8397 8.29956 13.8325Z" fill="#164BEA"/>
<path d="M10.8043 6.99292C10.6571 8.00183 10.3462 8.92383 9.90571 9.65803C9.46519 10.3922 8.91199 10.9103 8.30664 11.1557C8.45607 10.1485 8.76768 9.22852 9.20784 8.49492C9.648 7.76132 10.2 7.24197 10.8043 6.99292Z" fill="#3170F1"/>
</g>
<defs>
<clipPath id="clip0_49_155">
<rect width="15" height="25" fill="white"/>
</clipPath>
</defs>
</svg>
