<svg width="216" height="69" viewBox="0 0 216 69" fill="none" xmlns="http://www.w3.org/2000/svg">
<g clip-path="url(#clip0_19_4944)">
<path d="M58.8517 39.3906C62.9092 37.3091 65.9851 35.723 66.2502 35.5996C67.0984 35.1783 67.9742 34.0629 66.2502 33.1966C65.6936 32.9241 62.6967 31.3874 58.8517 29.4057L53.5215 34.4352L58.8517 39.3905V39.3906Z" fill="#FFD900"/>
<path d="M53.5213 34.4349L36.5492 50.4166C36.9476 50.4659 37.3973 50.3672 37.9276 50.0949C39.0408 49.5255 50.8423 43.504 58.8516 39.3916L53.5213 34.4349Z" fill="#F43249"/>
<path d="M53.5213 34.435L58.8515 29.4302C58.8515 29.4302 39.1213 19.37 37.9275 18.7761C37.4778 18.5272 36.9738 18.4533 36.5228 18.5272L53.5213 34.435Z" fill="#00EE76"/>
<path d="M53.5214 34.4371L36.5229 18.5294C35.833 18.6784 35.25 19.2478 35.25 20.4125V48.5357C35.25 49.6016 35.7011 50.3694 36.5493 50.4434L53.5214 34.4371Z" fill="#00D3FF"/>
</g>
<path d="M98.2727 23C98.179 22.7131 98.0554 22.456 97.902 22.2287C97.7514 21.9986 97.571 21.8026 97.3608 21.6406C97.1534 21.4787 96.9176 21.3551 96.6534 21.2699C96.3892 21.1847 96.0994 21.142 95.7841 21.142C95.267 21.142 94.7969 21.2756 94.3736 21.5426C93.9503 21.8097 93.6136 22.2031 93.3636 22.723C93.1136 23.2429 92.9886 23.8807 92.9886 24.6364C92.9886 25.392 93.1151 26.0298 93.3679 26.5497C93.6207 27.0696 93.9631 27.4631 94.3949 27.7301C94.8267 27.9972 95.3125 28.1307 95.8523 28.1307C96.3523 28.1307 96.7926 28.0241 97.1733 27.8111C97.5568 27.5952 97.8551 27.2912 98.0682 26.8991C98.2841 26.5043 98.392 26.0398 98.392 25.5057L98.7159 25.5739H96.0909V24.6364H99.4148V25.5739C99.4148 26.2926 99.2614 26.9176 98.9545 27.4489C98.6506 27.9801 98.2301 28.392 97.6932 28.6847C97.1591 28.9744 96.5455 29.1193 95.8523 29.1193C95.0795 29.1193 94.4006 28.9375 93.8153 28.5739C93.233 28.2102 92.7784 27.6932 92.4517 27.0227C92.1278 26.3523 91.9659 25.5568 91.9659 24.6364C91.9659 23.946 92.0582 23.3253 92.2429 22.7741C92.4304 22.2202 92.6946 21.7486 93.0355 21.3594C93.3764 20.9702 93.7798 20.6719 94.2457 20.4645C94.7116 20.2571 95.2244 20.1534 95.7841 20.1534C96.2443 20.1534 96.6733 20.223 97.071 20.3622C97.4716 20.4986 97.8281 20.6932 98.1406 20.946C98.456 21.196 98.7188 21.4957 98.929 21.8452C99.1392 22.1918 99.2841 22.5767 99.3636 23H98.2727ZM101.225 29V20.2727H106.492V21.2102H102.282V24.1591H106.219V25.0966H102.282V28.0625H106.56V29H101.225ZM107.919 21.2102V20.2727H114.465V21.2102H111.721V29H110.664V21.2102H107.919ZM120.528 20.2727V29H119.471V20.2727H120.528ZM122.169 21.2102V20.2727H128.715V21.2102H125.971V29H124.914V21.2102H122.169ZM141.085 24.6364C141.085 25.5568 140.918 26.3523 140.586 27.0227C140.254 27.6932 139.798 28.2102 139.218 28.5739C138.638 28.9375 137.977 29.1193 137.232 29.1193C136.488 29.1193 135.826 28.9375 135.246 28.5739C134.667 28.2102 134.211 27.6932 133.879 27.0227C133.546 26.3523 133.38 25.5568 133.38 24.6364C133.38 23.7159 133.546 22.9205 133.879 22.25C134.211 21.5795 134.667 21.0625 135.246 20.6989C135.826 20.3352 136.488 20.1534 137.232 20.1534C137.977 20.1534 138.638 20.3352 139.218 20.6989C139.798 21.0625 140.254 21.5795 140.586 22.25C140.918 22.9205 141.085 23.7159 141.085 24.6364ZM140.062 24.6364C140.062 23.8807 139.935 23.2429 139.683 22.723C139.433 22.2031 139.093 21.8097 138.664 21.5426C138.238 21.2756 137.761 21.142 137.232 21.142C136.704 21.142 136.225 21.2756 135.796 21.5426C135.37 21.8097 135.031 22.2031 134.778 22.723C134.528 23.2429 134.403 23.8807 134.403 24.6364C134.403 25.392 134.528 26.0298 134.778 26.5497C135.031 27.0696 135.37 27.4631 135.796 27.7301C136.225 27.9972 136.704 28.1307 137.232 28.1307C137.761 28.1307 138.238 27.9972 138.664 27.7301C139.093 27.4631 139.433 27.0696 139.683 26.5497C139.935 26.0298 140.062 25.392 140.062 24.6364ZM149.782 20.2727V29H148.759L144.004 22.1477H143.918V29H142.862V20.2727H143.884L148.657 27.142H148.742V20.2727H149.782Z" fill="#4C5F8D"/>
<path d="M102.674 49V43.256H97.122V44.936H100.866C100.77 45.912 99.906 47.48 97.618 47.48C95.666 47.48 93.874 46.088 93.874 43.32C93.874 40.504 95.794 39.192 97.634 39.192C99.442 39.192 100.562 40.28 100.946 41.56L102.754 40.872C102.146 39 100.386 37.416 97.634 37.416C94.69 37.416 91.922 39.592 91.922 43.32C91.922 47.064 94.546 49.24 97.506 49.24C99.314 49.24 100.482 48.392 100.978 47.56L101.122 49H102.674ZM108.265 47.576C107.129 47.576 106.089 46.712 106.089 45.096C106.089 43.48 107.129 42.648 108.265 42.648C109.417 42.648 110.441 43.48 110.441 45.096C110.441 46.728 109.417 47.576 108.265 47.576ZM108.265 40.968C105.945 40.968 104.233 42.712 104.233 45.096C104.233 47.496 105.945 49.24 108.265 49.24C110.601 49.24 112.313 47.496 112.313 45.096C112.313 42.712 110.601 40.968 108.265 40.968ZM117.53 47.576C116.394 47.576 115.354 46.712 115.354 45.096C115.354 43.48 116.394 42.648 117.53 42.648C118.682 42.648 119.706 43.48 119.706 45.096C119.706 46.728 118.682 47.576 117.53 47.576ZM117.53 40.968C115.21 40.968 113.498 42.712 113.498 45.096C113.498 47.496 115.21 49.24 117.53 49.24C119.866 49.24 121.578 47.496 121.578 45.096C121.578 42.712 119.866 40.968 117.53 40.968ZM122.812 49.432C123.02 51 124.46 52.28 126.524 52.28C129.452 52.28 130.524 50.344 130.524 48.264V41.208H128.732V42.2C128.396 41.56 127.644 41.064 126.428 41.064C124.284 41.064 122.828 42.776 122.828 44.856C122.828 47.048 124.348 48.648 126.428 48.648C127.564 48.648 128.348 48.12 128.684 47.512V48.328C128.684 49.912 127.948 50.664 126.476 50.664C125.404 50.664 124.652 49.944 124.524 48.984L122.812 49.432ZM126.732 47.064C125.516 47.064 124.7 46.216 124.7 44.856C124.7 43.528 125.548 42.664 126.732 42.664C127.884 42.664 128.732 43.528 128.732 44.856C128.732 46.2 127.916 47.064 126.732 47.064ZM134.65 49V37.416H132.794V49H134.65ZM138.34 44.248C138.404 43.416 139.076 42.52 140.244 42.52C141.524 42.52 142.132 43.336 142.164 44.248H138.34ZM142.372 46.28C142.116 47.048 141.54 47.64 140.42 47.64C139.268 47.64 138.34 46.792 138.292 45.608H143.988C144.004 45.576 144.036 45.32 144.036 45.016C144.036 42.552 142.628 40.968 140.228 40.968C138.26 40.968 136.436 42.6 136.436 45.064C136.436 47.704 138.308 49.24 140.42 49.24C142.292 49.24 143.524 48.136 143.94 46.776L142.372 46.28ZM151.858 42.872V39.352H153.858C155.074 39.352 155.81 40.04 155.81 41.128C155.81 42.2 155.074 42.872 153.858 42.872H151.858ZM154.146 44.568C156.322 44.568 157.762 43.112 157.762 41.112C157.762 39.128 156.322 37.656 154.146 37.656H149.938V49H151.858V44.568H154.146ZM161.134 49V37.416H159.278V49H161.134ZM163.017 46.888C163.017 48.12 164.025 49.24 165.657 49.24C166.921 49.24 167.689 48.6 168.057 48.008C168.057 48.632 168.121 48.952 168.137 49H169.865C169.849 48.92 169.769 48.456 169.769 47.752V43.88C169.769 42.328 168.857 40.968 166.457 40.968C164.537 40.968 163.321 42.168 163.177 43.512L164.873 43.896C164.953 43.112 165.497 42.488 166.473 42.488C167.497 42.488 167.945 43.016 167.945 43.672C167.945 43.944 167.817 44.168 167.369 44.232L165.369 44.536C164.041 44.728 163.017 45.496 163.017 46.888ZM166.009 47.784C165.273 47.784 164.873 47.304 164.873 46.776C164.873 46.136 165.337 45.816 165.913 45.72L167.945 45.416V45.768C167.945 47.288 167.049 47.784 166.009 47.784ZM174.193 52.152L179.153 41.208H177.185L175.089 46.136L172.849 41.208H170.753L174.081 48.072L172.209 52.152H174.193Z" fill="#081537"/>
<rect x="0.5" y="0.5" width="214.5" height="68" rx="34" stroke="#081537"/>
<defs>
<clipPath id="clip0_19_4944">
<rect width="32" height="32" fill="white" transform="translate(35.25 18.5)"/>
</clipPath>
</defs>
</svg>
