<svg width="15" height="25" viewBox="0 0 15 25" fill="none" xmlns="http://www.w3.org/2000/svg">
<g clip-path="url(#clip0_43_152)">
<path d="M11.3281 7.61198C11.0547 7.31347 10.7031 7.31347 10.3906 7.61198L8.20312 10.0747L6.71875 11.6418L4.57031 14.1045C4.29687 14.403 3.94531 14.403 3.63281 14.1045L1.95312 12.1642C1.67969 11.8657 1.48437 11.2687 1.48437 10.5971V6.86571C1.48437 6.2687 1.64062 5.67168 1.95312 5.29855L3.63281 3.43288C3.90625 3.13437 4.25781 3.13437 4.57031 3.43288L6.25 5.37318C6.52344 5.67168 6.71875 6.2687 6.71875 6.94034V9.40303L8.20312 7.76124V5.22392C8.20312 4.62691 8.04687 4.02989 7.73437 3.65676L4.60937 0.149296C4.33594 -0.149212 3.98437 -0.149212 3.67187 0.149296L0.46875 3.73138C0.15625 4.02989 0 4.62691 0 5.22392V12.2388C0 12.8359 0.15625 13.4329 0.46875 13.806L3.63281 17.3135C3.90625 17.612 4.25781 17.612 4.57031 17.3135L6.71875 14.9254L8.20312 13.2836L10.3516 10.8956C10.625 10.5971 10.9766 10.5971 11.2891 10.8956L12.9687 12.7612C13.2422 13.0597 13.4375 13.6568 13.4375 14.3284V18.0597C13.4375 18.6568 13.2812 19.2538 12.9687 19.6269L11.3281 21.4926C11.0547 21.7911 10.7031 21.7911 10.3906 21.4926L8.71094 19.6269C8.4375 19.3284 8.24219 18.7314 8.24219 18.0597V15.6717L6.75781 17.3135V19.7762C6.75781 20.3732 6.91406 20.9702 7.22656 21.3433L10.3906 24.8508C10.6641 25.1493 11.0156 25.1493 11.3281 24.8508L14.4922 21.3433C14.7656 21.0448 14.9609 20.4478 14.9609 19.7762V12.6866C14.9609 12.0896 14.8047 11.4926 14.4922 11.1194L11.3281 7.61198Z" fill="#8247E5"/>
</g>
<defs>
<clipPath id="clip0_43_152">
<rect width="15" height="25" fill="white"/>
</clipPath>
</defs>
</svg>
