<svg width="21" height="20" viewBox="0 0 21 20" fill="none" xmlns="http://www.w3.org/2000/svg">
<g clip-path="url(#clip0_1_77)">
<path d="M10.5 0C16.2987 0 21 4.4774 21 10C21 15.5226 16.2985 20 10.5 20C4.70148 20 0 15.5238 0 10C0 4.4762 4.70064 0 10.5 0Z" fill="#53AE94"/>
<path d="M11.7963 8.66777V7.18017H15.3682V4.91357H5.64182V7.18017H9.21413V8.66657C6.31088 8.79357 4.12793 9.34117 4.12793 9.99717C4.12793 10.6532 6.31193 11.2008 9.21413 11.3286V16.0936H11.7971V11.3282C14.6951 11.2008 16.8737 10.6536 16.8737 9.99817C16.8737 9.34277 14.6951 8.79557 11.7971 8.66817M11.7971 10.9246V10.9234C11.7243 10.9278 11.3498 10.9492 10.5161 10.9492C9.84959 10.9492 9.38066 10.9312 9.21539 10.923V10.925C6.65045 10.8168 4.73588 10.3914 4.73588 9.88237C4.73588 9.37337 6.65066 8.94857 9.21539 8.84017V10.5012C9.38339 10.5122 9.86387 10.5392 10.527 10.5392C11.3236 10.5392 11.7241 10.5076 11.7976 10.5012V8.84017C14.3575 8.94877 16.2676 9.37457 16.2676 9.88177C16.2676 10.389 14.3566 10.815 11.7976 10.9236" fill="white"/>
</g>
<defs>
<clipPath id="clip0_1_77">
<rect width="21" height="20" fill="white"/>
</clipPath>
</defs>
</svg>
