<svg width="142" height="33" viewBox="0 0 142 33" fill="none" xmlns="http://www.w3.org/2000/svg">
<path d="M43.517 25V7.54545H50.5057C51.7898 7.54545 52.8608 7.7358 53.7188 8.11648C54.5767 8.49716 55.2216 9.02557 55.6534 9.7017C56.0852 10.3722 56.3011 11.1449 56.3011 12.0199C56.3011 12.7017 56.1648 13.3011 55.892 13.8182C55.6193 14.3295 55.2443 14.75 54.767 15.0795C54.2955 15.4034 53.7557 15.6335 53.1477 15.7699V15.9403C53.8125 15.9687 54.4347 16.1562 55.0142 16.5028C55.5994 16.8494 56.0739 17.3352 56.4375 17.9602C56.8011 18.5795 56.983 19.3182 56.983 20.1761C56.983 21.1023 56.7528 21.929 56.2926 22.6562C55.8381 23.3778 55.1648 23.9489 54.2727 24.3693C53.3807 24.7898 52.2813 25 50.9744 25H43.517ZM47.2074 21.983H50.2159C51.2443 21.983 51.9943 21.7869 52.4659 21.3949C52.9375 20.9972 53.1733 20.4687 53.1733 19.8097C53.1733 19.3267 53.0568 18.9006 52.8239 18.5312C52.5909 18.1619 52.2585 17.8722 51.8267 17.6619C51.4006 17.4517 50.892 17.3466 50.3011 17.3466H47.2074V21.983ZM47.2074 14.8494H49.9432C50.4489 14.8494 50.8977 14.7614 51.2898 14.5852C51.6875 14.4034 52 14.1477 52.2273 13.8182C52.4602 13.4886 52.5767 13.0938 52.5767 12.6335C52.5767 12.0028 52.3523 11.4943 51.9034 11.108C51.4602 10.7216 50.8295 10.5284 50.0114 10.5284H47.2074V14.8494ZM62.9467 7.54545V25H59.3161V7.54545H62.9467ZM65.8551 25V11.9091H69.4858V25H65.8551ZM67.679 10.2216C67.1392 10.2216 66.6761 10.0426 66.2898 9.68466C65.9091 9.32102 65.7188 8.88636 65.7188 8.38068C65.7188 7.88068 65.9091 7.4517 66.2898 7.09375C66.6761 6.73011 67.1392 6.54829 67.679 6.54829C68.2188 6.54829 68.679 6.73011 69.0597 7.09375C69.446 7.4517 69.6392 7.88068 69.6392 8.38068C69.6392 8.88636 69.446 9.32102 69.0597 9.68466C68.679 10.0426 68.2188 10.2216 67.679 10.2216ZM79.3572 11.9091V14.6364H71.4737V11.9091H79.3572ZM73.2635 8.77273H76.8942V20.9773C76.8942 21.3125 76.9453 21.5739 77.0476 21.7614C77.1499 21.9432 77.2919 22.071 77.4737 22.1449C77.6612 22.2187 77.8771 22.2557 78.1214 22.2557C78.2919 22.2557 78.4624 22.2415 78.6328 22.2131C78.8033 22.179 78.9339 22.1534 79.0249 22.1364L79.5959 24.8381C79.4141 24.8949 79.1584 24.9602 78.8288 25.0341C78.4993 25.1136 78.0987 25.1619 77.6271 25.179C76.7521 25.2131 75.9851 25.0966 75.326 24.8295C74.6726 24.5625 74.1641 24.1477 73.8004 23.5852C73.4368 23.0227 73.2578 22.3125 73.2635 21.4545V8.77273ZM85.6342 17.4318V25H82.0036V7.54545H85.532V14.2188H85.6854C85.9808 13.446 86.4581 12.8409 87.1172 12.4034C87.7763 11.9602 88.603 11.7386 89.5973 11.7386C90.5064 11.7386 91.299 11.9375 91.9751 12.3352C92.657 12.7273 93.1854 13.2926 93.5604 14.0312C93.9411 14.7642 94.1286 15.642 94.1229 16.6648V25H90.4922V17.3125C90.4979 16.5057 90.2933 15.8778 89.8786 15.429C89.4695 14.9801 88.8956 14.7557 88.157 14.7557C87.6626 14.7557 87.2251 14.8608 86.8445 15.071C86.4695 15.2812 86.174 15.5881 85.9581 15.9915C85.7479 16.3892 85.6399 16.8693 85.6342 17.4318ZM102.946 25.2557C101.599 25.2557 100.44 24.983 99.4688 24.4375C98.5028 23.8864 97.7585 23.108 97.2358 22.1023C96.7131 21.0909 96.4517 19.8949 96.4517 18.5142C96.4517 17.1676 96.7131 15.9858 97.2358 14.9688C97.7585 13.9517 98.4943 13.1591 99.4432 12.5909C100.398 12.0227 101.517 11.7386 102.801 11.7386C103.665 11.7386 104.469 11.8778 105.213 12.1562C105.963 12.429 106.616 12.8409 107.173 13.392C107.736 13.9432 108.173 14.6364 108.486 15.4716C108.798 16.3011 108.955 17.2727 108.955 18.3864V19.3835H97.9006V17.1335H105.537C105.537 16.6108 105.423 16.1477 105.196 15.7443C104.969 15.3409 104.653 15.0256 104.25 14.7983C103.852 14.5653 103.389 14.4489 102.861 14.4489C102.31 14.4489 101.821 14.5767 101.395 14.8324C100.974 15.0824 100.645 15.4205 100.406 15.8466C100.168 16.267 100.045 16.7358 100.04 17.2528V19.392C100.04 20.0398 100.159 20.5994 100.398 21.071C100.642 21.5426 100.986 21.9062 101.429 22.1619C101.872 22.4176 102.398 22.5455 103.006 22.5455C103.409 22.5455 103.778 22.4886 104.114 22.375C104.449 22.2614 104.736 22.0909 104.974 21.8636C105.213 21.6364 105.395 21.358 105.52 21.0284L108.878 21.25C108.707 22.0568 108.358 22.7614 107.83 23.3636C107.307 23.9602 106.631 24.4261 105.801 24.7614C104.977 25.0909 104.026 25.2557 102.946 25.2557Z" fill="white"/>
<path d="M15.3461 0.00366592C15.3352 0.00638962 15.1908 0.0159206 15.0261 0.0240917C14.6979 0.040432 14.6652 0.0445175 14.6652 0.0731144C14.6652 0.0894547 14.7319 0.261038 14.8095 0.439428C14.8422 0.517048 14.9552 0.793486 14.992 0.888807C15.0124 0.940556 15.086 1.12167 15.1554 1.29053C15.2249 1.45938 15.2984 1.63914 15.3188 1.69225C15.3393 1.74399 15.3665 1.81208 15.3815 1.84204L15.4073 1.89651L16.0542 1.90468C16.9434 1.91693 17.356 1.94417 17.8994 2.02588C17.9443 2.03269 18.0355 2.04494 18.1009 2.05311C18.1663 2.06128 18.3038 2.08307 18.4073 2.10213C18.5094 2.1212 18.6456 2.14571 18.7069 2.1566C18.7695 2.1675 18.8866 2.19201 18.9656 2.21108C19.046 2.22878 19.1576 2.25329 19.2148 2.26418C19.272 2.27644 19.3823 2.30231 19.4599 2.3241C19.5376 2.34589 19.6329 2.3704 19.6697 2.37857C19.8589 2.42215 20.6597 2.68088 20.9116 2.77893C20.9769 2.8048 21.0995 2.8511 21.1812 2.88379C21.6183 3.05264 22.1576 3.30048 22.6247 3.54832C23.7577 4.1475 24.8879 4.97272 25.784 5.85378C26.2197 6.28137 26.6514 6.74573 26.8666 7.01809C26.8856 7.04123 26.9496 7.12158 27.0109 7.19511C27.4535 7.73845 27.9246 8.43976 28.3359 9.1683C28.5483 9.54551 28.9187 10.3244 29.0821 10.7411C29.2306 11.1156 29.2646 11.2096 29.3695 11.5241C29.6323 12.3099 29.8161 13.0588 29.9223 13.7779C29.9428 13.9086 29.9646 14.0529 29.9714 14.0979C30.004 14.2967 30.0258 14.5227 30.0708 15.1124C30.0926 15.4092 30.0926 16.6144 30.0708 16.8963C30.0612 17.012 30.0463 17.1931 30.0394 17.298C30 17.81 29.8679 18.657 29.7467 19.1568C29.6119 19.7178 29.5615 19.899 29.4239 20.3279C29.394 20.4219 29.3558 20.5376 29.3381 20.5867C29.3204 20.6357 29.2878 20.7269 29.266 20.7909C28.7785 22.1813 27.9492 23.6601 26.9905 24.8421C26.3001 25.6946 25.3836 26.5947 24.6183 27.1708C24.4086 27.3287 24.2983 27.4118 24.2179 27.4717C24.0954 27.5616 23.6392 27.8707 23.5507 27.9224C23.5139 27.9456 23.4308 27.996 23.3668 28.0355C22.9365 28.3037 22.3237 28.6292 21.8144 28.8593C21.7354 28.8947 21.6374 28.9383 21.5965 28.9574C21.4222 29.0391 20.7114 29.3142 20.5888 29.3496C20.5698 29.355 20.5058 29.3768 20.4459 29.3972C20.3206 29.4422 19.9611 29.5552 19.9012 29.5688C19.8794 29.5729 19.8331 29.5865 19.799 29.5974C19.7146 29.6246 19.2434 29.7431 19.1113 29.7704C18.9969 29.7949 18.9493 29.8044 18.8049 29.8384C18.7164 29.8589 18.5707 29.8847 18.0968 29.9624C18.026 29.9733 17.8844 29.9923 17.7836 30.0032C17.6828 30.0141 17.5453 30.0291 17.4772 30.0373C16.622 30.1353 15.3788 30.138 14.5631 30.0427C14.4664 30.0318 14.3247 30.0168 14.2499 30.0087C14.0837 29.9937 13.9584 29.976 13.7528 29.9406C13.667 29.9256 13.539 29.9038 13.4696 29.8929C13.4001 29.882 13.2707 29.8575 13.1836 29.8384C13.0964 29.818 12.9821 29.7949 12.9289 29.7853C12.8772 29.7758 12.7206 29.739 12.5817 29.7036C11.8736 29.5252 11.1164 29.2733 10.5186 29.0159C10.4288 28.9764 10.3185 28.9301 10.2735 28.9111C10.1673 28.8675 9.35433 28.4644 9.20454 28.3814C9.14053 28.3473 9.03023 28.2833 8.95942 28.2411C8.88861 28.2002 8.80826 28.1539 8.78239 28.139C8.43378 27.9483 7.70796 27.4472 7.21637 27.0577C7.02164 26.9039 6.98623 26.8725 6.67166 26.6002C6.31897 26.2924 5.74703 25.7232 5.43246 25.3664C5.37663 25.3024 5.32761 25.248 5.32352 25.2439C5.2459 25.169 4.74205 24.5385 4.58 24.3138C4.00534 23.5199 3.46336 22.5844 3.11611 21.7864C3.07798 21.6992 3.03168 21.5971 3.01398 21.5576C2.99628 21.5181 2.94725 21.3983 2.9064 21.292C2.86419 21.1845 2.81652 21.0674 2.80154 21.0292C2.70758 20.8018 2.45702 20.0474 2.40391 19.8309C2.39302 19.7859 2.36578 19.6852 2.34399 19.6062C2.29633 19.4332 2.22552 19.1405 2.19148 18.973C2.11249 18.5835 2.08526 18.4337 2.07573 18.367C2.07164 18.3261 2.0553 18.224 2.04168 18.1423C2.009 17.9448 1.97904 17.7038 1.95317 17.4206C1.91504 17.0079 1.90687 16.9331 1.89597 16.9235C1.89053 16.9181 1.82108 16.9058 1.7421 16.8976C1.66311 16.8881 1.56507 16.8759 1.52421 16.869C1.41119 16.8527 1.23825 16.8296 1.04079 16.8078C0.859676 16.786 0.727586 16.7696 0.570984 16.7465C0.52196 16.7397 0.42119 16.7274 0.346293 16.7193C0.271397 16.7124 0.169265 16.6988 0.11888 16.692C0.0684944 16.6838 0.0208329 16.6784 0.0113005 16.6784C-0.0145729 16.6784 0.00585351 17.1074 0.0535151 17.5772C0.0616856 17.6561 0.0739415 17.7842 0.0807503 17.8631C0.0875591 17.9421 0.0998149 18.0429 0.106624 18.0878C0.113432 18.1328 0.132497 18.2553 0.148838 18.3602C0.163818 18.465 0.182882 18.5903 0.189691 18.6393C0.20467 18.7483 0.218288 18.8245 0.256417 19.007C0.272758 19.086 0.291823 19.184 0.298632 19.2249C0.30544 19.2657 0.323143 19.3543 0.339484 19.4223C0.355826 19.4891 0.380337 19.5967 0.393955 19.6607C0.407572 19.7247 0.438893 19.8499 0.462043 19.9398C0.486554 20.0297 0.511066 20.125 0.517875 20.1509C0.539663 20.2476 0.611836 20.4968 0.679924 20.7106C0.709883 20.8045 0.734395 20.8917 0.734395 20.9039C0.734395 20.9162 0.741203 20.9298 0.748012 20.9339C0.756183 20.938 0.76163 20.9557 0.76163 20.9734C0.76163 20.9897 0.767077 21.0088 0.772524 21.0156C0.779333 21.0238 0.798397 21.0755 0.8161 21.1314C0.832441 21.1872 0.854229 21.2512 0.863762 21.2743C0.873294 21.2961 0.897806 21.3642 0.91687 21.4241C0.937297 21.4841 0.959085 21.5453 0.965894 21.5603C0.972702 21.5753 1.00402 21.6543 1.03398 21.7373C1.0653 21.819 1.09798 21.9048 1.10888 21.928C1.11841 21.9498 1.13748 21.9961 1.14973 22.0301C1.17697 22.1009 1.19467 22.1418 1.24369 22.2521C1.26276 22.2957 1.2791 22.3365 1.2791 22.3433C1.2791 22.3501 1.28999 22.376 1.30361 22.4005C1.31723 22.425 1.33902 22.4727 1.35263 22.5067C1.36761 22.5408 1.40166 22.617 1.43025 22.677C1.45749 22.7369 1.50379 22.8349 1.53102 22.8948C1.60184 23.046 1.73256 23.3088 1.7884 23.4096C1.81291 23.4559 1.86193 23.5458 1.89461 23.6098C1.92866 23.6738 1.97496 23.7582 1.99811 23.7977C2.02262 23.8372 2.04168 23.8726 2.04168 23.8753C2.04168 23.8794 2.06619 23.9216 2.09615 23.9706C2.12611 24.0196 2.15062 24.0619 2.15062 24.0659C2.15062 24.07 2.17514 24.1122 2.20509 24.1613C2.23505 24.2103 2.25956 24.2525 2.25956 24.2552C2.25956 24.2593 2.29089 24.3083 2.32765 24.3642C2.36578 24.4214 2.39574 24.4704 2.39574 24.4745C2.39574 24.4786 2.40663 24.499 2.42161 24.5194C2.44204 24.5494 2.54281 24.7032 2.5932 24.7822C2.60137 24.7945 2.62452 24.8313 2.64767 24.8639C2.66945 24.8966 2.69397 24.9334 2.70214 24.9456C2.73482 24.996 2.84784 25.1608 2.89551 25.2262C2.9241 25.2657 2.96632 25.3242 2.98811 25.3555C3.02215 25.4032 3.19101 25.6292 3.34897 25.8376C3.57502 26.1345 3.89095 26.5049 4.25454 26.897C4.73933 27.42 5.27178 27.9211 5.84644 28.3963C6.04253 28.5597 6.6703 29.0418 6.70298 29.0554C6.70979 29.0582 6.78605 29.1099 6.8732 29.1712C6.96172 29.2325 7.06657 29.3046 7.10743 29.3305C7.14828 29.3577 7.25722 29.4299 7.34982 29.4912C7.44242 29.5511 7.52004 29.6015 7.52276 29.6015C7.52413 29.6015 7.58677 29.6383 7.6603 29.6846C7.8278 29.7867 7.8169 29.7799 7.93129 29.8466C7.9844 29.8766 8.03615 29.9065 8.04704 29.9133C8.11513 29.9542 8.3085 30.0618 8.45557 30.138C8.71975 30.2769 9.39654 30.6092 9.41288 30.6092C9.41697 30.6092 9.4728 30.6337 9.53681 30.6637C9.60081 30.6936 9.65664 30.7181 9.66072 30.7181C9.66617 30.7181 9.70702 30.7358 9.75332 30.7576C9.79962 30.7794 9.88133 30.8135 9.93308 30.8339C9.98619 30.8543 10.0475 30.8775 10.0693 30.8884C10.1373 30.917 10.3893 31.0136 10.4982 31.0518C10.554 31.0708 10.618 31.0953 10.6412 31.1049C10.663 31.1144 10.7283 31.1362 10.7842 31.1539C10.84 31.1716 10.8931 31.1893 10.8999 31.1948C10.9081 31.2002 10.9408 31.2111 10.9748 31.2206C11.0089 31.2302 11.1001 31.2601 11.1791 31.286C11.2581 31.3119 11.3561 31.3418 11.397 31.3527C11.525 31.3868 11.6611 31.4276 11.6857 31.4412C11.6993 31.448 11.7211 31.4535 11.7333 31.4535C11.7646 31.4535 12.0642 31.5338 12.0942 31.5502C12.1078 31.557 12.131 31.5624 12.1459 31.5624C12.1704 31.5624 12.4401 31.6223 12.5681 31.6564C12.594 31.6632 12.7015 31.6863 12.8064 31.7068C12.9112 31.7258 13.0243 31.749 13.0583 31.7558C13.14 31.7721 13.1591 31.7749 13.4668 31.8225C13.6125 31.8443 13.7637 31.8688 13.8005 31.8756C13.8386 31.8824 13.9448 31.8947 14.0388 31.9029C14.1327 31.911 14.224 31.9219 14.2417 31.9247C14.2744 31.9315 14.4255 31.9464 14.7197 31.971C15.4931 32.0377 16.7528 32.0268 17.5453 31.9464C17.6134 31.9383 17.7686 31.9233 17.8926 31.911C18.0165 31.8974 18.1486 31.8824 18.1853 31.8756C18.2235 31.8675 18.3338 31.8498 18.4305 31.8348C18.5857 31.8103 18.6442 31.8007 18.8254 31.7749C18.8812 31.7667 19.3456 31.6727 19.4041 31.6578C19.4586 31.6428 19.6628 31.5965 19.765 31.5747C19.8031 31.5665 19.8726 31.5488 19.9216 31.5352C19.9706 31.5216 20.0618 31.4971 20.1258 31.4807C20.1898 31.4644 20.3001 31.4344 20.371 31.4126C20.4418 31.3908 20.5316 31.3663 20.5684 31.3568C20.6065 31.3486 20.6488 31.3364 20.6637 31.3296C20.6787 31.3228 20.7523 31.2982 20.8272 31.2751C20.902 31.2519 21.0246 31.2111 21.0995 31.1852C21.1744 31.1593 21.2479 31.1348 21.2629 31.1308C21.2779 31.1267 21.3024 31.1185 21.3174 31.113C21.3324 31.1062 21.4004 31.0817 21.4672 31.0572C21.5353 31.0341 21.6142 31.0027 21.6442 30.9905C21.6742 30.9769 21.7545 30.9469 21.8212 30.9224C21.8893 30.8979 21.9819 30.8598 22.0296 30.8393C22.0759 30.8175 22.1195 30.7998 22.1263 30.7998C22.1317 30.7998 22.1549 30.7917 22.1767 30.7808C22.1984 30.7699 22.2897 30.729 22.3796 30.6909C22.4694 30.6514 22.6056 30.5901 22.6832 30.5534C22.7608 30.5166 22.8276 30.4866 22.8317 30.4866C22.8398 30.4866 23.3151 30.2483 23.4622 30.1707C23.5262 30.1367 23.6174 30.0876 23.6664 30.0618C23.7154 30.0359 23.7876 29.995 23.8271 29.9705C23.8666 29.9474 23.902 29.9283 23.9047 29.9283C23.9088 29.9283 23.951 29.9038 24 29.8738C24.0491 29.8439 24.0926 29.8194 24.0967 29.8194C24.1008 29.8194 24.1308 29.8003 24.1635 29.7785C24.1961 29.7554 24.2275 29.7377 24.2315 29.7377C24.237 29.7377 24.2724 29.7172 24.3105 29.6914C24.4603 29.5947 24.5802 29.5198 24.5856 29.5198C24.5938 29.5198 24.9778 29.2624 25.1398 29.148C25.2175 29.0936 25.3101 29.0282 25.3468 29.0023C25.449 28.9301 25.6818 28.7558 25.7499 28.7014C26.1489 28.3814 26.2374 28.3092 26.3436 28.2193C26.8311 27.8053 27.4589 27.198 27.847 26.7636C27.941 26.6587 28.0486 26.5389 28.0867 26.498C28.1248 26.4558 28.1698 26.4027 28.1888 26.3796C28.2065 26.3564 28.2705 26.2788 28.3304 26.2066C28.3904 26.1358 28.4666 26.0419 28.5007 25.9996C28.5347 25.9561 28.5783 25.903 28.5973 25.8784C28.7281 25.7246 29.1148 25.1894 29.3272 24.8694C29.5097 24.5957 29.876 24.0033 29.876 23.9829C29.876 23.9802 29.8924 23.9516 29.9128 23.9189C29.9332 23.8876 29.9659 23.8304 29.9863 23.7936C30.0068 23.7555 30.0572 23.6615 30.0994 23.5825C30.1879 23.4191 30.5161 22.7614 30.5161 22.7478C30.5161 22.7437 30.5433 22.6824 30.5773 22.6143C30.6114 22.5449 30.6386 22.4849 30.6386 22.4781C30.6386 22.4727 30.659 22.4237 30.6849 22.3678C30.7353 22.2589 30.8088 22.0832 30.8565 21.9552C30.8742 21.9103 30.8919 21.8667 30.8974 21.8599C30.9028 21.8517 30.9219 21.8027 30.9382 21.751C30.9546 21.6978 30.9736 21.6488 30.9791 21.642C30.9845 21.6338 30.9968 21.6039 31.0063 21.5739C31.0158 21.544 31.0267 21.514 31.0308 21.5072C31.0608 21.4555 31.3331 20.6166 31.4012 20.3688C31.4162 20.3129 31.4407 20.2271 31.4543 20.1781C31.4693 20.1291 31.5006 20.0093 31.5238 19.9126C31.5469 19.8145 31.5728 19.7165 31.5782 19.6947C31.585 19.6715 31.5973 19.6198 31.6055 19.5789C31.6136 19.5381 31.6354 19.436 31.6545 19.3543C31.6736 19.2712 31.6926 19.1827 31.6967 19.1568C31.7022 19.1146 31.7621 18.7823 31.7961 18.6053C31.8029 18.5672 31.8274 18.3997 31.8492 18.2308C31.8724 18.0619 31.8942 17.8999 31.8983 17.8699C31.9146 17.7474 31.9541 17.2463 31.98 16.835C32.0167 16.2372 32.0017 15.333 31.9445 14.6562C31.9023 14.1537 31.9064 14.1891 31.8492 13.7915C31.8274 13.6376 31.8097 13.4932 31.8097 13.4715C31.8097 13.4497 31.8043 13.4143 31.7975 13.3911C31.7907 13.368 31.7716 13.2754 31.7553 13.1855C31.7389 13.0956 31.7226 13.0071 31.7185 12.988C31.7144 12.969 31.7062 12.9199 31.7008 12.8791C31.694 12.8382 31.6695 12.7211 31.6463 12.6204C31.6232 12.5196 31.5987 12.4093 31.5919 12.3752C31.5782 12.299 31.4829 11.915 31.4693 11.8782C31.4625 11.8632 31.4393 11.7774 31.4148 11.6876C31.3903 11.5977 31.3604 11.4901 31.3467 11.4492C31.3331 11.4084 31.3086 11.3281 31.2909 11.2722C31.2746 11.2164 31.2283 11.072 31.1874 10.9522C31.1466 10.8324 31.0907 10.6703 31.0649 10.5913C31.039 10.5124 31.0131 10.4415 31.0077 10.4347C31.0022 10.4266 30.9831 10.3816 30.9668 10.3326C30.9505 10.2836 30.9287 10.225 30.9191 10.2032C30.9096 10.1801 30.8837 10.1188 30.8633 10.0671C30.8429 10.014 30.8184 9.95267 30.8088 9.93089C30.7993 9.90774 30.7694 9.83829 30.7435 9.77428C30.6536 9.5564 30.5324 9.29222 30.3744 8.96949C30.3254 8.86735 30.2846 8.7802 30.2846 8.77612C30.2846 8.77203 30.2669 8.73799 30.2451 8.69986C30.2233 8.66309 30.1647 8.55415 30.1143 8.45746C30.064 8.36214 30.019 8.27635 30.0122 8.26954C30.0068 8.26137 29.9809 8.21643 29.955 8.16741C29.9291 8.11839 29.8692 8.01489 29.8243 7.93863C29.778 7.86101 29.7399 7.79429 29.7399 7.79156C29.7399 7.78612 29.7085 7.73573 29.5805 7.53828C29.5492 7.48789 29.522 7.44295 29.522 7.44023C29.522 7.4307 29.1952 6.94183 29.138 6.86557C29.1094 6.82744 29.0862 6.79203 29.0862 6.78795C29.0862 6.78386 29.0372 6.71577 28.9773 6.63679C28.9174 6.55781 28.8683 6.487 28.8683 6.48019C28.8683 6.47338 28.8588 6.45976 28.8465 6.45023C28.8343 6.43934 28.7825 6.3767 28.7322 6.30861C28.5688 6.08937 28.3168 5.78025 28.1058 5.53922C27.7708 5.15656 27.6714 5.05034 27.2955 4.6745C26.872 4.25099 26.6201 4.01949 26.2129 3.68041C25.9664 3.47479 25.5851 3.1752 25.4435 3.07715C25.3986 3.04583 25.3101 2.98319 25.2461 2.93553C25.1821 2.88923 25.0023 2.76667 24.8443 2.66182C24.6877 2.55832 24.542 2.46028 24.5216 2.44666C24.5012 2.43304 24.4807 2.42079 24.4767 2.42079C24.4712 2.42079 24.4426 2.40445 24.4113 2.38266C24.3432 2.33908 24.3337 2.33363 24.1907 2.24784C24.0641 2.17295 24.06 2.17022 23.9252 2.09396C23.8693 2.06264 23.7863 2.01634 23.7413 1.99047C23.5752 1.89651 22.9338 1.56424 22.9161 1.56288C22.9106 1.56288 22.818 1.52066 22.7077 1.46756C22.5974 1.41581 22.4545 1.35044 22.3891 1.32321C22.3237 1.29597 22.2652 1.2701 22.257 1.26465C22.2502 1.25921 22.2189 1.24695 22.1889 1.23742C22.159 1.22789 22.0977 1.20201 22.0527 1.18159C22.0078 1.1598 21.9411 1.13256 21.9029 1.11895C21.8662 1.10669 21.8022 1.08082 21.7627 1.06311C21.7232 1.04677 21.6864 1.03179 21.681 1.03179C21.6646 1.03043 21.4331 0.941917 21.4236 0.932384C21.4195 0.926937 21.4045 0.922852 21.3923 0.922852C21.3787 0.922852 21.3392 0.910597 21.3024 0.896978C21.1458 0.835699 20.9102 0.75808 20.5888 0.662756C20.5099 0.639606 20.435 0.615095 20.4227 0.608286C20.4091 0.601477 20.3914 0.596029 20.3819 0.596029C20.3723 0.596029 20.2756 0.571518 20.1667 0.541559C19.9066 0.470747 19.5988 0.394489 19.4736 0.37134C19.3415 0.346828 19.2407 0.323677 19.2026 0.308699C19.1849 0.301889 19.1549 0.296442 19.1358 0.296442C19.1154 0.296442 19.0814 0.290997 19.0582 0.284187C19.0351 0.277378 18.952 0.261038 18.873 0.248781C18.794 0.235163 18.666 0.213375 18.5871 0.198397C18.5081 0.183416 18.3978 0.167076 18.3419 0.160267C18.2861 0.153458 18.1908 0.141203 18.1309 0.133032C18.0709 0.124861 17.9702 0.111244 17.9062 0.104435C17.5848 0.0649433 17.5548 0.0622196 16.9938 0.0240917C16.7854 0.00911331 15.391 -0.00722885 15.3461 0.00366592Z" fill="white"/>
<path d="M15.8091 2.88107C15.8091 2.88787 15.8336 2.95324 15.8635 3.02814C15.8949 3.10167 15.9344 3.20244 15.9548 3.25146C15.9738 3.30049 15.997 3.35904 16.0079 3.38355C16.0188 3.4067 16.0719 3.53879 16.1277 3.67633C16.1836 3.81251 16.2884 4.06988 16.3606 4.24555C16.4328 4.42121 16.5022 4.5928 16.5145 4.62684C16.5254 4.66088 16.5485 4.71263 16.5635 4.74259L16.5921 4.79706L16.8372 4.8134C16.972 4.82157 17.1436 4.83519 17.2185 4.842C17.6325 4.88557 17.7768 4.90328 17.9579 4.9346C18.0682 4.95366 18.2221 4.9809 18.3011 4.99451C18.3801 5.00813 18.4999 5.03128 18.5666 5.04762C18.6347 5.0626 18.7573 5.0912 18.839 5.11026C18.9221 5.12933 19.0255 5.15656 19.0705 5.17018C19.1154 5.1838 19.174 5.20014 19.1998 5.20559C19.385 5.24099 20.0904 5.48475 20.4663 5.64135C20.5671 5.68493 20.6869 5.73395 20.7318 5.75301C20.8598 5.80612 21.38 6.06213 21.5761 6.16835C22.3156 6.57007 23.1013 7.12703 23.7209 7.68807C23.9606 7.90595 24.4808 8.43432 24.6755 8.65765C25.3223 9.39844 25.8194 10.1352 26.2456 10.9794C26.3954 11.2736 26.4294 11.3485 26.5493 11.6195C26.7372 12.0484 27.0259 12.8777 27.0967 13.1923C27.1035 13.2263 27.1253 13.3135 27.1457 13.387C27.1648 13.4592 27.192 13.5777 27.207 13.6485C27.222 13.7193 27.2465 13.8378 27.2615 13.91C27.3241 14.2082 27.3936 14.7079 27.4249 15.0783C27.4657 15.5849 27.4807 16.0425 27.4657 16.436C27.4467 16.9208 27.4126 17.3402 27.3636 17.6725C27.305 18.066 27.2901 18.1546 27.2533 18.3275C27.2342 18.4201 27.2097 18.5358 27.2002 18.5849C27.1294 18.9335 26.9319 19.5967 26.7767 20.0079C26.6446 20.3606 26.6405 20.3715 26.4499 20.8045C26.3954 20.9312 26.0903 21.5331 26.0332 21.6298C26.0073 21.6733 25.9351 21.7959 25.8725 21.9008C25.4027 22.6919 24.8511 23.3973 24.1635 24.0823C23.695 24.548 23.4145 24.7945 22.9501 25.1417C22.6696 25.3542 22.223 25.6565 22.0459 25.7573C22.0201 25.7722 21.9492 25.8144 21.8893 25.8526C21.6919 25.9738 21.2316 26.2148 20.9429 26.3469C20.8421 26.3932 20.7209 26.449 20.6746 26.4708C20.6283 26.4926 20.5861 26.5103 20.582 26.5103C20.5766 26.5103 20.5289 26.5294 20.4758 26.5525C20.3723 26.5988 20.292 26.6301 20.0509 26.7173C19.9692 26.7459 19.8712 26.7827 19.8331 26.7963C19.7582 26.8235 19.4164 26.9311 19.2884 26.9665C19.2434 26.9801 19.1917 26.9951 19.1726 27.0019C19.0024 27.0618 18.1581 27.2388 17.8449 27.2811C17.755 27.292 17.642 27.3083 17.593 27.3151C17.2498 27.3628 16.9203 27.3832 16.381 27.3914C15.6933 27.4009 15.1745 27.3764 14.7469 27.3151C14.6979 27.3083 14.5862 27.2933 14.4991 27.2811C14.2703 27.2511 14.209 27.2402 13.746 27.1435C13.5377 27.0999 13.5118 27.0945 12.9902 26.9515C12.9072 26.9284 12.5313 26.8072 12.3502 26.7445C12.2099 26.6955 11.7238 26.5008 11.6012 26.4449C11.5522 26.4232 11.4828 26.3905 11.4446 26.3741C11.2363 26.2815 10.6153 25.9602 10.5227 25.8948C10.5037 25.8812 10.4832 25.8703 10.4791 25.8703C10.4751 25.8703 10.4151 25.8362 10.3457 25.794C9.8432 25.4903 9.27944 25.0873 8.88453 24.7468C8.48825 24.4077 8.13283 24.0687 7.88091 23.7909C7.77061 23.6697 7.70797 23.6098 7.69299 23.6152C7.68209 23.6179 7.59358 23.6506 7.49553 23.6847C7.39885 23.7201 7.25722 23.7691 7.18233 23.7963C7.10743 23.8222 6.97943 23.8658 6.89636 23.8957C6.81465 23.9243 6.69754 23.9638 6.63762 23.9842C6.57771 24.0033 6.51643 24.0251 6.50145 24.0319C6.41702 24.0673 6.27403 24.1177 5.96491 24.2226C5.88049 24.2511 5.80423 24.2811 5.79606 24.2893C5.77972 24.3056 5.82329 24.3642 6.08203 24.6665C6.34621 24.9742 6.49736 25.1377 6.82827 25.4686C7.23544 25.8771 7.47647 26.0936 7.88363 26.4218C8.2268 26.6982 8.71975 27.0536 9.04113 27.2565C9.067 27.2729 9.09832 27.292 9.10922 27.2988C9.12011 27.3069 9.19092 27.3491 9.26582 27.3954C9.34071 27.4404 9.41153 27.4826 9.42242 27.4908C9.47961 27.5248 9.71248 27.6569 9.7969 27.7018C9.85001 27.7304 9.9181 27.7672 9.95078 27.7863C10.0148 27.8217 10.5486 28.0899 10.5581 28.0899C10.5609 28.0899 10.6221 28.1172 10.6929 28.1512C10.7651 28.1853 10.8278 28.2125 10.8318 28.2125C10.8373 28.2125 10.8781 28.2302 10.9244 28.252C11.0211 28.2969 11.1641 28.3555 11.3697 28.4331C11.4487 28.4631 11.5182 28.493 11.525 28.4998C11.5331 28.5066 11.5481 28.5121 11.559 28.5121C11.5781 28.5121 11.736 28.5679 11.8259 28.6061C11.8409 28.6129 11.909 28.6346 11.9757 28.6551C12.0438 28.6755 12.1173 28.7 12.1391 28.7095C12.1623 28.7191 12.2072 28.7341 12.2413 28.7422C12.2753 28.7518 12.3611 28.7763 12.4319 28.7981C12.6593 28.8661 12.914 28.937 12.9766 28.9479C13.0324 28.9587 13.2667 29.0119 13.3851 29.0432C13.411 29.0486 13.5404 29.0745 13.6711 29.0976C13.8018 29.1222 13.923 29.1467 13.9407 29.1535C13.9584 29.1603 13.9966 29.1657 14.0252 29.1657C14.0538 29.1657 14.1082 29.1712 14.1436 29.178C14.179 29.1848 14.3098 29.2039 14.4337 29.2202C14.5576 29.2352 14.6979 29.2542 14.7469 29.2611C14.7959 29.2679 14.894 29.2774 14.9648 29.2815C15.0356 29.2856 15.2385 29.2978 15.4142 29.3087C15.8227 29.3346 16.4995 29.3346 16.9189 29.3087C17.0987 29.2978 17.3043 29.2856 17.3751 29.2815C17.4459 29.2774 17.544 29.2679 17.593 29.2611C17.642 29.2542 17.7305 29.242 17.7904 29.2338C17.8503 29.227 17.9852 29.2079 18.09 29.1943C18.1949 29.1794 18.3052 29.1644 18.3351 29.1603C18.3651 29.1576 18.4168 29.148 18.4509 29.1412C18.5489 29.1194 18.8063 29.0691 18.8798 29.0568C18.918 29.05 18.9997 29.0323 19.0637 29.0173C19.1277 29.001 19.2312 28.9765 19.2952 28.9615C19.4041 28.937 19.4477 28.9261 19.558 28.8947C19.5811 28.8879 19.6451 28.8716 19.6969 28.8593C19.75 28.8457 19.8045 28.8307 19.8194 28.8253C19.8344 28.8185 19.9107 28.794 19.9897 28.7708C20.0687 28.749 20.1599 28.7204 20.1939 28.7082C20.228 28.6959 20.3042 28.6714 20.3642 28.6524C20.4241 28.6346 20.4853 28.6142 20.5003 28.6074C20.5153 28.6006 20.5834 28.5761 20.6501 28.5529C20.7795 28.5066 21.0301 28.4113 21.0995 28.3827C21.1227 28.3732 21.1798 28.3487 21.2289 28.3283C21.3269 28.2888 21.3147 28.2942 21.6102 28.1635C21.8008 28.0791 22.4653 27.7522 22.5008 27.7236C22.5089 27.7182 22.5648 27.6869 22.6233 27.6555C22.6832 27.6229 22.754 27.582 22.7826 27.5643C22.8112 27.5466 22.8385 27.5316 22.8412 27.5316C22.8453 27.5316 22.8752 27.5126 22.9079 27.4908C22.942 27.4676 22.9733 27.4499 22.9774 27.4499C22.9869 27.4499 23.0278 27.424 23.3151 27.2375C23.3954 27.1857 23.4771 27.134 23.4962 27.1231C23.6297 27.0428 24.1675 26.6519 24.3405 26.5103C24.3732 26.4844 24.4345 26.4354 24.4767 26.4014C24.7599 26.1794 25.4217 25.5734 25.6546 25.3242C25.7404 25.2316 25.8629 25.0995 25.9269 25.0314C26.0849 24.8626 26.2102 24.7223 26.2674 24.6515C26.2933 24.6188 26.3763 24.5167 26.4512 24.4255C26.5261 24.3342 26.6201 24.2157 26.6596 24.1626C26.6991 24.1095 26.7467 24.051 26.7658 24.0305C26.7835 24.0115 26.7985 23.9924 26.7985 23.987C26.7985 23.9815 26.8271 23.9379 26.8638 23.8916C26.8992 23.8453 26.9387 23.7922 26.9523 23.7732C27.1144 23.5376 27.1838 23.4355 27.2451 23.3388C27.2655 23.3061 27.2955 23.2625 27.3132 23.2421C27.3295 23.2217 27.3432 23.1999 27.3432 23.1944C27.3432 23.189 27.3636 23.1536 27.3895 23.1154C27.463 22.9997 27.5883 22.7941 27.5883 22.7845C27.5883 22.7804 27.606 22.7519 27.6264 22.7205C27.6468 22.6892 27.6727 22.6443 27.6836 22.6225C27.6945 22.5993 27.7163 22.5598 27.7326 22.534C27.8293 22.3719 28.2419 21.5508 28.2419 21.5195C28.2419 21.5154 28.2624 21.4677 28.2882 21.4132C28.3127 21.3588 28.3727 21.2212 28.419 21.1055C28.4653 20.9897 28.5102 20.8794 28.517 20.8604C28.5442 20.7936 28.6123 20.6071 28.6722 20.4301C28.7049 20.332 28.739 20.2421 28.7458 20.2299C28.754 20.2163 28.7594 20.1986 28.7594 20.189C28.7594 20.1809 28.7839 20.0964 28.8139 20.0025C28.8833 19.7846 28.9609 19.5149 28.9841 19.4087C28.9936 19.3638 29.0181 19.2657 29.0386 19.1909C29.059 19.116 29.0808 19.0234 29.0876 18.9866C29.0944 18.9485 29.1189 18.83 29.1421 18.721C29.1652 18.6121 29.187 18.5045 29.1897 18.4827C29.1938 18.4596 29.2142 18.322 29.236 18.1763C29.2592 18.0306 29.2823 17.8849 29.2905 17.8522C29.2973 17.8209 29.3041 17.7678 29.3041 17.7351C29.3041 17.7011 29.3095 17.6289 29.3177 17.5744C29.3354 17.4328 29.3817 16.8486 29.3953 16.5899C29.4212 16.052 29.394 15.3275 29.3245 14.693C29.3136 14.5922 29.3041 14.4819 29.3041 14.4478C29.3041 14.4138 29.2987 14.3675 29.2918 14.3444C29.2837 14.3212 29.2714 14.2504 29.2632 14.1864C29.2537 14.1224 29.2387 14.0216 29.2278 13.9617C29.2169 13.9018 29.2033 13.8133 29.1952 13.7642C29.1815 13.6648 29.1706 13.6117 29.1284 13.417C29.1121 13.3421 29.093 13.2495 29.0862 13.2127C29.0794 13.1746 29.059 13.0834 29.0386 13.0085C29.0195 12.9336 28.995 12.8355 28.9841 12.7906C28.9746 12.7456 28.9432 12.634 28.9174 12.5427C28.8901 12.4515 28.8683 12.3671 28.8683 12.3548C28.8683 12.3439 28.8629 12.3235 28.8547 12.3099C28.8479 12.2976 28.822 12.2255 28.7989 12.1506C28.7322 11.934 28.5579 11.4302 28.5211 11.3471C28.5116 11.324 28.487 11.2627 28.4666 11.2109C28.4462 11.1578 28.4149 11.0829 28.3972 11.0434C28.3795 11.004 28.3645 10.9686 28.3645 10.9645C28.3645 10.9604 28.355 10.9359 28.3441 10.91C28.3332 10.8841 28.3155 10.8433 28.3046 10.8188C28.0799 10.3054 27.6346 9.44883 27.478 9.22822C27.4644 9.2078 27.4521 9.18737 27.4521 9.18328C27.4521 9.16967 27.158 8.71893 27.0327 8.5419C27.0123 8.51194 26.9728 8.45611 26.9469 8.41798C26.921 8.37985 26.8352 8.26546 26.7576 8.16197C26.6786 8.05847 26.5996 7.95362 26.5806 7.92911C26.507 7.83242 26.2156 7.48517 26.0427 7.28908C25.7349 6.94047 24.9043 6.13839 24.606 5.90281C24.5216 5.83608 24.4236 5.75846 24.3582 5.70671C24.2207 5.59505 23.8448 5.31589 23.7127 5.22601C23.5016 5.08303 23.3164 4.95911 23.3056 4.95366C23.2987 4.94958 23.2647 4.92915 23.2307 4.90736C23.1299 4.84064 22.9569 4.73578 22.9501 4.73578C22.946 4.73578 22.9161 4.71671 22.8834 4.69493C22.8507 4.67178 22.8208 4.65408 22.8167 4.65408C22.8126 4.65408 22.769 4.62956 22.72 4.5996C22.671 4.56964 22.6288 4.54513 22.626 4.54513C22.6233 4.54513 22.577 4.51926 22.5212 4.4893C22.3973 4.41985 21.73 4.08214 21.7164 4.08214C21.7109 4.08214 21.6551 4.05899 21.5938 4.02903C21.5312 4.00043 21.4195 3.95141 21.3446 3.91872C21.2697 3.88741 21.1975 3.85608 21.1853 3.84928C21.1717 3.84247 21.1553 3.83702 21.1472 3.83702C21.1404 3.83702 21.0954 3.81796 21.0491 3.79617C21.0028 3.77302 20.9592 3.75531 20.9511 3.75531C20.9429 3.75531 20.8748 3.73216 20.7999 3.70221C20.725 3.67361 20.6093 3.63003 20.5412 3.60688C20.4745 3.58237 20.4064 3.55786 20.3914 3.55241C20.2865 3.51156 19.7514 3.35087 19.622 3.32091C19.5961 3.3141 19.5008 3.28959 19.4109 3.26508C19.321 3.24193 19.1617 3.2038 19.0569 3.18065C18.952 3.15886 18.8417 3.13435 18.8117 3.12618C18.7818 3.11937 18.7232 3.10848 18.6824 3.10167C18.6415 3.09622 18.5339 3.07716 18.4441 3.06082C18.3542 3.04448 18.2466 3.02541 18.2058 3.0186C18.1649 3.01043 18.0846 2.99954 18.0287 2.99409C17.9729 2.98728 17.8136 2.96822 17.6747 2.95188C17.3247 2.90966 17.1926 2.89877 16.8712 2.88515C16.5117 2.86881 15.8091 2.86745 15.8091 2.88107Z" fill="white"/>
<path d="M16.8985 5.55682C16.8985 5.5609 16.9434 5.67665 16.9992 5.81419C17.0551 5.95037 17.1204 6.11241 17.1436 6.17233C17.1681 6.23225 17.1953 6.29897 17.2049 6.32212C17.2362 6.39294 17.322 6.60265 17.3751 6.73746C17.4037 6.80827 17.4799 6.99483 17.5439 7.1528C17.6093 7.3094 17.6774 7.4769 17.6965 7.5232C17.7155 7.5695 17.7414 7.61035 17.7536 7.61443C17.7673 7.61852 17.8817 7.64712 18.0083 7.67707C18.2357 7.73154 18.4876 7.80236 18.6483 7.85683C19.0228 7.98347 19.1454 8.03113 19.5607 8.21769C19.7813 8.3171 20.1313 8.49685 20.2103 8.55132C20.2293 8.56494 20.2498 8.57584 20.2538 8.57584C20.2661 8.57584 20.5167 8.72699 20.6705 8.82912C21.1621 9.15186 21.5938 9.50183 22.0255 9.93079C22.5906 10.4918 23.0223 11.0488 23.4077 11.7147C23.5833 12.0184 23.8325 12.5277 23.9183 12.7564C23.9319 12.7905 23.951 12.8395 23.9633 12.8654C24.03 13.0138 24.1975 13.519 24.2588 13.7573C24.3391 14.0651 24.3718 14.2122 24.4426 14.588C24.4589 14.6792 24.4862 14.8917 24.5175 15.2008C24.5652 15.6461 24.5652 16.3637 24.5175 16.8077C24.4848 17.1236 24.4589 17.3306 24.4426 17.4205C24.3963 17.6683 24.3446 17.9134 24.3132 18.0401C24.2942 18.119 24.271 18.2076 24.2642 18.2375C24.2179 18.4268 24.0749 18.8544 23.966 19.1363C23.8897 19.331 23.6773 19.8144 23.6542 19.8444C23.6473 19.8512 23.6106 19.922 23.5711 20.001C23.5302 20.08 23.473 20.1862 23.4417 20.2393C23.4104 20.291 23.3682 20.3646 23.3464 20.4027C23.2552 20.5634 23.006 20.9352 22.8643 21.1217C22.6546 21.3968 22.6505 21.4022 22.4122 21.6746C21.681 22.5039 20.774 23.2025 19.8126 23.675C19.5403 23.8085 19.3169 23.9092 19.2911 23.9092C19.2815 23.9092 19.2679 23.9147 19.2598 23.9215C19.2529 23.9283 19.1958 23.9528 19.1317 23.976C19.0106 24.0209 18.9833 24.0318 18.9275 24.0563C18.809 24.1094 18.1118 24.3178 17.9811 24.3396C17.9511 24.3436 17.8925 24.3573 17.8517 24.3682C17.7237 24.4008 17.5916 24.4267 17.45 24.4485C17.179 24.4893 17.1204 24.4975 16.9393 24.5193C16.7609 24.5425 16.7555 24.5438 16.7514 24.5765C16.7487 24.5956 16.7255 24.7181 16.6983 24.8489C16.6724 24.9796 16.6397 25.1512 16.6261 25.2301C16.6111 25.3091 16.5866 25.4344 16.5703 25.5093C16.5539 25.5842 16.5362 25.6795 16.5294 25.7204C16.524 25.7612 16.4995 25.8865 16.4763 25.9995C16.4368 26.1929 16.3973 26.4026 16.3905 26.4625C16.3878 26.4884 16.3946 26.4898 16.4899 26.487C16.6574 26.483 17.213 26.4421 17.2866 26.4285C17.3247 26.4217 17.4037 26.4094 17.4636 26.3999C17.5235 26.3917 17.6216 26.3767 17.6815 26.3659C17.7414 26.355 17.8299 26.3413 17.8789 26.3345C17.928 26.3264 17.9947 26.3155 18.0287 26.3073C18.1853 26.2705 18.2888 26.2487 18.376 26.231C18.4944 26.2079 18.7872 26.1289 18.9956 26.0649C19.0814 26.0377 19.1712 26.0104 19.193 26.005C19.2475 25.9914 19.5934 25.8688 19.7023 25.8239C19.7513 25.8048 19.7949 25.7885 19.8004 25.7885C19.8072 25.7885 19.8508 25.7708 19.8971 25.7503C19.9447 25.7286 20.0046 25.704 20.0305 25.6945C20.0564 25.685 20.1163 25.6591 20.164 25.6373C20.2116 25.6155 20.2525 25.5978 20.2566 25.5978C20.2783 25.5978 20.7849 25.35 20.9633 25.2519C21.1839 25.1321 21.4086 25.0027 21.5012 24.9428C21.5203 24.9306 21.5816 24.8911 21.6374 24.8557C21.8076 24.7481 21.8825 24.6963 22.1835 24.4825C22.3768 24.3436 22.6791 24.0999 22.9106 23.897C23.597 23.2896 24.2016 22.6047 24.6904 21.8789C24.8293 21.6719 25.1099 21.2239 25.1099 21.2075C25.1099 21.2048 25.1398 21.1503 25.1766 21.0863C25.2637 20.9365 25.5388 20.3755 25.6137 20.1984C25.645 20.1236 25.6791 20.0432 25.6886 20.0214C25.6981 19.9983 25.7227 19.937 25.7431 19.8852C25.7635 19.8321 25.788 19.7709 25.7976 19.7491C25.8071 19.7259 25.8316 19.6592 25.852 19.5993C25.8725 19.5394 25.897 19.4713 25.9065 19.4495C25.916 19.4263 25.9433 19.3446 25.9691 19.2656C25.9937 19.1867 26.0182 19.1158 26.0236 19.109C26.0277 19.1009 26.0372 19.0709 26.0427 19.041C26.0481 19.011 26.0604 18.962 26.0699 18.932C26.1162 18.789 26.2211 18.3873 26.2497 18.2443C26.2537 18.2253 26.2783 18.1 26.3041 17.9652C26.3314 17.8303 26.3559 17.6955 26.3586 17.6656C26.3613 17.6356 26.3763 17.5253 26.3899 17.4205C26.4049 17.3156 26.4226 17.159 26.4308 17.0732C26.4389 16.9874 26.4526 16.8771 26.4607 16.8281C26.4825 16.7055 26.4825 15.3029 26.4607 15.1804C26.4526 15.1313 26.4362 15.0033 26.4253 14.8944C26.3926 14.5785 26.3627 14.3334 26.3491 14.2816C26.3423 14.2557 26.3177 14.1291 26.2932 14.0024C26.2415 13.7219 26.1094 13.1786 26.0508 13.0016C26.044 12.9825 26.0127 12.8844 25.9814 12.7837C25.9501 12.6829 25.9092 12.5603 25.8902 12.5113C25.8711 12.4623 25.8466 12.3956 25.8357 12.3615C25.8248 12.3275 25.8085 12.2812 25.7976 12.2594C25.788 12.2362 25.754 12.1545 25.7227 12.0756C25.6913 11.9966 25.6505 11.8999 25.6328 11.8604C25.6151 11.8209 25.6001 11.7841 25.6001 11.7773C25.6001 11.7719 25.5824 11.7297 25.5606 11.6861C25.5388 11.6425 25.4898 11.5377 25.4503 11.456C25.4122 11.3729 25.3741 11.2939 25.3659 11.2789C25.3563 11.2639 25.3264 11.2054 25.2964 11.1496C25.1684 10.9058 25.0881 10.7587 25.0418 10.6866C25.035 10.6757 25.0091 10.6321 24.986 10.5912C24.9614 10.5504 24.9179 10.4809 24.8893 10.4387C24.8607 10.3965 24.8375 10.3584 24.8375 10.3543C24.8375 10.3434 24.542 9.91036 24.4562 9.79869C24.3405 9.64345 24.2138 9.48004 24.1703 9.42694C24.1444 9.39561 24.0858 9.3248 24.0409 9.27033C23.9074 9.10828 23.533 8.70384 23.3369 8.5132C23.1081 8.2885 22.7581 7.97258 22.6179 7.865C22.592 7.84321 22.5443 7.80644 22.5144 7.78329C22.4435 7.7261 22.2338 7.56813 22.1004 7.47009C21.9179 7.33664 21.6156 7.13646 21.4358 7.03024C21.4236 7.02207 21.3528 6.98122 21.2792 6.93764C21.2057 6.89406 21.1117 6.83959 21.0682 6.81644C21.026 6.79329 20.9538 6.75516 20.9088 6.73065C20.6978 6.6149 20.3042 6.42834 20.0782 6.33574C20.0114 6.30851 19.9093 6.26765 19.8535 6.24587C19.7976 6.22408 19.7377 6.19957 19.7214 6.19276C19.6642 6.16825 19.6302 6.15463 19.5198 6.11786C19.4599 6.09743 19.3932 6.07292 19.3701 6.06339C19.272 6.0239 18.6728 5.84687 18.5598 5.82372C18.4999 5.81146 18.2616 5.75427 18.1649 5.72976C18.139 5.72295 18.056 5.70797 17.9811 5.69435C17.8231 5.66848 17.7441 5.6535 17.6447 5.63444C17.6052 5.62627 17.5181 5.61401 17.45 5.6072C17.3833 5.60039 17.2784 5.58814 17.2185 5.57997C17.0523 5.55954 16.8985 5.54728 16.8985 5.55682Z" fill="white"/>
<path d="M10.2122 5.80334C10.0502 5.84555 9.9072 5.92726 9.78465 6.05117C9.72881 6.10701 9.67434 6.16965 9.66345 6.19007C9.65255 6.2105 9.62532 6.26089 9.60217 6.30174C9.58038 6.34259 9.54906 6.42838 9.53272 6.49238C9.50549 6.60814 9.50549 6.61358 9.5014 11.5786L9.49731 16.549L9.52863 16.8213C9.54498 16.9711 9.56404 17.1209 9.57085 17.155C9.57766 17.189 9.59128 17.2557 9.59945 17.3048C9.63077 17.4791 9.67979 17.6956 9.722 17.8426C9.72745 17.8644 9.74515 17.9298 9.7615 17.9856C9.87588 18.4064 10.1823 19.1159 10.3988 19.4591C10.4151 19.4876 10.4301 19.5135 10.4301 19.5162C10.4301 19.5231 10.5173 19.662 10.5922 19.7763C10.8945 20.2353 11.3466 20.7527 11.7578 21.1122C12.0207 21.3424 12.3311 21.5752 12.6076 21.7509C12.8282 21.8912 13.2885 22.1308 13.5554 22.2452C13.7474 22.3283 14.2213 22.4958 14.352 22.5257C14.371 22.5312 14.4568 22.553 14.5426 22.5761C14.6883 22.6142 15.0288 22.6823 15.2167 22.7123C15.5735 22.7668 16.3592 22.7845 16.8032 22.745C17.0265 22.7259 17.0755 22.7205 17.2661 22.6851C17.307 22.6783 17.3969 22.6619 17.4636 22.6497C17.6461 22.6183 17.9661 22.5353 18.2058 22.459C18.8254 22.2616 19.4708 21.9388 20.0237 21.548C20.1422 21.4649 20.2498 21.3805 20.5453 21.1408C20.7046 21.0115 21.2343 20.4627 21.3582 20.2993C21.6183 19.9561 21.6782 19.8771 21.6782 19.8717C21.6782 19.8689 21.6987 19.8376 21.7232 19.8022C21.7463 19.7682 21.7736 19.73 21.7804 19.7178C21.7886 19.7055 21.8158 19.662 21.843 19.6197C21.8703 19.5789 21.9111 19.5108 21.9329 19.4686C21.956 19.425 21.9846 19.376 21.9955 19.3596C22.0255 19.312 22.2366 18.8939 22.2366 18.8817C22.2366 18.8762 22.257 18.8299 22.2815 18.7795C22.306 18.7278 22.3401 18.6488 22.3578 18.6011C22.3741 18.5535 22.3986 18.4922 22.4095 18.465C22.4408 18.3928 22.5471 18.0769 22.5702 17.987C22.5811 17.9448 22.6029 17.8712 22.6179 17.8222C22.6342 17.7732 22.6519 17.7065 22.6587 17.6724C22.6655 17.6384 22.69 17.5226 22.7132 17.4137C22.8071 16.9629 22.8589 16.2998 22.8357 15.83C22.8221 15.5481 22.7813 15.1327 22.754 14.9966C22.7472 14.9584 22.7254 14.8522 22.705 14.7583C22.686 14.6643 22.6655 14.5608 22.6587 14.5268C22.6465 14.4573 22.5525 14.125 22.5348 14.0842C22.528 14.0692 22.4994 13.9861 22.4694 13.9004C22.3441 13.5313 22.0977 12.9948 21.9275 12.7265C21.9111 12.6979 21.8961 12.672 21.8961 12.6693C21.8961 12.6652 21.873 12.6271 21.8444 12.5835C21.8158 12.54 21.764 12.461 21.7286 12.4092C21.587 12.1941 21.4699 12.0347 21.3038 11.8373C21.0137 11.49 20.6869 11.1673 20.3437 10.8922C20.1721 10.7533 19.9202 10.5695 19.8303 10.5164C19.8167 10.5082 19.7636 10.4742 19.7105 10.4401C19.6588 10.4061 19.5907 10.3639 19.5607 10.3475C19.5308 10.3312 19.4845 10.3053 19.4586 10.289C19.3959 10.2522 19.0269 10.0643 18.9071 10.0098C18.7151 9.92266 18.3474 9.78103 18.2262 9.74699C18.2044 9.74018 18.1213 9.71567 18.0424 9.69252C17.9634 9.66801 17.8626 9.64077 17.8163 9.63124C17.7714 9.62035 17.6883 9.59992 17.6325 9.5863C17.4636 9.54272 17.4282 9.53728 16.9189 9.46647C16.6397 9.42698 15.9548 9.40791 15.7342 9.43242C15.6593 9.44059 15.5394 9.45421 15.4686 9.46238C15.3039 9.48008 14.977 9.52638 14.8967 9.54272C14.7605 9.56996 14.4623 9.64213 14.386 9.66528C14.3411 9.6789 14.2553 9.70341 14.1954 9.71975C14.1355 9.73609 14.0687 9.75788 14.0456 9.76742C14.0238 9.77695 13.9557 9.80146 13.8958 9.82189C13.8359 9.84095 13.7692 9.86682 13.746 9.87636C13.7242 9.88589 13.6589 9.91312 13.603 9.93491C13.1523 10.1147 12.5994 10.4279 12.1936 10.7343C11.9594 10.9099 11.815 11.0311 11.6094 11.2231C11.5209 11.3062 11.4378 11.3743 11.4256 11.3743C11.4051 11.3743 11.4038 11.1986 11.4079 9.03479C11.4133 6.54822 11.4147 6.60133 11.3479 6.40659C11.1913 5.94768 10.6875 5.67941 10.2122 5.80334ZM16.5512 11.328C16.8004 11.3457 16.9162 11.3607 17.1572 11.4083C17.1981 11.4165 17.2553 11.4274 17.2839 11.4315C17.3111 11.4356 17.3383 11.4437 17.3424 11.4505C17.3465 11.4574 17.3669 11.4628 17.3901 11.4628C17.4119 11.4628 17.4405 11.4683 17.4541 11.4751C17.4663 11.4819 17.5045 11.4955 17.5385 11.5037C17.5725 11.5132 17.612 11.5254 17.627 11.5309C17.642 11.5363 17.6978 11.554 17.7496 11.5704C17.8027 11.5867 17.8599 11.6072 17.8789 11.6153C17.898 11.6235 17.928 11.6357 17.947 11.6439C17.9661 11.6507 17.9961 11.663 18.0151 11.6712C18.0342 11.678 18.0614 11.6889 18.0764 11.6943C18.1649 11.7283 18.4577 11.87 18.5462 11.9217C18.5802 11.9408 18.6265 11.968 18.6483 11.9803C18.7437 12.0347 18.839 12.0974 18.8431 12.1056C18.8458 12.1124 18.8553 12.1164 18.8649 12.1164C18.8744 12.1164 18.8935 12.1287 18.9071 12.1437C18.9207 12.1587 18.937 12.1709 18.9425 12.1709C18.9534 12.1709 19.238 12.382 19.2543 12.4011C19.2584 12.4051 19.2911 12.4337 19.3292 12.4637C19.4436 12.5549 19.8399 12.958 19.9406 13.0833C20.0128 13.1745 20.1803 13.3979 20.1803 13.4047C20.1803 13.4074 20.1926 13.4237 20.2075 13.4401C20.2225 13.4564 20.2348 13.4782 20.2348 13.4877C20.2348 13.4973 20.2402 13.5054 20.2457 13.5054C20.2525 13.5054 20.2661 13.5218 20.277 13.5422C20.2865 13.564 20.3124 13.6062 20.3328 13.6375C20.3533 13.6689 20.371 13.6975 20.371 13.7002C20.371 13.7043 20.3941 13.7465 20.4227 13.7928C20.4976 13.9167 20.6338 14.2027 20.6828 14.3361C20.6937 14.362 20.7087 14.4015 20.7182 14.4246C20.7482 14.4927 20.834 14.7555 20.834 14.7787C20.834 14.7896 20.8394 14.81 20.8462 14.8236C20.8666 14.8658 20.8884 14.9435 20.8884 14.9802C20.8884 14.9993 20.8952 15.0197 20.902 15.0238C20.9102 15.0279 20.9157 15.0565 20.9157 15.0851C20.9157 15.1137 20.9211 15.1409 20.9279 15.145C20.9347 15.1491 20.9429 15.1845 20.9483 15.224C20.9524 15.2635 20.9633 15.3356 20.9701 15.3847C21.0328 15.7918 21.0328 16.4223 20.9701 16.8145C20.962 16.8635 20.9524 16.9303 20.9483 16.9643C20.9443 16.9984 20.9361 17.0378 20.9293 17.0528C20.917 17.0801 20.9075 17.1291 20.8925 17.2271C20.8884 17.2544 20.8803 17.2816 20.8734 17.2857C20.8666 17.2898 20.8612 17.3102 20.8612 17.332C20.8612 17.3538 20.8557 17.3756 20.8476 17.3796C20.8408 17.3837 20.834 17.4028 20.834 17.4219C20.834 17.4396 20.8285 17.4654 20.8217 17.4791C20.8149 17.4913 20.8013 17.5294 20.7917 17.5635C20.7822 17.5975 20.77 17.6302 20.7631 17.637C20.7577 17.6452 20.7523 17.6643 20.7523 17.6806C20.7523 17.6983 20.7468 17.716 20.7386 17.7201C20.7318 17.7242 20.725 17.7378 20.725 17.7487C20.725 17.7596 20.7128 17.795 20.6978 17.8249C20.6828 17.8563 20.6705 17.8876 20.6705 17.8944C20.6705 17.9325 20.4091 18.4514 20.3424 18.5467C20.3274 18.5657 20.3165 18.5862 20.3165 18.5903C20.3165 18.6039 20.1776 18.8095 20.164 18.8136C20.1585 18.8163 20.1531 18.8245 20.1531 18.8313C20.1531 18.8408 20.0986 18.9198 20.0401 18.9933C20.0305 19.0042 20.0019 19.041 19.9761 19.0737C19.8862 19.1881 19.8331 19.2453 19.6288 19.4495C19.4286 19.6497 19.3973 19.6783 19.2611 19.7913C19.0814 19.9384 18.7804 20.1508 18.7505 20.1508C18.7437 20.1508 18.7368 20.1563 18.7368 20.1617C18.7368 20.1672 18.7042 20.189 18.666 20.2094C18.6265 20.2298 18.5639 20.2652 18.5258 20.287C18.4332 20.3415 18.1241 20.4885 17.9743 20.5498C17.9552 20.5566 17.928 20.5675 17.913 20.5743C17.8898 20.5839 17.8136 20.6084 17.5031 20.7091C17.4799 20.7173 17.4486 20.7228 17.4323 20.7228C17.4173 20.7228 17.3996 20.7282 17.3955 20.7364C17.3914 20.7432 17.3669 20.75 17.3424 20.75C17.3193 20.75 17.2934 20.7554 17.2866 20.7623C17.2784 20.7691 17.2484 20.7772 17.2185 20.7813C17.1885 20.7868 17.13 20.7963 17.0891 20.8045C16.8236 20.8576 16.5798 20.8766 16.1699 20.878C15.677 20.878 15.3747 20.8453 14.992 20.75C14.958 20.7418 14.9103 20.7309 14.8858 20.7269C14.8613 20.7228 14.8381 20.7146 14.834 20.7078C14.83 20.701 14.8095 20.6955 14.7877 20.6955C14.766 20.6955 14.7442 20.6887 14.7401 20.6819C14.736 20.6737 14.7169 20.6683 14.6992 20.6683C14.6815 20.6683 14.6625 20.6615 14.6584 20.6547C14.6543 20.6465 14.6352 20.6411 14.6175 20.6411C14.5998 20.6411 14.5808 20.6343 14.5767 20.6274C14.5726 20.6193 14.5562 20.6138 14.5413 20.6138C14.5277 20.6138 14.5045 20.6084 14.4909 20.6016C14.4786 20.5948 14.45 20.5825 14.4269 20.573C14.4051 20.5634 14.3751 20.5512 14.3629 20.5444C14.3493 20.5376 14.3316 20.5321 14.3248 20.5321C14.2785 20.5321 13.7392 20.2584 13.5758 20.1522C13.5336 20.125 13.49 20.0964 13.4791 20.0895C13.3906 20.0337 13.1918 19.888 13.0869 19.8036C13.0025 19.7341 12.6498 19.4141 12.6266 19.3842C12.613 19.3651 12.5558 19.3011 12.5 19.2398C12.4455 19.1785 12.3911 19.1159 12.3802 19.0982C12.3679 19.0818 12.3407 19.0464 12.3175 19.0192C12.2944 18.992 12.2644 18.9579 12.2522 18.9416C12.2195 18.9007 11.9893 18.5548 11.9784 18.5303C11.973 18.5194 11.9512 18.4786 11.9294 18.4418C11.8886 18.3751 11.7619 18.1204 11.7074 17.9992C11.6816 17.9421 11.6748 17.9257 11.6434 17.8454C11.6244 17.795 11.5985 17.7351 11.5863 17.7106C11.5794 17.6969 11.574 17.6738 11.574 17.6602C11.574 17.6452 11.5685 17.6288 11.5604 17.6248C11.5536 17.6207 11.5468 17.6016 11.5468 17.5839C11.5468 17.5662 11.5413 17.5471 11.5331 17.5431C11.5263 17.539 11.5195 17.5199 11.5195 17.5008C11.5195 17.4831 11.5141 17.4573 11.5073 17.4436C11.4882 17.4042 11.4651 17.3252 11.4651 17.2939C11.4651 17.2789 11.4596 17.2625 11.4528 17.2585C11.446 17.2544 11.4378 17.2271 11.4337 17.1999C11.4297 17.1713 11.4188 17.1168 11.4106 17.0801C11.3548 16.8322 11.3098 16.391 11.3098 16.086C11.3085 15.7986 11.3534 15.3779 11.4106 15.1191C11.4188 15.081 11.4297 15.0279 11.4337 14.9993C11.4378 14.9721 11.446 14.9448 11.4528 14.9407C11.4596 14.9367 11.4651 14.9189 11.4651 14.9012C11.4651 14.8835 11.4705 14.8549 11.4773 14.8372C11.4841 14.8195 11.4964 14.7787 11.5059 14.7446C11.5154 14.7106 11.5277 14.6725 11.5345 14.6602C11.5413 14.6466 11.5468 14.6248 11.5468 14.6112C11.5468 14.5976 11.5522 14.5812 11.5577 14.5731C11.5631 14.5663 11.5767 14.5363 11.5863 14.5063C11.5958 14.4764 11.6094 14.4382 11.6162 14.4205C11.623 14.4042 11.6339 14.377 11.6407 14.3593C11.6652 14.2939 11.6816 14.2571 11.7238 14.1659C11.8069 13.9861 11.9376 13.7329 11.9784 13.6729C11.9921 13.6512 12.0125 13.6185 12.0234 13.5967C12.0329 13.5763 12.0465 13.5599 12.0533 13.5599C12.0588 13.5599 12.0642 13.5531 12.0642 13.5449C12.0642 13.5259 12.2004 13.3271 12.2862 13.2195C12.2957 13.2086 12.3134 13.1854 12.3243 13.1677C12.3475 13.135 12.4496 13.0166 12.5545 12.9008C12.6511 12.7932 12.9344 12.5209 13.0311 12.4419C13.2176 12.288 13.5022 12.0838 13.6398 12.0061C13.8903 11.8632 14.239 11.6943 14.3928 11.6398C14.4514 11.6194 14.5004 11.599 14.5317 11.584C14.5454 11.5772 14.5685 11.5717 14.5821 11.5717C14.5971 11.5717 14.6134 11.5649 14.6175 11.5581C14.6216 11.55 14.6407 11.5445 14.6584 11.5445C14.6761 11.5445 14.6951 11.5377 14.6992 11.5309C14.7033 11.5227 14.7251 11.5173 14.7469 11.5173C14.7687 11.5173 14.7905 11.5105 14.7946 11.5037C14.7986 11.4955 14.8204 11.49 14.8422 11.49C14.864 11.49 14.8844 11.4846 14.8885 11.4778C14.8926 11.471 14.9158 11.4628 14.9403 11.4587C14.9825 11.4505 15.0084 11.4451 15.1799 11.407C15.3502 11.3688 15.5544 11.3443 15.8295 11.3266C15.9493 11.3198 16.0596 11.3103 16.0746 11.3076C16.1032 11.3008 16.2639 11.3076 16.5512 11.328Z" fill="white"/>
</svg>
