<svg width="120" height="120" viewBox="0 0 120 120" fill="none" xmlns="http://www.w3.org/2000/svg">
<g opacity="0.4">
<mask id="mask0_39_4" style="mask-type:alpha" maskUnits="userSpaceOnUse" x="0" y="0" width="120" height="120">
<rect width="120" height="120" rx="60" fill="white"/>
</mask>
<g mask="url(#mask0_39_4)">
<line x1="9.5" y1="-23" x2="9.50001" y2="143" stroke="#1554F0"/>
<line x1="21.5" y1="-23" x2="21.5" y2="143" stroke="#1554F0"/>
<line x1="33.5" y1="-23" x2="33.5" y2="143" stroke="#1554F0"/>
<line x1="75.5" y1="-23" x2="75.5" y2="143" stroke="#1554F0"/>
<line x1="117.5" y1="-23" x2="117.5" y2="143" stroke="#1554F0"/>
<line x1="45.5" y1="-23" x2="45.5" y2="143" stroke="#1554F0"/>
<line x1="87.5" y1="-23" x2="87.5" y2="143" stroke="#1554F0"/>
<line x1="57.5" y1="-23" x2="57.5" y2="143" stroke="#1554F0"/>
<line x1="99.5" y1="-23" x2="99.5" y2="143" stroke="#1554F0"/>
<line x1="3.5" y1="-23" x2="3.50001" y2="143" stroke="#1554F0"/>
<line x1="15.5" y1="-23" x2="15.5" y2="143" stroke="#1554F0"/>
<line x1="27.5" y1="-23" x2="27.5" y2="143" stroke="#1554F0"/>
<line x1="69.5" y1="-23" x2="69.5" y2="143" stroke="#1554F0"/>
<line x1="111.5" y1="-23" x2="111.5" y2="143" stroke="#1554F0"/>
<line x1="39.5" y1="-23" x2="39.5" y2="143" stroke="#1554F0"/>
<line x1="81.5" y1="-23" x2="81.5" y2="143" stroke="#1554F0"/>
<line x1="51.5" y1="-23" x2="51.5" y2="143" stroke="#1554F0"/>
<line x1="93.5" y1="-23" x2="93.5" y2="143" stroke="#1554F0"/>
<line x1="63.5" y1="-23" x2="63.5" y2="143" stroke="#1554F0"/>
<line x1="105.5" y1="-23" x2="105.5" y2="143" stroke="#1554F0"/>
</g>
</g>
</svg>
