<svg width="203" height="203" viewBox="0 0 203 203" fill="none" xmlns="http://www.w3.org/2000/svg">
<g opacity="0.4">
<mask id="mask0_39_37" style="mask-type:alpha" maskUnits="userSpaceOnUse" x="0" y="0" width="203" height="203">
<rect width="203" height="203" rx="101.5" fill="white"/>
</mask>
<g mask="url(#mask0_39_37)">
<line x1="15.725" y1="-38.9084" x2="15.725" y2="241.908" stroke="#1554F0"/>
<line x1="36.025" y1="-38.9084" x2="36.025" y2="241.908" stroke="#1554F0"/>
<line x1="56.325" y1="-38.9084" x2="56.325" y2="241.908" stroke="#1554F0"/>
<line x1="127.375" y1="-38.9084" x2="127.375" y2="241.908" stroke="#1554F0"/>
<line x1="198.425" y1="-38.9084" x2="198.425" y2="241.908" stroke="#1554F0"/>
<line x1="76.625" y1="-38.9084" x2="76.625" y2="241.908" stroke="#1554F0"/>
<line x1="147.675" y1="-38.9084" x2="147.675" y2="241.908" stroke="#1554F0"/>
<line x1="96.925" y1="-38.9084" x2="96.925" y2="241.908" stroke="#1554F0"/>
<line x1="167.975" y1="-38.9084" x2="167.975" y2="241.908" stroke="#1554F0"/>
<line x1="5.57501" y1="-38.9084" x2="5.57502" y2="241.908" stroke="#1554F0"/>
<line x1="25.875" y1="-38.9084" x2="25.875" y2="241.908" stroke="#1554F0"/>
<line x1="46.175" y1="-38.9084" x2="46.175" y2="241.908" stroke="#1554F0"/>
<line x1="117.225" y1="-38.9084" x2="117.225" y2="241.908" stroke="#1554F0"/>
<line x1="188.275" y1="-38.9084" x2="188.275" y2="241.908" stroke="#1554F0"/>
<line x1="66.475" y1="-38.9084" x2="66.475" y2="241.908" stroke="#1554F0"/>
<line x1="137.525" y1="-38.9084" x2="137.525" y2="241.908" stroke="#1554F0"/>
<line x1="86.775" y1="-38.9084" x2="86.775" y2="241.908" stroke="#1554F0"/>
<line x1="157.825" y1="-38.9084" x2="157.825" y2="241.908" stroke="#1554F0"/>
<line x1="107.075" y1="-38.9084" x2="107.075" y2="241.908" stroke="#1554F0"/>
<line x1="178.125" y1="-38.9084" x2="178.125" y2="241.908" stroke="#1554F0"/>
</g>
</g>
</svg>
